<mxfile host="www.draw.io" modified="2020-01-30T23:50:13.062Z" agent="Mozilla/5.0 (Windows NT 10.0; Win64; x64) AppleWebKit/537.36 (KHTML, like Gecko) Chrome/79.0.3945.130 Safari/537.36" etag="Q963gEOslXQICqa22xxc" version="12.6.2" type="github">
  <diagram id="ZUuNPeUuPKprhiljHhsP" name="Page-1">
    <mxGraphModel dx="1422" dy="745" grid="1" gridSize="10" guides="1" tooltips="1" connect="1" arrows="1" fold="1" page="1" pageScale="1" pageWidth="850" pageHeight="1100" math="0" shadow="0">
      <root>
        <mxCell id="0"/>
        <mxCell id="1" parent="0"/>
        <mxCell id="5FQkL91_oub3n9h8Phgb-25" value="" style="verticalLabelPosition=bottom;verticalAlign=top;html=1;shadow=0;dashed=0;strokeWidth=1;shape=mxgraph.android.phone2;strokeColor=#c0c0c0;" vertex="1" parent="1">
          <mxGeometry x="30" y="80" width="210" height="470" as="geometry"/>
        </mxCell>
        <mxCell id="5FQkL91_oub3n9h8Phgb-31" value="" style="strokeWidth=1;html=1;shadow=0;dashed=0;shape=mxgraph.android.statusBar;align=center;fillColor=#000000;strokeColor=#ffffff;fontColor=#ffffff;fontSize=10;" vertex="1" parent="1">
          <mxGeometry x="40" y="123" width="190" height="15.82" as="geometry"/>
        </mxCell>
        <mxCell id="5FQkL91_oub3n9h8Phgb-38" value="" style="shape=image;verticalLabelPosition=bottom;labelBackgroundColor=#ffffff;verticalAlign=top;aspect=fixed;imageAspect=0;image=data:image/png,iVBORw0KGgoAAAANSUhEUgAAAFwAAACjCAYAAAAHK3mUAAAgAElEQVR4Xuy8169lWX7f99k5n3zOzZVTd1cn9kxPJnt6IoMpSqREWhJpA4ZsP9ggDdgG+GAasF9sAYbhF9kSKQg2QYoUzWgO05AcchKHPdPTXdO5K1fdeHLYOS1j7f4f5mnufamqW7jnnLXX+v2+6beUVqsl+MHX920FlB8s+PdtrZsX+sGCf3/X+wcL/n1e7x8s+A8W/Pu9At/n1/tBDf/Bgn+fV+D7/HI/2OE/WPDv8wp8n19O2e0PRVJrHPR0xssI17FYbiL6nTbYNouzObpmYFo6SZ5SFYJOy2GdFFBkZHXBxe3zPD47xDE9VF2QFxU6NRUKZQElKoqq4jgqWZ5hKCqVoVKmJecuP8nh3XdRKRGqwqjdIlqvSUqFQlSYtsF+1yJPBONVBppCVhiMOhbr1RJNqblw4wqm0WU8m3H95hO8+s1X8DpDXCMkWZ2wCaEoFZKqoDfYhyIlXK6wLZOSiqwsqesMRdGQ37qqgjBRETgWhGVGXSiYpkGa12y3TRbhBl23qUuVmhJMk7qqQNQoKmRFiS1XQVPRDblUNZpaozx386ZISkF1dsjG0Xnm4mW++/b7OKpFrQqEahJoCqIuwbVpdbc4Gi8Q6Yx2pjPNK+pOzk9+6AX+9jvv0vdsxlGNpdWESUnHDhBWTpJDlkO/26bMN3iewXKZolQCr1szPVmBbnP+YJuigsUyIY8WdAOPUgjWYYoooDfoY5ga02VCUWxwRc2HP/4sf/fN+wgd9oZ9dq9d59qHv8js0Ru89jd/xGoTUWg2ippTFTpODUfhhAu+y6YI2eQCW/cYDgegK6zGS+IiRygqribY3R8Qz5ZYlk60jqi9Hr/03/4S/9u//D+INhFCpKiqwDJ1XL9NVSmsNit2gha6qrBcJ+z2dW6fJij/4ud/Qdx7cIdbb9/m0x/7CG2nzTReECcFcZLy4N59yjRkezAkrQRRvGHQ6rBKExAKpiqYhTGjrR71ugJT5YVP/SgxOg+/+Qd4HYuqEtx7PKHbHzHoddnkOh/56Kd4/+1XKdf3OTpek9cVrtEhI8dSBXs7fe6cpvTbFvHmhLq0SPOMT79wmVduj5lMF/TdFtcuDPne4RE/csnk2/cqhKLQ67fI8RF5yXIxwW13MOuE9SpjnqxodfpE0znXdre4PZ/gmD6B6dIZWnQDh+nklDtnK3p+i2c//hLvv/OA9YP3cA1YlQloOqP2FWaLRx/8W15haIKOrSEMj9JuUeQx+WaNp0DLsziMQoJCR7lwcFWYTolvtfB9j+2WRu/SR/jON/6U5WJNlmZkWYHr27RdgzStSLMc2zDJnRZKmvDs09d55buv0mlvcS6Iee/MIrE9Rm3omiWTswlhYuL6Dpqq88kf/zmeeepD/H9/9IdMH75CmJe8+OFP8Md/9ns8cfFys4PLMKJSdK5dAK2OeeO9KZNMJZyn9Hod1EpnuUpIRUFLzxlsdZnNQ3rDNmcnY1RFYKp6U9aeefImd04mqKJgOl7gujau5bBcTyiFje5oPL3T5vhoxshTOK11krSgKEosReNcv0e3A1PF5eTBGZ//kU/x/3zpL1HR8IycHAPbFGimRpbaWIZBWZQUVYatVHQMjbBQSEWG8r/8y38litUh/+8f/gHRYsUyzSkqD1WJsWyVnZZNsVqh+T5JrpHG8gmDp5ukXp9ucYY/2OLte6ecG/ks5hG5pvH0cx/lh1/6NP/+3//frCcT9ExQaTZX9nSyJKTSXcZrHcvMee6L/5ji9IjesMO3vvFV5tMxPbdFlK1Qm92j4wcGx6uMpE5RhIGSlviDdrMgmzzm8y+9zOzRXY5WMW3LZpWGJHGIWRms4xyv30fVNWaLKcvVkht726RpwRPPPM/k/VvcnUQYomAUGKyExXS1phP0qeuKPCvIZE/KSwpV0NJVXFenGwyosyWnqxDT8njiqWdQtII7b76BrrtURYKtu0TJCtvxuXL1AsrF3QPx8ic+TGnCX/zRX6N7XWpRUuUppSIoyhJdsynReP5Kh3lU4rgBJ6enrMKQ5w62ebxYIBQfp+dRnMXYjkJZluwOu6yFxXgT4mkFjmuxikoOdg5YPDjmZD3lv/8vP8//+e++0uyWjVZimRbJPKQSJY6tYes1UVKgaAa+ZZMKQRxt2NkeEJYqWgrDvsv9wyWdtmCT57QsuWFUHEMnTjes4hzH8dnI31OX5Cr89Bde5vjhfU6XEevFglKpSJMEFBPDFKiiJs11elu75FlJR68YLyeQuFR2gu1YdH2T+UnU4JzKtFCqisDS0E0Iui6rTUy0KlEMh4987vN882vfQHnm4gWxzlUuPfU0d177e85fucTde0cUVUS3MyTeLPFtlzBNKaqSsi6py4padnBN4dzBFncfT7nc2eWf/tf/Db/2v//PhKWB4ciHVmPbKnlVsl5t0FExdBPPH1JslqzriP2dy0xXpyRZQb+3wxc//zK/+x9+i6TK2d3aom0aHD1+wKjnMdlUKKrHJlqgmwaGPPqiwvMCDM1CY02YF1SViue2qNKIvCwRtUZe51S6hl4XcnmwhIOiwbn9PnZ/l1uvf4uuqaMoPoksRUWEaeh4vQOydcSVgeB4umC5KUjLipbjYvW7nD08oRvYDDsWR4uUQWCTVwVRXCPBTlqkKLWGInR2WirKJ557ShwtQ6JVCIaBWguevnGVN96/R1lCEKj0XA9qjcV8TlkVJLWEazaeK49LimWbmHmF3t3D0TZIQNVutzg6GxOn8gODgoYpn74i6J+7zNnDB9RpxGy9YfvcecaTMYamstPrUVFwOt3QtSwCxySvM8K4JEpLbMMir2G0u8vi8C7tnRZb7V2+ffs9ru8M6QYmZ6FGqzPg9OEdDFUhDCM0y2MVLRh0OsRhhGUWJKnBkxc6vLtxiaanmCJD6CamblJkGZqm8omXPkGy3NDWFrx1+5T5Km/KoGG2MIMOk8M5tlVRpDmZYtBqW1jolHFJVueIusB2TMqsxHU0lF63I2yhc37b5XClYhg1Xdfk8XhJgYKuqRwMe2yPhhw9fNw0zLDI6LSCBqIdn03Y2drl+GTC1iDgmQvbGIFNkpbcuX9CtFhTWpBWClu9EdlqzXw55dKTT/LwjdelJE9sdek4EG1KPF8nKeumWUu8vj3cYmdg8v7DMw7HKz77Q9u8fmdDWZkY9ZL9i3u8cfeUtm9SJTmq7lBXsmEJ0jylF5h4jomwAiaTKbsdl8lizcWexcOpwG9bLBMTo0pY5xtaQYBvmywmczxNIywFbVdvSoYjKjaFgmZV7ARt7h6HzaL6uk6c1+iyt3kedZljqgadXgdlEWEFcLQO0YSFsj0aCq0SXNwJuHdW0Ov56PIXxxGq7hLHKQPfpNPyWcuGKWqWaYmr1myKmigr0DTQTZPnr17lqUs9fvSnfoKT8Yo/+O3f5fRoTqhoRElGmm7YHu2QpbB74SLvvv4dWoHDeLnCM3WKGvr9FvcenmBbGkOJRoQsBwphHuMoGTf3B5zOBass42MvfZb3v/st7k6ndA2LMMtpD7bIohXr+QLTcSRKpd8JmCUpc7lTXZ06yxESWbg2nqUzDUtGnYDT2RhqQY2CIQQtoyYDdE0hThUM20MxfFwra/jGe4/PKBWFtmmSFSpVlXBw8Tq6pvPo3m2uX7uKP8tIA5XxZk0ZRyjXr5wX86VArWsMPUWSoI7lojoKumqynMV0Ao+g41EWEetV1DxlS9cwTZ04DvFtiEqFgdfm5Y9e4+Uf+wegW3zp9/8D3/jW+0RZQlXnbO1u4QdbjDc54dkjAltvjqGeZ2iWRqmqvPzhZ3nn9rs8OJmTJSkoOmUlsG2DiwOD+SJrGJ5iG3zyCz/Hn//Wr5IUEZ5pU6oena1tNosJy9kSw3Aa4qGbGp7nsNmsQQWtQR3Q7fksphuEqdPu9cjShCyMUFUV01KohcCoFTwD8lIWOodVUjAILDZRQbfvc3g2xzDUptc47Rbb526wmp5yfHgX3VC5cm5IrfeYjE9QsgLlQ09cFw8mG5Sy5vxuh/vHp3SDFmESNk8qS2pM2yJwLTqdbnPE1osZeVLQ7zoUiVzMAlvXaQ36uJbG/t55VMtgOZvx+NFR88bTWqPfaTUU//FkzF6/R7xccLLJ8CiwXYdMKJwbbaFpgntHY6oix7cNllEGitxxFlmVY2k6svXNE4sDC6bJmlHHZaO6zKcLXEMl8FooukVUFGz1W5DmxOGcypAoRG8goGpYnIwlFlexjBaDURu9qlitFiRFhjfYQWw2lNkGoUGUAqLCb7UxyoLhsM+DR6fI87Lt1PSGA5LKZjY5wWv10ERKYCk8nidYVU7gGyg3L14S7Z1dVkeH5HqNrZjMowy7LqRCQKlqGIrAtUx2LjxLd/uA8b1XefTwEbohcGy36d77fRe9s08VztCEwibNqVRVMmXKWiUva1xDA6VisUrptYfMV8eYpoNGRJVBtz9oTkK4SVEVA/Qc29Sp0py8LKiF2kBLicOromRTSGJrUBQzRsNtEgHhPGQYaGwNe5wuc8oqZXc05PBUkrglnqzRLZ+dwZDb94/o9Dzeu38fWw3ouQFogjheIeoa0+/Q9xweTk6JspAD32eZCGqho2kpvmuSRiWWZmLrgrCsGxhdiBrXCwgsgziLidKEtrDw2gLlsy9/RhyenjA04f1HM3pdh+lyjalaUnLCCALicImlW3S7A9xWh/22wnv3H7BYrBnKD3Y2oTUYcf6Fz/Hgm19C00ym8zWOpWOYFkLCMFMnSws28QbTNAmCgPF8QtftN6fJlZBMM9DVokE2VW1x/ZlnyEXF2bvfRSpCUS7FJI3/+D/5L/j93/pd4uWMqKi4sOsRZhWbMCXLU3Y7Hq12wIOjFYpSY3ktqromyTY4msPeyOULP/4z/Jt/92u0uwHT8QxNFfiYaIaJoqlEccK5K5eRUK1cnfA4LAgskyQWEnQj1E1T2/McLBN0wyYUJg41lpKxLIpGALMNeOLiELe1zVv3bqP84i/+ovi7r36N2XTBLFxgVLC3O2wayuPjZfOGy6JA1AYXLu6SlRnpZtMQI0kk9nouLjWPwpprz76I72q8893XyEqBJvSGGVpKgWuaJFnWkJhKV9nrDtikGzabjINRh4fTNWpZoxo1pW7iWDYdz6dEYX42xvf8BkEZlOxfe5rju/eZzM9QK1Bcj3bX59HxWVMG94MOlVIyX8UoqgSpCkKtSIVCS7N48emLhKlATec8XK7RsDmbnGLoNablNHpMWdZ0/IBSKp9pyFKDXssmWqdNvwhDFVFvyM0aodioWKiOj2NqqOGCQujYpkqc5Ax9n8LWSaIVyksv/aQ4PXkHqzJI8jWeljMVFrpisNMJWKUVi/kMxTDoug61qEiymDgXmGmGrih0+i3OFgVCl5pMG0WtcHSfttFlra04PrpP4DiNJgNGQzh2Ll1gcXjC3oUdwqjg8cPHqJKUuDZBd5/Z+C6WLEdS3q0VFEOh3zLRJCytPPbO7yOWY2ZZxPWBz63TkDzLsXSDjmdy/vxlYn3AvbduQb5ANTR+7B/9E77+l98ki05xnYA0XjYEy7D6pKuF7Kaoto9tuFAU7O4M6Y12GU9SpnmCXU757375V/hff+WXKaMNq1JF1RU8y2wInXyItiYZakItbM7ttImiFWUKi7puiKLy5MUnhKZUnCzmGKZCm5KnL3V4Z62zu/8Ms/mUQb/H4dvfAVsnXG/wqoJ1CXEtO7nKxa0Rj+dThp7LOk6plQpbOBSaCmaFUguKVNBqdcmKEEuo5EpNtJEIyOIX/qtf4tf/1b9GVQpWmwzX89B1BYUaueqSuOjCphQWhlpQKQW21iMQGz7+4lVev/2w2VUpLUrbINosCUyL3N8hShLUomS/32aVrjk9k2s5R7cU2kaN57dobZ9nfO82SRLT62/R3dtjPZ6wPD0kMSyqXMFSC7yeRycYsViesQlDhIC8Urmwv0Nne8hbt95Eq3M80yFHxVZ04iJmMBoyGS9QFQtlp7cl9va6bLKE69sD7o5neJQchzZpLujZNaUoWKQZXc+n7bU4Xa35519o8SdfP+N4VrAz2ub4+ARTVzEk47JUet02m02E53fIcp0qWoOSY7U6mKrCx158kr/9yqtc37ZZZjmn84x2f8BkesaFnSEPDk/RFZ1KMZG6vmJoOJ7Nxf0tppuE06NH7Gzto4cxg8tPMT98ncsf/hRvf/sVlvMJg26XAgv0ipde+gns0ZBv/Mmf8hM/+QV+69d/g3mc4WUzYqFQ6Q5t0yMXCdtb+wTtIe+8/l2GvYxN4bBa1ziK1FdKMl3FVCRYyRht7XByGrPrK4wlM1UVHFuWpBJRpJRpxnDYYrPJG3MmLEAZeHvikxfhVigYGT5F4DM/usfucMjheN3AqPP7O0hv5OHREauiwBEghM6FkUOeaTyenVKbbUyhU0v2YhcIpLjTgTJivVnz5EEH6pq7pwuWidy4CgcHu5yGIVou2MQhqqLR6QXka0mwCjZ5ghQkOp0+hjPg2aef5M3Xvk5YJnSsbSKl4uf/4U/wx7//J/z4P/s5fv/f/CYREaZl4htw83zAfLphpp7HOzjH/PY7sFnSCVTuj+e4eocZK/IkwkYjUQsc3aFlqJwbOSyimOlaQ2QCxXAbN2uxGvPCzZvcffCQutJQ9Zyk0OmLmlhTmp6jY1MJgeOUPP/8s9y9f8J6uUCxNJSDwZ4YdKWcCWE05uLWgPF4yuWtIaGic7rYNLBH2mZCCJI8w+l47LR6DEbXeP/OG2wPN9y5nzXY1bVcLm0POOj6fO/eGalSM+i2OBtPuHxuRLiOWIc1m8hAqxckmsYLz1xmuVxy78Ep53YPePD4MZapUaOxvbvLcO+Aycljok3OfDPDKzMSy2s0+SRdIirB0O9i6Bq9fo80izg6PMHVbTQTDMug03V4PImw85qf+8//M37/t3+Px6f3EKrVYPZLO1t87/Z7jVYzMm1yXePDn/0800dHvPrKd5Db2kAn8L1GmqiMGrNQcDotrn7kZU7f/jarxYSqNAgMk1TKyOgYikWpS8W1ZKSbKB996uPidHafVZqhomK6DlahoNg62+euY9SCKjllugrRhcJ8kzTS6VP7PVLjgMPJA/pG8oENlphkecV2W6E2VdK84mBrn6TSeHD7PTzTIK9LHN9gudHZvjggXibYlsL8+AjDUEhqHdOwSbMNpvHBoouybuplrUi8a2PWa1a1oGX7WHpFLkyGgcvh6RmO49Lv9UgWa3RHYRnJBmagKA2raN67UemNn1q4mizCmJ6PridNyUzinHVUUmQVe7sj4jhjGa4pRYWm61zd3ebhySGO67OOpKJoUWo9XBEju2Nda5iSfGg1nVaH0daA9XyDqFTa1RnKpeF5Uas5YV7T6fvMzpa4hoJuu4w6Lfy2y/3HJ6QNIlEZDnco4g0lRWN56bpJsolxOz4iTJhlBbYqMKQjJMCqKwaDNkVZs1hGaK5DHOfIlvj5f/iz6H7AV37nV8kqnWtbDplq0t++xHtv3CLotCjzpDldpudQpiql4xAtpg3etpClI+fC1ascvX/Cqq6oRNFIsF6r3fSUTbTGty3KDEod2YbZ8rscLRdIsFAngkIvKPISRTcYtjQ0TWuou6p5aLpJXaakhaDtaLSMkgezHNeo2ZQVQaXRarmohk4ipVhNR6010Cr2d7YwfA+jUvBNnbzUUK7u74pCKBiaw2I1o6LCsVt4homllazjqhHnbelKUzfCfJWVxLU0ihWEZkOdkQiDp7c7vHd0hu9oaEqJLMVUCoYuSY00uxTc/hbRKqYqYmodrALW0mwo4dy5bU5mM3Sv00gHklGk0RqtVrhx9RIn4xOqdE2aVY3kK9CwKEmFiaGUpIra4G211PFMaV7opKU0UsAyXKlLIXSNH3n5n/KtV/6c1ekZCilFrcrj01htF7sGlq4yi2G6Sem0uqhlRFXlVHnR6O91ZSNERqHVtLU2LQsWSYyqm3Q8t4GJ6FKbsuiPOhxsddke7DewWzk/6AtJCDq9bcaLI0xFZ9DvkiQRm3WKqikMe92GMa7WIbl0NTyLzUpKpBXyYbV8jbK0ubzf5b1HZxRZ3oj3dUWjR8svUX/gamdlga95TY0rhEEtMtq+hSF00iJvCEtpBo15kWcxhi7QFLk7CuqyZDTskEQJIi3IJIWWpMZxKOqSsqqxDNGwP9NxG/2nylKSTGl2YMcxmW1iuhc/ilHeZ344JsySRgUMOgOi5ZS2pzcbykBjHMW4joujl1iV3Iqwll5nnlNJuuTI6IOPVmSYjgmagWOaWJKI+Q6+43Lp0jZPP3/AtSd+mNnpHZQffvpZce/slPZwB7vT5+zO99AsmzySOQ2zEZIkPs/k8Qm6WKp8qYzp4oMmiWpQFxmKqWAKA83V0AqtMYZ1acxJaTPXEXJxrBpNij6tEStRUOcyhlE1Na/lt5hOZ00d1/0+dZZSV0WDUkzFIK1y1CqnyApqXUWvcmzHocpNbE0hrBWKIsG1dRTXpVakxAqr1YZO0GWd5c1DUUSNb2qEUkxSdRZpzMHuOfq7W0SzGafjMdevn8PF5HtvvN2USk2W5NJkHK4aI9zWdI7HZ9hqRa3KalA0GRrfdmg7fnOyd0YO5w52uH7pgE+89DFufvRzTE/eRXnxuRfEo6MzdL3m/M1Pcvu7X6YSOm3boZBLVmWUZd7YRef2DvjhH7rJ6++8xZ2HM7IkojYUjBoyUdJyHJK8oGtaTOMM3VCoc7lo0mKSgZkaRYHtXptc99mMxxhei3bXZbOes1mH2KpBtyV1HIHqdgjDnL5rkeRh00Tzoma2Tho2q9s6ZaIhihKv02k0Gc+Su9uhUjQcw+J0PEUzLbb3LjE/PSZJxjiGT3fg8eh4hqZrbI/2yfM5e6MRDx8dc+XKTaQqPjm6zSqKyUuFINhnEs9pmbAz8Llz7xBdEj/NJnBUDJkdKopGjKs1j05Pp+MbPH9lhw9/6uNcfPLDzM4OUba6O2Jrq93IlLXR5R/99I/ztW98i2j8+IPaJmo0RUVTK4adLp/++Id5/8ED3nrvMWZdEZPj+B2izYbtnRGHj46xa0EqD51uNCRHHkZ5zG3TaMqAqEosy0bNa1JV5fJum1IoFKWs6ztk60OGLZtZUrFZFXRbLmUVc2ErYLGuOJ5tyMQHWvlW4GGRcumJjzJJS04evI3f8ZhON+RxTKXqCHS29q4SL+SCL2XxZ3e7z3odExdpg04cGVwKS0pNb7SeOovxHZW4KKmLira3zXEY0jFr6rwkykt8YZGWCbprMWgFTdlyXJvVIqHbsbEsuLDd5tKFy7gtn81mhXL1+g0xcFUW64RFWPLii5/h5OQOswfvEAsp3FuNPJtnNZbtcnVfEqIz5rMQXeLVMuHahfNgaMyWEdhtTu6/j2oYTeNKsxRDsjnVanTji7tDTidnjQaTJTFFLZr/Z/lBsyPU1nVmx++z3e9w9/gRRabjWAaWUdJxHRbrAtezOVksOWj7hLnANQQXn3qJDI3Hb71CpZcNmaHOSSUZEypZrTcimm6qGLX2QcPWYNhV+OKP/gP+8it/jU6Lk+kM3S5RBU1UopTiV63gUrDOdFqBTrkq2Tm/z6MHd2l5HYKuR6vTYj6Z02q1SdMUpUzodzvcuN5hPM1QJNXXDZTz568L6hA/sDk+3DQGar/tcv36dR49eo/j6RJTqRrXJWh18GwTSsEiTEhKWT5E0xhlvOJsPMXs9thMx7R0E93SWccR5/t9qVlxZ7zkyu4245WUf2sWswWG7+NrWiOSPXXtAscnCzyrpDb8plGKJKTWrEZv1hSFbm/EKg45Oz7luXMt/v5hgm47XNy6hKPMuH86Z53EdG0Nw7FY5zWqZpBKqJIX2LbU5T0Su8Ao4PmtmovXP83fvn2LrKwJ4wRDrdHRKCsJI2Xd1znotHjr7JSr3Q5nZ6dYwS5n0QkvXbtEKlbcGzv4ZYrpKkR5hZLXWJZDt282UTdd+goyW3hhuC3cwGvqXywTVgQcXN9mfLaAImpoq1TOsjpp4J1ve3zik19gvpxw/+73iMN144TUmNSyEVIQOAYXt0fcfjxpGo7EwWmdsQ5jdBln0DSqqsJrOdhCw1bg8WbFtWs3uHv7Np5ho9lGQzSybMPFnS5PHAREOUxCg3v3TgkbBKEhIx5qZaKYUnCpKEVN3w+ajTNZLfD9dtOwN3HSGMuuYdLxNVJyep1WE1AV3rARuUIK3NJowHpJhlJm6FUNmodf1UzjEM9VSdZzXhi6vLtU+JEPP8W9d95inHboyFhevGF4/ip6EXP66JgiVxF6hWrqqBLr7+yMJA/jyQsHfO29O+xbLUrXJJrPMG0XRdVI07iBh5ZqIZw2fc/F1UqW6yWLJCLPZWJUY6s7ZLFecnDuGuvJA6g0jJbNJlyTbDYUlUKhKLRcg1VSM3AVLNMmKktaqsHHP/ZD/PlffY2bN5/F6/R557W/p+PbPH3Z46f/2c+i12v++E++yl9+85i08onyFe2OzJC0kEmOaLNmsikaJ0baevJhtZygycYkQiOUUu7Vq6xO7rJWwbN6KJIVSmMZlbhM6aPy5HafKK347sNpw1y77Y60kpiOp2ySnFrXuKBlzCKDtt9BU3PWeYLrOFie3Yh2PdmvEoHT6SOUimRVMYs2KOeHF0VcxgRdh/V0zXDbY7rIOddrN1nDLI4xXZfDkwVlnTPcv9yoh2WYILKCsI5IQoXSLKlKaKsqvjsgjudYpmw2Nqs8o5LoIozZbckYgSBo2xjOByZupRvkizVKYDdROplckpBUUvpBy+K5Gx0+/+lnmvDoq7dXvHo7ZPL4Di1F5ee/4PGN+D/i/q2vcO/BY6xOgNPpMD89RKtTbLXFwe4Ay4e7RycYZtAod11HITZ0lqIksDW2eh1mZcqy1ppI37aEkElKnHwgF0fzMwZGzd15zY6ZU+pDyjpmdnpCy/e5usnco3wAACAASURBVDtoohIUS47WKpe3LpHmObPNhiQNQZRsbwcorU5HSPtJSqGXL19lcnKGI0rWRYlhOqRxSBC0aXXlnwuevzRA87usS58omhBPJyiOx+2772HoRtMEDUWyugzHLEmjClS9yei1HK9JYRmVRm1mPH3jBrPEZvroHvPNFM0z6Q/6TE5nDYrpBD6mrN1qycHAQRQV44VNZaZst23eeXuB6Xkk1ZIsk7E8yXj6tAKDdZIjqghFUajMAE+yYj+n63aY5xa4sG8Jrj37HE9cvMavvvJVZorghtsm0ODV8REir2iHGUa65GL3gMMHM+xKawQ0IfX6dYzT9fmpz3yEw/mGV797C01UuO0tPvKpl9AMjfWjB7zx1juEq4Q4XaJc3t8SUaE1EWSZln3myi5/9877WIrBoN1C90xOZ3MM3aUocgJD5/LTz/Ar/9P/wJe++hpf/c1fo1qMOQ0XTAqLtinxtoOqS4k2b7xEmfPY822WcdoQnDDMWEeiedM/9uIN/uaVd2hvtVFkHygzNpuY3Z2ArqViGwHrPMNS1jx35QJfee0hscTFnT7HJyu6ZtYojZljsz0YNZaddOHTfNmgKOlVSk3o5U//KN/83jc4O1kTW4JPPfMkfzc5Jmn3aDkao3afvWDItxZnMqvKFjW7qsPZ8YSjsxndYsUNP+Ty7nm+N1O4detNLLWFZcB0HoLmEjgCz1Kp2wGf+/xP4/ht/vZv/gCnLLl/5x5CqCg/dPmGmJUx9lpQGXJHQKQqjc10+aDHJhLsDts8OjpivqkQpkGvN2L/yU9hVCHP2PebFO1v/vbfkKtVEwP2govMj241gpQqYtqdAMsxGxKhxhKV2yRkFBLldFvk6w2+328cHl0rWCcCIRTagd/kGaX3Ody+TJYuGHX6tPev8u63v8wnf+TH+es//RLPfepzvPmdr3Jhb8B8teJoHhK0fAbdNlevP0uaL7h9fEJeG+SqwdBMGVsaz+1s8Z4UtnyXXq/HlWDEx7bO8eXbrzFezlnPVnSo2UwWOEnKKHzEWysPzTHRljFUSxaZhmdanO+4zeRIpnX45A//CIFecP/dN3k8iwlXIXm6aZRY5dLWllBMg1Vos92umacSAkaM2j1uXvH43r0N250e9x49avCslEZ0w8J3HeZ5zsAJyDSLs5M77HcH2JbD3uWP8c2//+Nm0kFmSNxm1+skFVSl1B9KtnstHk0T9LpscLUoRRPLkH6nNK51VWfQbnO2ihtML4WqKFyiydpqOOz2HYLWgPdv36Xr98mLmBTRRM8kZZcjMsP9i/zkP/45XKPkD7/0Z0RVRVRXXApSjhUFsXOJ86MdpoHFeb9LWyQcWAqvzdccL2OOZzPUNMFaCOL5mD2/zfv3b1NuSoamTpqvWWUqW50elpITL6cUco3sDp3AIIpCui2fIs2YzPNGXlY+8exVEbQ7PDiMmnELma5KM5l8VdndMhqikSUZ3a6FZ/ss4pTzfY/1MuNovaEtY0mGTzSdolYqhVLjdz2cwOPkaIFu6OTZmpZpNSncSGoaSsUmrVCbVFXBhz72Iq/9/be5sr/bBC03mcBt9Wi1JdFZNOnTdDVFM2RkWWeyqrm018VrBbz2zpuNfn5tv8ed04SyyHA0laDjM9jfZ+vq01zaG/L43dd4eDLlkaZzpWNyyxJ0Rjs8v3uJVTvgxtY2+4OhzBvx17ffZ3l2ijE7w49KDqcz2psVdpbw4GjWeAduldN2ekyiFR3TRKQhmZCQt2xUykSRc0k5alaSktD3/UaxVC5t9YRttch0jfV61QRZpLdBbdDyBNuDLqvljKzIm9opYwQfee5Zxicn3D4aYygVH/2hp/n2t98hB3zLQO908I2Ao6OH9EbDJnv48NEh2x2vUQTbgcskTMjiGkU2GQnWDZMbN5/mjVuv4ZoWpt1t4NR8ccS5UbcZ21C8fqNfvPPguBkRuXx5QJRE3Ll93KS/+ltt0k3WmBWj3T2cQZ91NGEVJzx/4DGOXO6h8sJOn9cseGLQY2d7n4OD83zxyhMMWz0elQX/9tWv8979O4zHZxxEBV6Ws370LkVpEy5SsnhOKiNxmoyTKBTLBYaq43sagdSgFCjyglQKbYkMfxpYxOxcewplrzcU3e0+4TpBJWuyI2VtNSRBjm34tsJe12WdlYSZSpmXfPIzn+X9t241eTmZpt2XydrTDbmRcaPXJtG6jZadzU7ZPv9kM3lw/703EaJEt2RWoyCXg19KTa6o7HQ8Qhl0VGQ0WeA5GnUhmvEWz9bZ6juYekkaCybLitoSXL/2NJ6acXDhPL/3h3+FDKgYvkstXRjP4eZzLxLXgod33iGrFXa2AnqtFo/ytMkRngQBL+y0eO7cBc7vnafX6aI4AfeijNce3OHNe++wPDvCXIYUi5hqOadj99HDsyZ8up6taXnSzksQVY1nafRafkPhpbCWZSlnsxwNhYNRQFWmPJpFKAfbA9EdDijW0qHOP5gQaGwiiNO6yVkMug6O16YoVM5m0yYguTXoMlvMyGTuT8q3ad1MkclstMznJarUUgxM0/sge6jVVKImytMmnFNK66VUsB2NSuS0LaNhq7MwoZbTC5qCKWdl6hLflTmZClEIoiijNery3Is/yV9++Y9RqowqW2E5eqNnTKZLOv0RQavL4dEhjq42Ca7TzYxKzYhVg2DQp+51+OLlKwwHwyalG2s2t7OUw82aUSZYzx7z+PEDTiZjRJRQzFP6QiHbrDCNiuPjiH67RZEqpLlUCSv2tzrNiOT9o1NsS2+m9mRGpeu1WMUpqnSErp87EKWus1onuK5Fz7GaH9ZFTl4pPHH9HLs7Pd58424j2apsmIQpvjdkcnZGkudYntvgXRm2ycKMPJdyrt6MaSi2jdpk9ky8To/V9IRczhHJAL9u0etKUnXaSLu5AkmSNyKZWmWcG7lEYcx0UzbuiRxdFFXOU9fPsVxbjOMlxXpCUogmuDTyNFJRsmyixTaOrTcs89Of+Ah3zk65u1gw6vV5+qDNurXFs7u7aN6AWgZ5TIe/nDzkZL3AzwTdtGB2dsJkOaUrZ4ScFvH0lEujC9x6+1WStRyJLElyOTWhkAuliSPLXGGO3TDkqpQRP0G30+doMqfMKpQf+8LnxP37x4wnp4y2t5ugj2OrnI7ndDybKxcv4bc73H//3UZM8syaRVihqi5lKXFBRVmqjfjeGeiNNnLnbCF9GPpKhea4ZKZPoZo43SEeIdPJjDhJOL81pFTUJvwfNC59zibKG+c/jmP6gcTHLlluNrh9WWzw9YorF6/w9p3H6LrAyGKG+xc4PZwy9GPmqcEqlfNBNi1XpzMwGgIyr6Xt5bI37HDzok9t72G0OxTyZGkBgTD5w9O3EdKtSjMutLeo44LX776Gu8kYGlJenTDqDHj++Q/xO7/x29imzEqWKEpFVqkMfK/ZtA+Oxni2TVHldB2/eZjTJKHOSpRf+JmfEl/7+i1ypfhAuLeGbPsVmmlydOc2pUQeVY2pKdJHoFKkLt4mzwyKctMI9ZVwmnTUdlvgt7ocL1botYols3VZSdAfgaY2+RTPVEiyshk9CTynsd4y1cAQBvPlWTOP02S6dTm1/EHHl7JmXtUkFAzUlETvc/nmC7z2zb9GKxX2djps1jWKkbIMS2q9wjY8zg119to5kzIgos1cT9hqdRnt7PLs9Q9xEk5J1Yx1UhKGCY/CuGHIe4pg3xrQ6+2y3Jxy5+57jB8/ZD8wOT7J+NSnPsLr33m9+TxJbTTDu+vVCed3t1gnNfPZAtvQWWcxtuI0QKPd8RifnKK8/MJN8dbxohnTkEHIwc4ueqXy8uc+w5/9zm9gtgOyrKRl20wmC4YXn0DEC3b39nh0732mswmV5gMJalU1MNAxmjg2DdcU4LpBMxMkd73aNJQSU2rlRY2paximSVWraMIBzSYLH2LpJstNSNXkBT8wsJ/80Iuc3r7FeJEw2N5ldnTUZPtk6EbGrIPAJkrjBk3Jz3JwMGyO9CIT5IaC0C12BzsEvRajnT3CNKNUMhbzEFEsm/HyjZKh5xVuoeJ7IzRF0C3vcjLJmM8yAizuRDOGttWM49w7i+jaLuRLfM9qItqKnBGSAX6pQxleo1bqkvG6Ocqzl2+ItAybRulbClGW4lrbvPzZF/mrv/iLZsphuk4ah742Ayz3PMX6IcOuyXi+QM6OdYZt7j6SR9yi3TIpwohCjt9ZFklRNcqdPDG7u9sk0oWR98hVeZM1TNKI/dElbtx4jtff+DYnZwt0ZJY7aVKsciNIOl0XBat4yaHM6NUGdR41o+m7u3vN7I4uR7m0nKAd0B1scfvOHT7yocvomsarDxZYhoPh29y8sIfjBFh+q4m2zRdzxtMIq1yxVpTG95R8wiiVpln7Wkk8O2UyT4lCQT/QubtMGkNCkfnJSiKumq6lNGk0W3qqmkEpdXghJ0VqlnHSaEmWJlB++X/8l+KvXnmDk1t/0xi1jqZz4cK5xiYTmnRUlkwnE5IoZbR/jSyvWS2OGmblaFaTtdskCmW2ZNTvNT6n3N2qNPlUjZ3z59jf2+H4+LDRnHVD7uYazzGa0jLyWwjXwxUJJ6erpkQt5pIwmU3+OpJyb39AIg3nakWcV0QyM6J0WRbLJkMYLsLGImsyfaokaG4zpj4I9A+m0kwVx+uiDLeaefktV8NzPW5PzqjiiMN13Hiyqm5TxhsCeTuBUHDqlDJJWCVlE9IsYmmCmGxqObDrsrfd4vRkgum5BKZOGFf0Rn2oCp7ck3co5Lx+PySMFDAFdRKjvPjJnxZTiTPHbzRDp1tbHc6P2vT2LvJP/vm/4P/617/Gg/e/w3SxRtN0FBk7EDl1baPWEj1ohNKdl5cGWOIDKt9yWYUpqq7jBgGB77C31Wsm2yarCKkPyLkYRdPQhOwRZTNQOl9vKJKyWeyyyJu5o/l83ki7g9EeiJyl/LucvdRs2raO2umSzuZU8pYKq4WhK6SyaVowOOiiNDsxwTRbRI7ObmcLS7FJHJ/lMiGc3ifMLEw5gBsmqFrMEzt7TY+5e/dRI7gNdy+ymN4njeTlCCqaIVAyD03LGbZtLl3c45mrW/z673y9uV1DVy2evdxhuUo5mspT18LrGw1BUgajoRgGDpVmNsmoc8Mui3mGNegSdC4ThodsTg+lX8tLH38BRXP49iuvslxNUDUZbZOLLBfPZHtkM13mJFXZpJ7kQlea3uyq8xf2m7IlLzqQrFWyUllmJFVPVhHSuVtusqbZzE7PsDStmSZeRQmb1ZonbjyJo+tMHp7wxPPP8Mo3vsYiC3nh5gvce/wue57B22cZjiuv+2ixjpcI2UyKAkOGgLw2F3pdcsvCVhLmuY/h7/D2/Vt4RYhaFYQCAsvjYx/5YQZ+n/vf/TL37j5gmhbNRvrMZz/Pl/7iyzx581nefuUVbl5wuTcpSZSaOlM+MEOqmGQj0GoZUSpRKgm3PT7zxZ/hwe3voly9dEmcG4x4dHpImht4toWqZSxjCebBc9okUdhM1AZNozDZP7dNklVMZmuWyxCh1Bxs9zlcrDBUwaDTIy1Ker02q/AD5mdKHdOSlN1Fdyy8wKPX9lgsEvJ4RbqJm8sIptN5E96Rd49USdr4paUkPJuouVxhEmaMLINxVOH0B6ibEz77yRuc/9R/ypd++zc4Pn6Hy/stdgct7jyq8A0Z5k9w7C616pOpJfMsb8JE21abuJjjtPc4nL9Hz+w2qOoTn/g8imHzla/8GcvVoukXmgQOvoUzHHL24GHj68qJDRniHwxG7O7sc/b4jBee6RIXBV/5+1M8VQp1ct64z9MvfpHv3vpTlI+++KKYj884f+45ti4+z9e/8utk8QJRWw2T6o98xpMFnmHg+C6LTcRssabj2qzTlI68YECTDFSOdstYm4HlGCi6juqYOI6HMORYXhvDcTEdnW5vSOC2GGchP/vcRb70zVvNTFAUFyzGE0RZsDPosdXu8tr33mATRVy+8Qzj41Nm48cyx4UQFu32iGJxr6H0n3nuHF9+5U4TpjRUaRp/MCroy13jCgzLQ5FoSEkZOV3OwgV5BnWlcvWJ53jzla82KayOYWDrCrXbJoxqiiptJIYqDTFEjBaYJKGNoS5J65q24mJ4bVabDarpUImEPEuwFJ2WqVGpppz5aEyYvQv7KBf2D4TXlulReZ1FRZ0uuNpKeHsqJ8ZMet0+53d3GvtMaAa3H9yjqIsm7iajx8tN3HTzfq9LuF7QbbeJq4qd3V2OxxN0x8byXaxWi86gz2BrgNMOUJwWpQZluCZIUu7du8NiFpKHKRpqEyeTzWd2dobh9JpM4UHP4WgRM5tuMJUE2+/iqhqjg8vMVmccHS7Y7Zmc7wccL+JmgwT9Hcp42ZCf0jTRkryZwrj21A9x6803KdMIxbCI8pw8liH6glpKwJrFxYtXmnD+6aN7aPW6ca/2nn+Wb3/5q/S6WvPARp0h09WK2jYZtFqkq3Fz94vsdzKL0ZE6UZFRRymV1Uf53GdfFm+//V6TEXzhxiXeeOc2WlkjzepaU+jKhyHjZn4HUaqEyaK5luP+vcecnRySJWviquTahWu8/+A92p5PWNWN+eq1PWxH7gAXs9MiGPQYyFHuvX0u7+yj+l2+fucWxuSMzSxmcf8u88UKrSob+h+uQ+qqJs+rxg1XapA3oJR53pQZOdyKmtAPBszXEq9ruIGcNE4JmmCOzZUrl+hYTnNTRODr3Ls7bu4UOH18hO1LQcdmsVk1NwChOyh5hWOouI7ZnGBHNbh8aZvo/2fpPYPsSvPzvt85N+ecQ+cG0MgYYIBBmLAzm2Z3dnaXG8klKVJkUbJKpE1WiZY/WKWS/MEmVVa5irYoyRZpUSWSIrnewN3lTs4YZDTQaHSjc7jdN+d7zrnpuN4XnI9TqE73hPf//J/n9zTaNLUR9UaToVhK9HRywSCu+CS1g03pf7HbHQz1FlGPSwaMG70uV8+Kv8shnXqDQCKPkstkzcHQxOVzcenCeW68/6G09Iqch+pwkUoGqDYaMsU21Hq4PS7OPfMixWIZdayzV9rH6vZR2j+Q5nevX2TaFHKpKE7hyBK/iMuJJxImkYgzkZtgZmKKmXgSAnE+XV7k7uMlLuem+P5Pf0yvXGak9yQMQfgIDaFP9AcY7bZ0cvmcdtrtDrWWIEVYcLnB6w09TREPhrh9AWnTEDyrgFMcTRWGwleumqijMVviCKk6aHQreK0KdUF+UgfyveIOhjHqVRktGQ5NqVz6fc6nPhe3T7pvDxsac5EAy5UDsuEUp1/8Ajff+m+oDi9ORwir1sAqsqYDVfp2BNTA63MzGOuEI0mUUDBsOp1C/nSQDRgcNFWUkYLD6ZPPYPuoKpMP1bZFKmDjscBjKJI/InKuiViCmqZQPnyC3eUkngzLY96pI1PUNJGt7GH3+vBHQmTTKabykyTiCZxON1vtpjRJPn58g4Si8MHDxwy6PYxOS96OLquFnY116d0W3nSby0a/N5DTpzcS52B3m1DQQSAyQavaIBp20BnbSEeiMrDbPlyXbi/BfRmNxMapLwW2ZqMnzU71eo+x2HCh4wu7iAcz2LQOs3NZ6o0W28WWXGhobTEYitCrgRKOY+8MaHVbhIMecDpwjwbyrB7zWpiMOel0+1T6CpWGeP4PyWVSVFp1Ij4HSjiWMS+/8BL15RuU6zXahoWg10s0lpdLUK10X9oi9usW+iMTm1UodiaTExMclA85d+IKRb1Ptbgs0wLiWd7VOkxMTctEWKtTw+73kkhnSCYShIIhqdmIZ2bT6FAuNclZqixtNkFxMZmf4Mb7b+EVgdlune2NNemydTqdzE3lGDt8PLx3j2g0y/b6Il/84gs8fLxNrVzk7FyM5fUqsXgWj9NHq1Gkr4zkXdnu9uhofcJ+jwjOc/K5q3z04UcMemMCDghlkvL0MZ2OcGLhBFXhpG22KFZqWIYa7eEYny/I0OpgZ3UNl9MudwbiLO4WBnynj4DPhojvlCp1utoYbaQw1Ef4fR4GnRbRmBclGcqaL33xS1Q3b7Jx0KGl1Qi6Q2C3EfSGaJZ2CIWcDAxFegeFbTmRmsIfUCkcFkiFkxw06sSiflCF3nKIx+simkzJD0VQKcTtms6lCQTCMiEgzum1Zp18KMjdlTXmAlYsriRrO/tMZCf49IO3mMzP0eq0uHXruvSs2xSFl648T0Ufc/P6B7QbbdwOk0tXXqZe3kcXitzmI4y+yF06iYcTkiQh3FJer49eW2yzRgR8DgKmTjBxjOXtNfzpk1S2lpjNhigeVlBMk5FhYnVaUF02KpU6AbcHu2XIUHEzUkyM0ZhqrS6pFKGgl0wsRr1Rk+EDw7RK/47d6sJUrWiCWTAay/eh3z1GuXL2BXOvsIXHY0UXHmujzeyRU2zvrKGYFprNgQSy+AT+SMzsNgcuX5yg15T7RvEmm8tkWN3cxxUKycTC/EyOQrMrKW7JTFaCXhKJMA6XU+4MhZF/fX8Xn9XFXrVM2Osm6fWzurmF3unImIgQrEzh7bN5RFyGyu4GE/lj8kM42N+RSQafWJKIN6dlQG5mgc1HizjcDhk5D7gcUsqtif1IIES72pDbdXF4aLbqjDoiNGMjdewoW8ur2K0abocVUxFGqC4ejwXTHJFOTtAf9Bl29qRtrlgXkoeCprdwWNwoZp/85BT9Tkfa/jSRlR6KJJ0Lc2iVgINez0bg2Cy2vV2US2dfMiulTUJBN2Obje29A2KRNPVGWXqxHQ4fbreJZdSXoILe4KnA5XU45ARpG/bxhjMUqwVJeMgkYljtVklxiGYmiKezqOMRgYAPUz5Lh2htjVK9hNPjQdfqpEKT7Oyu4bM6CfmdPFjZkAtYE+HQissPXm+XZThJRNJ14foS1CG3SrknxCYxCY7QBmO8Qb8IYWP2dVyOMWNHiGg8zmHxQKI5hsOnV+FUwsbhoS5VSGPQwua043KK4GuErphuex25VI+GktLeXDxc58yZk6ysFdCaPWlvE3e03aOQz5wkFPLxZOkTBhafvMgGZp9CYV+GrYQK6UtOYzaKKOlY3FSHDmZzPoo9nYamkgrZ2C00cVlFpMSCxWqSDHlkolhXxMBjMNI04mEHysBKNJ+lXCpSaQqPeApfNEGjckAgGiUSi0sx3mYT0fI+zbZQAkWSoUssGqFaqWBTnfKWlOEvVaFea0iEnTiduKwO6Z0QSQmBGEll87hUK2XDSnd3i2A+xfrq46f4JIuDoNcvyUT7xQrGaChhYA6LgyO5MLulGo2mQdANWm/MvhDkAiEsis5hTWcqn2RuZoZbNz8V6RFp6tdEqNWmMBFzU+wotNs6ZnfAhTPwcF2Rlo5wJI3P5WR3fx/THiJ7/AL029Q27+EN2uh1DewOHwM0lGgobj535jR3Hq/hNRvEcrOoWoOOrrFfM6Q1QRjyXXYrDrdVIpM6QoAaqQQFuUwfkMnGKVerdJt9CW1xCJ+GRQRDffI8bhcEG3GZmCbDsSmz+52ujsOhEgtF2N3dJRFPSraKcA2I8JLdYsVqjiXOSIDDdOG2Va1889f+MffvPOH1b3+N//1f/WsSEQXnoMHqgYZdVSWloi7CSxIuZsUtkjmqgtti48KXvskHb/4Ee7dIQVex28RVbcOtIHepdrewakdpVCuEfQ6JgWr0RZRlyOmJAE/2e3IeELJxNGqh2xa0G5EWseEJxuXxbywIpGMTi8dHRCmhjTySN2Mda8wcm0Q5l3zGtIXGHHbb2HSdz704zXpxTH3/gP1WV5pzhAAkLM0uYTsWqDmtzwBVOkOd5phUdMjydpu4T5DSDMaeJGOxzPB7SATd9FQnmqbLc6wuhppeF5fDS6NbZawZ+AN+JidmeSDGePGL24Q720TrtiUSSWQrTZHGYEQ0nKfWbRNPZSnsLUv6RdqvkDnyHFvbB8Jcx7DXoduuyHfFTDJMTeCX2gOCwSyD2j7eQIhy74ChIZS/EPFMnMLOqoyf2F0B3FY7DmWMTbFw9NQ8i0tPqIoQgWmlM9DIpJPslWs4LDq6MHgrcOTEaRK5OW6/+3M0Q8dl9xESlp2gk9l8joUz00QjUZRzC2fMbr9Gt+thpDYIe51Uugbu8fjv3f9gFWsuhw1DYCnE/xeqWkAIPT0ZotWsKqauS/PNjMegaIlgd3nkJy6QRwLoYjWhrWtSVxc8Er/Hx8nZBG9/8lDeEfZ+D1W1EMvMsL/9WK7OhC9EnH0dDrvgxhCI+LDZLJT3GowEBbPbQ1GcRHwCqRSkNdDwO0Sesym5sXpHnLGtqA4n43GXozHBsXVRqO7Ls73F7qEnkLrCvufxEEvFKde6jDo1GVPXFAsewTtsNugONBwOMfVaCAb9dNsDrOJtrtoI52flRShXhwONs2fmGA86rK8V8LhMTh9LcPLZZ/ni176NcurEvFmudOgPFC5dPMnte/cY9Z56nf2BAJVKBYcjILcaQ/HiHOvMzWXZLYtzrSHdogF/kGqjJh8R/mAYq9VGIOAF8+lta5oDWq2WjN2JJIUyFKQeU5ou/U6TzNRJHj+8Q6drSIubx9rHZnXBsCffIUPszKfD7JY1Wh2NQGBEpS7gXw4JLnMJ14CpkIoESWYSbB8eUNjbIx2OMhR/uIFGu6thVzx4g2LJYNBSHaTVKrhCzM4v8MmHn8oIimFacHvdWC0jSZkTFg4RmYm4XezrXSaiWfbbJQKqm55lxCvnZnjjo1WGqpVI0I06aEq7s8tmlwDgbC5GLBjm/MVjfP2XfxUlGU2bQnMYdevMH1ugs7tMR0Tfmj3GikWa8J2q0FDanDySodIbUyz3sAkor6LTGNglislps+B2ByWQRmQ6xYAhSBLig+ppPXrdrsQ8Hz8yz+ZOQWY+RebG4Qvz2nd/k3/3B/8SVR2iDE1JXp5KxyUio1zuYI4sUvwK20TWvsfCZILlzTaz5y9y7703Maxjjs+dIJeN8skHn8iR6fL1JwAAIABJREFUf2AaMvVmdfmkFCvcUAGHV26kFKeG3QzR6JZwjnXMkRWLw864r+ANhCVfMeJ3ytyS0+ln1NmViqlms9Op9ZmenmZ1awePEN8MG4pXJRGNUTTGqN2yfAR6xNcZCTatg2g+zkuXF/A7bCjPnJgyS9U2pjFGV6z82ksL/PCTfQb2sdRQxPguLAdeq7AAG/RGIigbIeSxUC3XcIdjWIQ2YSr8+ne+xx//8b/F5XYxlc+TzxxheXOFanmPYX/EzNHjaN0qg64IcHU4NT3J8nYBvdnGGwiwd1CQdB6/EIWCfg72t3CMBOrWygvf/C6bix9KW5zT7FEpDmipdhlDrzXq8uqMpxOUhHSczBKLJlm5d0cCxXq9EUePTLG2/YiBNiYS9HLk3HkGu+ssbZVJee08KZaI+UMkI266WHjx86/jcPl4/42fo5U36HVbkgrdV+04vA6MypBkVKwbBSDN+tSLLpbgwSTpTFAGDdp1g/njR/jWL36Td69fx68VUKYnJkzVOiaXn+KgWCIaiDJslGWK4PFGgbE65MjMDD67nZUnj/GFYnJ6qjc1qepFk2HqDfHic0lw107xQGZzkokk4XBWwnWNbkOm2SzipBEOc+XKKywuPWJt5T6qOXqa93E4pF+vbwoim1OC2Ef9EbVGQ+ohgkgkYtWCf2hRLIwUhYlcnEqxy8mjSR4sb8vTk008Cv1B6UXc3t8jN5mjWzfwWgYUhUSKi1avw+ULR1lb2pQUulK9idNqJxEO4fZacIQjVOsWRkMLtcqG/NntYwHeEdt3i4S0+0MBZpIqj/db9PURXq8LxqpcxrhcIkwVRe8Z0sI9dGVxiztJa6BMT02ZwmLwD3/3f+QP//UfcOFMisN7txjYbRQ0VY6ygvEa8LiJxkIoipVqpSZZgD6Hg1QswOL2IQllQHH4dHksgL0iLNrsK3KvKe4AvzdA2DKgPXaSW7hIYW+ToVahWSyRjEakS6lWLVMRzq2hLo9xwutis5nycSAsCc8en2Zjr0q3YRBOxzgyk+CDd65z7kwczcxRLBYYDXT6Y5ekcopckbDKCebVkekMmmmnWj5kONQ4fvoZDrZ2sXtstCp1RmMLQ2VMIBhlLKIjDg9DrYPeqTIcKdgtKobRYaB4CXqsxCN2DhotQi4/DqNFIDKkbQbY2TWkHzIQ9DI0nyKtVWtAkuW6AxtKJp0z3Xboqx7p0UbrSHqlqgypG2MpcwpKfjKZpFQo4fMGMFRVeq7PzcVZ2q0wFEDHap2Oy4VqdxANiCREn43KGNMiTjAmFqsX26iN6fQxsHlwKw7OP3uRtUcfM5k7is/v4r/95Z9Jn4k2UGW8WqiMXo+NWu0Ql82FMhjT6YMnkWE4ELkZlW7lAF1RSIfinD9/jo2VRda396RlQ+BIxDLAY9PRBMLU4pI6i95rYgzGTOdTnJpL8clSAb3Rw+UZYbW7qHUUnKEYw1YNtJbcrQ5EZcFYIZLMUKyVicSSzMzNYbQalNbvkwoZtIeCXuqVZOlwMiFdClq7ji+UYNDXiURDKMdOnjH7tTrekPhEFBrlpgQ+tg6LmJaxhATEk3EGukZNZPKDQWlHCwXcMn+YyU3Ixe2TtQ0cdjfhgPOptazxlMwTC4cpl5sEXE4arQpjZ4yx3pKechFJHPW2uXwkz83NJsN2TQ5WDr9LesntAQHv9bK7sy039vVmBb/DybnPfInrb7+D1dLD7Q0y6g4l9k7YL0SCQ1DXxorI/YsEs4Zv0MWZnuSwWMAcaDQ7mhzNI+4k8akFvKEgh/c/QB906YjQwEhcKDYsIxsW04LVKQYwg3Z/zJc++zxvvPM2mfwRcvNnWL17i7FFl7Ebv8BNKT46zRqqoIEKu4ZIW+tdXDbBLPCiXHvpM2ZlZ0/mcVpdC26xnXHaaZVroOi4Q2FiiRjlzU00vSetbxZlQC4TZ6/ckwSd+ZMnWV9alBl9AXoXDoCRIU4JTvIzRwkns+ysrUpol7jC1ZFOtzvEFJCC/ojPfeYEtx4XKR3syqt6YnqeUeNQdkFYVKd8LOmjjnw5hi0m9mCCYqFDImzSHtlwDHU6phP7oC2NR25xNyh2Fp69RMdo8OjuIqcvP8/m6j26AkktkglBHwG3mBMCjB1OjP1lXC4FfWSj3ha/50Bq6kJsEyu4sdFhNB4xP5Fhb68o/15a3yNNo8FcDK/NSk0gqjQhQfRRrCJKqeDyRNEFk0BUEzhdKM9fetbUWz12aiVCnjALx07Sqtck9aYv8plOF05vgH5LMLuF+qXQ11vylhXkebGFF7eLy+rEEFQJm2QyS5xdKJlh5shptK7B7s4TCf+aP3eJ+tYq27sFuS4TZ0UxuTl9XpYfPcTnDhCMZmiWt+VWX+TffdaRpG7qVp/cm4bdI9pVhWzKz06xjKGozEzm8VsdPFpflTlQly9KZuaoJBAtPV5jZmoaiznkYHtDLkUmQ0GOnVng7bc+lgnnsB+aAm7pdHHQEJxy8+mLUMTeha5tCLKQQL46CMSzHOzvS8RTMujEF/YRDiZZWV+j3tVQBA5Q9GPYFDm9dnsGyZl5SltPUE6ffMaMoLFXa+KLBfj2L/w6Dx/eZ+nOTRpdYb9VUexOuX0WZRhCjA8HnZTrTXRtjMXqlAF/j0OoFgr6GHyqjuLwEk7PoJoqzcKuwBtIvF5mYobqwQ5Guy9rVhYuX2H51k0sDh/dRpGAPyTDV0LwEptus9/HPjZwBVz0BP+vo+O0iRySIsUtm91NTe/Jc3PY66JaOZQOA5EDkj53cfWOVFwi7OW1o7UaVGo1EvYRntwsmzu7OG02/JYBjWYXi1VsjcBrEXB5iwQziNoZiYFSBU/Bw1QmjsMXk5H4ly4JPf1jIqlZ3n7zEQ0heA11jE6fkeQ0aoQCEXwRL082d1EWjiyYSquJKfhSyoDPXX2JO4/3aNX3GIxH+NwutkpNkrk5LKZB+7CAy2WXA05/5CTidckPZSQQmaaT+dPnWfroLTw+B6o9KG8nqzImKFiArRaugcZ0xsmTtYrYAKNG89QPCwxGPeFmEEtRmTESXQyFaksSMoWukYoLJ5NByxhwdi7Ig822fK6KoFJ74CAS8zGsbuJWTXoDixTbhEFfGDtFfl4ZiSiNIa0ac7kcXRxsbe5Iwqi4y8SCYyRynlaRU3JIpPfRI3O0Wz1oHEoPTLmrMlAtRAYHDBxhifV74fwZ9pc/xBfNc3vpkPkTp8EfYv3hA1qHBbAOBKqevlGhMxAIpnzWHOg60XiCRrnCb/7GL/OjH/+UZqWDLvz8Voeo1yHuDVFvdmSsWZAKzkyalDUb9W4fw3TKW9eu2InEI+xt70gajwAjiqsqEk/Kf7NT2CVo6RL2higJt1WvRccmlsIDmY8J+qzsVwZYnC7cbjulcpF4MCzVOEGDEG7Xnt5FEPn26qo8tQjHgJg8nxzWGAjhy2OXhv5Rt4rDFSAYikn2Sql6SE8XEGGTfCRBSReeGYNOsYJDUCo6ApuqEvQ5cfui8uKIhp5Cx2i2sYf9cuXXNZ1Me1wcVuroLgvPzEyyt30g76TGYEw+Nydxe6NBg3K5itZq8czJKW4urSCSJsrsRN60KA75tj99NMf95U2JBRXktZYoHDJFSkVhKp+SG+jNnT1Gqo2EbUhTtWEfD2SMQ1iVR6aNgMuPyKu0OiXsDjdh0c/gFPzCPs2OuKrFfy555TrtBsFEluzUHNffeRdT1TCGCjbFTsgvcB5i1SUwdCKvrjDQGpT29rEqTjkAhd0m2WPPsre7SqXTx2205F0TTKYkMX9rZw+LsDzY/fQHQ6rtKtNBu8S2orj50lde5PbyHlp9i8NaRxp2wgE3zmgSrdamVT94CrqxPqU6C4COx+PFp9ppD3XauvjaKi1jLOcFx9guueNuUe4zAFckQr1VwWciLzDR4qJcOXna7A0M8vks+1vblKo9aXXQzAHmcEjAK7DMFrYO63LE7g9Fg9OYoyk/B7U2IbefcSyJrV+nethjoAqeoZtqsyHXTyJw5BS1AHYLiipIPVbUoSJ1BSFxxrwjVFuE3cN1ZnJpwSvjxPEMTyoKkXSGx3c+kiEvgZ3WOw1mImlJui8dltk3ykRC01TaDc6cOU9x5R7acCjh7gK2K/TssabjD7rp9g1J0LeIYgvTwCb4hJkpRmM7o3aJmt6WJxIBmve6Q9J4qfe7jEzxLIfp6TTbe7uYQtJ1Cr56D6dlJHOmAsCmCVcTutyfqg6/RA6eeu4a/b6Gpo94sPgxLjExLxybN102D3NHZ3jr5x9Je0Q2bKXY7tLWRDTOTcTrweUWvg5Fpm3bmjDLiDe5nbDbQkXUtqgqiYAN3ZXny7/4S7gsNh4v3Wf57i2pb09k05y99jztVpmgTWGvrvDp7RWMjTuce+kab/7tzzGdKsbQhn8MPVnVMpaGoPPPv8LkRJphcwd94GL1/h0alSamXVAxPbgxsYciGPVDhlaTWDpJt1iTFofBWERYrLQEqKAnXujiDz6mg8nzR+b54PG+GI9kV9BY/MHCERThKdGHkiWu6xphnxPRl9DraowcJi41hmG0sKo2GRQbmn1i0SBHphNsFrrUm1183iDzR06wsb1GfGKC1ScrmH0N5fypU6bwZ4hKlV29LQvbfvXXvse//w9/hNvmYyjh6OKHFmqglbFI5rpExKJHZzyUuoYLO7//b/6A//mf/yumcl6ev/pNCvsr7FeL6LWKLI47cWaBb33vS7Jc6C//4i95/70trK1FDptWvvVihj/805sMnD1cqodBvy2DSudOTBEYq5R1H6+8+gU+/4WX+PEPf8w7jw6xHD6Qusl+vUNvf5Ox6UKzOMAQ4DODQG5KWosre6tYxsJs6gS7n+2DHfp9PwvXrrD50Zs4VC/5rJvawMmVZy/SLD0kN53jxz++JV+0XYGGGo2wDwY4TDfWlIUZ8cixOFhcXCKbTjDQx9TrTRleiM/kCDtdbG8e8Oy5c/iCQd57/wM+87kv0xd3+WRywsQxxGdxS4lVVLeIkH6pNyTq8bBXb0voYzoexu33URS0Catw9vdp6wKc6MWXz/Lg4YoEkk1kfQx0L7mJI5iNTQY+O/Vql6+8+hW+9s0vyWTZD//6B7z1zkeUNw7oqk6uPneSH7z5I9wWP+eOT6F26+jNQzbbAXTNICFii6EYDpuTWqdBSReE6n3ZxaPbdQK2MBa3k+/+o/8B/fCQH/zsZ1j7VQmrqRVKUkyzW4Rxc0BTb5MLhijoToYCLJaZpri9KoujAoEk06kUOxtrqL4A6nBAu1vDLUJhI00CZmr9Id/5zAI/v7PHSdnokuLm3dsE4zGpwbsE9tvvkC/sRl3HLY6ZnT4Wl44zFEX5+rf/oXnn47c5kolx6dkL3DswuP/p+4ghzDYWBUQ+eoYmvdxdEcMWz2HTStCjMHHkGJsrKww7NYp9g5gg6/QGHD8xiSc+w97jB4gTkHhxTcxkmJrIEg1F5Cbn/uIylYYhh5/5C8/R3t3g0f1Vhk6LDLmKyU5s5l02v/TsGWJpITL0ovHKaqXeFKO2yZc+c47HWzsEgxOoFgeJ/DTbjx+xt3off0Ak41T6AhxvdBn2hK6ikJhJsr15SCKUZG9nXZKbPV4ndrubXkv0TRiMTQVd1CioI+IRH153gHgszscPl3EJ63IyRa+0RTAZQFdiNAsHEjklpmebZYzbaZdh34UzZ1laPpRyh9lsoSzMTJiV1oBnT83TNMa8/PI3+OGP/ivzx09R2niMvV9nsyrYJ3ZGvTZWnwenJ8yx+RnW1nZxB9yUlldpWQcsROIsH5SITWQJZ2epbi7Ra9Xlre92+XGrqpRxB92BFKiC0SB3H9zD7/XRt4extA5RgkkG7UMZwLI6/SSyORzmgFqlQrHckapiIiyWBSrVVh1X1EfQYuOVV7/D+2+9izZoSD2m1u3htA6JpGclXqNc2MHrNIkn8tQae9SLdUkgFctuoYgK7USQLUbYZMDKYXFSa/Tki1MVRmxV4dhciu2tBq3OgHjYjdKvUddN6Z0UCG5R7bj+aJN0Nk16OsfW9jr7+4cMRw6cHh+a+L1+59d+yVx89JjNQlnG9eKhHE5ZwVInmQixuPhYxgXdorZFwnIV2e5x+epnWF/bxBOKcuPDNyW8wOoTyGcrvVaH4XAkrxphX65USwRiSSn+t4sFbFYRIYdAKkWrUcYYimYpN2lvj52WRwa4BHR9JMjEvQ6BSBxTscn8jcUutk8aHjHXigTGaIRpg6lEgifrewQ9Kh1dOM9cHD15kZ7qZXvjIc3CHh6rKp24+rgteeaCxK/oHSziahzamJidYf7UAvtba+zuiMWIKAPpo5hiie6Wd9RUMsGTJ49JxyOSsmyzeRjbXEQSORLJMNX1ZQzTxXPPv8T+3g637t/DLeaCkYYmvtaZC1fM8xNJ3vv0OuORm8mFk5wVb+9338LURXPrgKZAK7mdgj+Afajji0R4/pWv8+jhIw6qezTW1ghP5qnWi1z5zOvc+PB9ejVBiLPQHYvHxoBUfpqRMaJ4WJRsknG/zzOXnuG9d95Ew0k+I0pCy7IdKxpLUa02cQjbgwOCuWP0DAvN6g661mI8MmkbQ7LhAC6/h8Jhg7BP4cnOIS5VJKJddIcGTneARFKYmhqMOhohEdId6mh6RYZWA96IjPMFElECrhCq38P555+Xduif/vAn9OsNGaqyWi1YvG5ajRajbgdNE8rfgGzSz05pKBfvHn+Iekt0GlllWFaYhMJ+4aEUg6IqLxZxple+/o1fNDeX9qi0trDbvFisY8KBDLXSHqp1JAFjwgIsfdpGj4jXgTcUoNUTV2kHf3pe1iMa6lgiSwPhKMlUnk67RktYC9QhTo+oMujLZ2S9N5BNKSIJMaiX6GuiMlHEM0dEXDFazZq0NWuWuMzhtw/3GSguecQTXBVRSTAQuUt/mKCpUz4sy0eVNeqWjw5lMGKkuuT+VMwAou9tZm6WkdXDsckplvb32X98Q3JbHE4vEVHM2qrx2ZdfYq9UJZiaxFQMPn7nfcadHk51LHNM7UEL4XLx++xUW03yQaf0Sh4K7nqjis8VBpcdZzAqPYXtcpHx6Gm9mSakBWUouVvK5z/3TVNE37q9Ip12m1gqzUuf/RL33/1bqs2mJD/kxAnFOWZ7vw4OF5MpP3qvJp1IopchnwgxFKP3UMU9FkYeTXatibd1afOebCZ8tNWVLqh+t4fD45NLZbXfJ3/6IusPrxPIRwmoIRrlEk5fgN7QTiYdkGfs/f0SvWFfAnlFuvnKlcssre+y/+SJjAcenZuSDi3FrrL46UfS+qCOVenZHg7aHF04gmr3kg7GebS1Qf1wlUa9zcgVIxsN060UJIhYxNiD3gHJeJCOYWNjqyElaYv16dGwb4xIpaKyfjfsGKPpXsYeK0a7htMe48Qzx4nnJlhd3aa8u02zXiIjrMol8fOPyU1lUI7PnjCbWh+LZ0xflGAEE7x09WUe3ftI9uykk1EmM1nKhQ32qjoD1UFEaeFWO/iSczzYrjE5mSEczfD4yTbxSJ69rXtEolnmZifZ3ryPOhixW2rL/ah7DCPZmzYmJAAI8wsUV+/h9orVVYD8sRnG7SL3nxTl9/b7gjzZ3JEJDcMwiId8XLv6AmvbBSYyCd745C6Xrz7H6s3rZKenWbz9qdRRevoIi82Ly6nQ0DRiiQyxaJ61B7dJxBwclnVGY2FtEHqVlUZXJM7aTCXGUgPCEWfsDFOstVAFurqjUeoIliPSEzmRiLC7WWIU8GEfCQuJhTMXz5LMZli8/5BepYjeqBKOhzmotsjNzZNPJVBm01mzPTRJT2QlvtoqntehKOWCwJmaZLNRmV15uLKDw+WVSp5/KKRWlVQ6yvpeBcWiEI8J6FeDQDBMpVGUQEkB7lXsY7maCmVzEmQeC8aI2Xa4ud6TTlmRlhPu2a4uSkkTnLpwkV5hnWrbkDaJZqMlSXGBUES2ojgcT4+j5bpGKp2nWG+SzSd4469/TEBAvrxWyoUiit1FLp/H0AWmTzSZD/DG0uh7a1I1LNUMYvE4ar/KWJRG9wSE3Uok4KTVbov6I+K5NBeff5Hd7W0e33tAS28w1kTqwkk0HiKUm2J7c5tmqYzX48MtgmNDQ8q6gqChazoWl0vqT5+7dIK15TWUieyUKfp1vD5hVBe9axa6gnognFACc+r2EQn4pI+k19E489xlOTYbfYVkboKl27dp6zUSATeV7lDqC06XU1LzI/EMrpCH/a0dctNHZB+CMG567BXWd2qcvXCC2fln+av/70fYh00ZhD1/+RrZXJ5HT1Y52FyX7bACriDAL9FYnG6rxsBiRzFFFBtMwbaKRFhdXMLvELtTG2XDwDYa4fe4RH5MdhaLjE7f7cUmzuP9Hv6wn2TuBLtLd/HFgtIW1yqV8Aq+lkOYNBX8wTinL31GVgD3avvUi2UqlSbxqBtPdALLuMbuVlFS9DvdobTsSQiEz487EMbr8+IPxnj40ftYRkIM64gFxBXzoCTgBj1iTmj0hflRsL49Mg8v9nsOKQaJUFmf2ZPnJO3s+OnzkiLcL66zvP0IARmyh4PYNJ3JmbzkrWxs7OMP+SVDJJbNy+SEz59gd38LrVUlEk0wmZ2n57KzfeMGpsUkPzfBa699DdWu8oO//hv570wpeI2wu4VrQHTGj9CUEcXVJQZ9BWsoi4c6lZIALdhkBn8+FZAG0pomGC512tUqIX9CMrt8QR+RqXlqu6u4Bk1GnrTc6kxOxKnt7GEPxbA6bZS316VbKzAxwUhUlu0L1NOQr37nN7i+/oTxww9p6RbSSS/7tT6RaJJQKs3mxiZC8QpGEqSzeVY+fY+B6eDiqy+hzE09Yw4VYQQSDSYNLIoIx/o4fv4Czd11yfUWcTuraMmuiP5Im6x/eebZqxQ3RWrNz/3HK5Ikb6oWybWqNsVRChmoEkONOJIFoyE0ReXU2XNEEgk2716n19akz7BmDDl67gqljS36RpMrJ0LgTPNwbYdes0UsESIjfumR4PXqbC9tUKvs0NXa1Ls25heO41db3Fzckqsxh6i+8do4evIUlU6PzeVF7IMh3aEoR7Uhiu1PXHoZf2WTe0tLqO4ok1MpMukUN9+/zkgAcqw2TKOLJjjoHh+qUyUaTkB1g6vf/h0+/uhNUkqLvUIHf8BOpTXizIXzZLJZ3n3j72QtmsMVIpHyUBvYOHfuLF2ji/Kbv/rfme9+8HcoAxObV2WvWCcXDRPxhTg8KGAKndfqksebjqBi9fqogz4hv6DOt5nITaPXm2wKrViEYgVP1uKU7KwT58/KK2lQfsL6vU/ojLzEk1McnU7L7X5J0yg82ZaYI1tAeMp17KId0DvGGkwxEpl2m5dz509x6bmzxCNBFh8u8cFbH7LzZJOuYUUXrVGmSSCeol+vydlBRhVdLhlBFLFUu8NB2xCe857kmTitFl79ytf55K0PSE6KU0SNTrfMzOwJbG4vK3dvozodYuaUBXYXPvcKd24/JD83ycHju/gDCXY2Vjjz3DUi8TifvPETrDaBm/IScphYHU4svhTxeJJWZZ+hiCNbhAiooBybnjSFB8Th8JKZn2N9aRlDMem1dPp9AQYYSPqkRH+aVnl+FQQzVDuZiB93XCxPnzBz5gLGYY1/8Lu/xf/xL/8n/I4w5UoF02HDbRnJWhVfMsPpSR+f+cKrXHrps/zp//2fuf7RRzQabVKRAHslDdVo0bc6mDp6FK/TSbde5YUXr/L51z5HIOThp3/7Ie+8fZ3drW2sepvddo9Xv/stPvnxj6iL05ZiJ5cJ0Ws2KB9sow9UHKaFF771NR5+fJtaaVuwfVFCHrYPRGIiSNLUaHR1DL2FRaTzbB7UUBh7r4Qp1nh2P+cvf5FLL1/jzb/8d6wvHjAw9hg7vZw5fRanAJQx5uh5sV78kAf31/DGczx36TSxlJ/D3W1KPQ9Bvwvl8xefMRe3SqQSEQZD2DsoMZn1MDIdHDZEMWiUpHCFitiFQC/501jqBzj8VvJHT1DeL/Gbv/Gb/M4/+XVcgQCWoZfZrIe93TLeeJj4xLwcHgRsqz/s4dF7fPlrXyCZm+G9dz9g+eYiNdVF3xzyz37nd/lf/sW/kCN9yOfAGw5y/LlrnJiNEXBZGQ/H0rP+8Xt3pdF0bfEWqk/Y2tI47SOmphcIej28+9Zf0Sof4Lc5ufbFV2VL+Fs//ZBAKkin3sIc2ai2KwRdCn01xMSp0xwsXScc8VEvNzDaAuHk4bmXX6LZarJ09xbpZAyDIa262NHaOXLuNKt37+LxheQqcv7IUcLBCGOHg0cPVmQe6NoLV/jiy6cpNzv8pz/6c9nGosxOzpnPPrPArUcHmI02DbPNlYtXWb6/hMsn0D7CDWuh1+lw5OLzVJttlhdvSYxzLJrh1de/xo///E9QrTrFYpWh4I9nXExlZ2i1BXvXT3nzESG3k25TI57LSEiBQP2LF8vq2hbnX/kWt+98iK3TYjKXQdu5wzjzPOlMiNLepiy8tgnSkBhOxrC420Lv+7FSZGoiRySa4tadG1QLayTzWWrFA1qCneV1YbZajPUBHpfQYEwuffHz3Pn0LpVCCUUdsHDuOA/vPcBrsWE4PUzl0gzaTbmSEw4BQfnURVWlR5COBFje5PTRBIUDjeMLWW7f3ZaFqE6Xn4npvMR6l8oFmtvrEkT5jX/wPUnU+JP/9F/pCHzHy+dPmst7dZnNrFR7HD+aZb9yyFde/SpLDx7TE5UCTjeNWp1Gx8A0RNTawsSRkxw5dowbt66zs7nPdy+7+X/frpCPx0gdv4jS2mPhWApn4gQrS7eoLC/T09qce+0brD1YpVTaZ3YyyerKLhPTWaqtLoFgVj4K9MoGLTzSExJKRrGbKqcvXmR3fZewx0rJsHBYr5PK5sR2lHsPVrArA0mZs/XbRD2KLLVOJ7M4A25uL61TKB7gsblJTczQbBSol4b4/CYVAQn0AAAgAElEQVTHr71G52ANw7TTq5ekG1gIWoKvWNjaxSZqY1wq9oFGfOYswcCA6m6L+JF5whad1b1tWbne2u/g9IoMFNKhpSgDbKJGzRWXHZunL0zxdz+8gTKRyZtijS/ULMMMEfAN5O166ugZnv/yN/iLH/8ttYMnhB1D/L4Qhe0iC2fOyDOyxRXkt37vn/Knf/x/0q1u0h85EOu6c89cxdi7yVe+fhrDe5GtlVWi4yKHxX0+WTewByZwWXq4YhkWHy7jV4dkj5zlxNwUxXYVa6/NysYGRcFt8fux9ssyCFvdL2K0C3SEZpOb5Mm9xxxZOI7L7RfARHqtGvrBLo3yHi6BHRGWNo/YaTvotAd0eh1sfYWJs2dk9FDUVPqmZiksP0Q095y/8BwnnjnJn/zpf5Ex8rlkkJnjZ6h322w8fEwyM4u1V+DopUt873vf5pPbN6RE0O17MTodNleXpTtAcL4E33Budpp2U2dmekJa7hj5UGbzU6YvGJLkG1GCIbYqjmiMkTYkkzslJ05hnDf1Gl1tJPvVnF6LdJh6I0l++5/8Y/63P/wD2UPsVdu0+y583jC2UYuTR9M4o8dIBgace2aWtdVt3vj4AGdkmspwzPNnjvHB3/0E7+SsTEBkQ268oSzZVJT8kRO8+fP32TvYw2IxcI0Nus2mFPkvvPxVPnj754w6ghveIBRI0ehostKs0a5jszmZyEzJTsuDjSUiPifRbJqV1UPpiDW9EdITE1Q2HksiXXo2x+qDh7h9XrLpvCzZFvUHPrcqldF4Ns/uymMm5+doVUs8e+ECv/yrX5Mmobc/WGL54SaRZIz97XWMvqAPOdlcfSIXLWcuvsQrL17hvfc+xuryopw+fs4UFPjs8VPsPbyFLryDNjceu4kvkqB6uE9LFIiKSJ/TLV9mw66BNjKYm5umW+vJl9mod8jkMy/KcOhIq1ErV4l4/agWlZm5JLm4g+FgzKPNNu2ul+5AYaALGFmPay++zOP7t/COmxwadiZnz+Dx+SntPsEeFFDfMFG/leV7i2werPP5177OjY/u0ChvQKvPpVeucP3Dm/gDHunuikWzZGMhtPo2WqdFodKjbSiS1GxnRCyXF1wZ7H4nO2vrJGbOUdq5JzvXIqE4+ZlJ2eNZKjVkCMGmjPG5ArzwC6+zeuNjZiczfPa1zzIcaGxuVei1ekQTCUy7nRs371KrNjjc2ZWgneOnLzBUFRp6TzJ3lV//rf/efOfnbxHKTzMsrHBYa8u2Jat9hD4YEHS5JLZOWCNE1jKbiskq3FqrhzsQwqFpOMKiPCjM5LlrvPfT7xPzOzBHA/wuJ6Y6lhmguZl5+eIpVppomsrh1jrl1hhHLEo+HaPR6NJeWyM6GWHu2DPSTLkjtkeZtKx3F6hTs6uzs/kETyzInY/uwKhJu+/k/OVLHKyvoxlNbAocWzjHlbMZfJY96vUBP3/7vvQLNjWTZrPBkZkUG4trTF04y/6TTRLZI/QVjcOtVdlnEUsmyU1N0ShXpZknFAuRTqZ5+Suv88lPf04+F2XmzHH6nQanTj4j09jBgIft3Qo3byyytn1Aq16i12px5vwFPLEQ7771sVxqKK9+43vm8t2bEuJrs4jTA9hETzAGVq+bRCRHszdiPGjLeEdHCBgWlZRwGAlHVK1GvVfnxPFnWXnwgKHFJBPP4nbqqP02fdOJI5jhwsWr7O/u0Rfb75CblVufSC1dmubbZSZmJlhf2iKUDOP1hum0e3jSGebn4sxOTUr+yKins3X/Nk8qBt3DA+nb6ylWuvUmiekZjFaHcMCL2W1xZi7E1cuzFMsGH3/6kEdrBzJF7XbYaB0eoo/gyhdf5eGdeyj9Kum5o6yt7qK3NNlPn0wmGGgdqlUhvT7tM/rCd36NZqNGYb/AC8+fJZ7ysTB/UmrvBwdFNnZLNFtDisU6aw9usP5kjcjELBNTOTZXV9lfX0XJp9KmKzmP32wxe+xZHi4/YagVZaxPBPj9kSTh9CTKoE199wm1pi75IcdOnpa6d6Vco1Y74ML5K3Lb3THEAhayUa/kVnXHNpnnjIRj0gLdaLdwh4JMBlReef1b/M1f/hizeUBiYoLmQIAWxzQKWzg9fkLpKeamgnzucy+QyU7wxlvvsvVkkwdLZSlADbUSimKQmjnD4zvXSWSPcvbsWSp7y1QLK+RzcdpdXa729gslSpUq4aCPSrkhWShiUdLq68RDTpnF71oF8/tpLU0q8ZTbVSsdyn44gfg+cvo5zl+9wKfvfMDrv/g6ly/P4rYF2N0rs7q9w4NHu3KFJ+Iy+1vrFPaLLJw9w8rSMtNzkyx++DbK3OS0aboS5IMW/KEUG3sltHZZ5mSa5R0sdieOcJKhYUi80GDswDD6BEIuJqcX2Fx9QKvfY0pUBoi4c60pmSqiG1Qsm017UELcPR479DSS2ZzEL0UDHp574SX+7D/+X5I+n0hP44nlCYdFbYAAnwsfuoWQz8oXX32B+dkpfvb2J6xuVVi+tUJPtGkPinK36Ylk6dZKTEX99Mwgdr+VgV6nuH/A0LTSqpRoNOoko34GvRZN3Ua9Z8FrHZM8Oosy0GRxtOp2UO2NMYq7BJwOeqqdXrPN/PwUfU0nkTvC869c4r0f/JRTL1/g9IkpNM2g2xqwtttkrIo0nJV6o01hvyZTyr3KHvXKIeGAX/bOKV/57BVzaElysPEAxe6RipxFMahVavS0DmBHGYsCvKe5dW8ijdHR6JsCBBZnf3+LiVSERNDBrUclwrE01dIeuWyO/LGLrNxbYvZYXoR0GHW7nD62wO52gYfrWzi8dvypFFv3PsHl9ZPNTDF/6iTFcoPZ6ZTcNgk/TDIjzKBjttdX2C7qnJ7OoZoWfvQ3f4VhdKnUBB9LJ5sJ4ozm2VtfIxrwUi0dyuLVnuhBTuZx2/oyNnPuC6+xtPiYvN8l/YaZsIfs/Aluv38DUcrSEo+moJ+rn32B/Y0VetqIZrNJMiYWxWlUyqiuIA63nWcvX+TTD+8TziQ52NmlN7ajjcbMZ5PojTZv/OwNap0q6qgnPeTKlfPnzNDseR6/91M+9+WvcOfOhwwsLi6cv8TK3U8ZDBTMUZ1CQ+gULiJuO1/96ivcufuA+4vrdI02z5yYQ1FtPN4/IOP3UpYsEzd9ewyj1yCfEz/kWKaVL1x+mZ1yneVP35G+u9TRM7QaFUy9gcfh4fxzz6MJOHomLxcAR6az9FULaztFGvUautaTkexGpcTNt96mO+iKoIacXJ3RABbBO9E6+N0+WpUyVmnT8zzNDtUFyW1MbGISZzxH8dFNmZI+eeYkIfuAOzdXqLZ6CN6M0NEnpmZENTW1vpPLr1ylUyjy5PEyk9Nh3DY/PZud515+le//lz8nl09iNfqSxDFWR7T0IUlni7ff+YSDalvSos9cu4aSzebMVDTJ3t4Os7MLtAsrlEw76XCSXnmHoVXUz6ry6CdIZSJYKgDnY1Vl9vxVPn7zZ7L6cSaXp3BwQFiEBjwRYh4HhXafbl/Brwyl7SEZjjNMzNAslplbmGb79nVaDj/PLKRZv7+MK5nhlRkvz3/1S1z/6FMO7JNcunAWgYhaXN1m8dYd1F6LTC7Ghx9/gt4o4YrM8J3Xvsx/+M//jxSqLL2KpPqH/FGZaN44bEj1UNBCRUWMVxEJMp2+N0a902BufpqT515k2Cpw450PaSpNyTKPxFIIn7aujXj9a69jjNo8uHOTg11RqteWTVqzZy7QLBVk/WOj2cNjMYk6RrQ0FV30awZsbKyv0y035Y6g3GqhnD1ywhS+b23U5vTcNHcflrA5RL2scM8OCMcTuL1RFKtKvVyi1mo95bJabTKLKTrOhEnHFxCdaE4Z5wj44ljVvkywNXui9MjLqNPi9NEkWzU7a9ubxCNRGgJr4Qozv3CB3Uc/Iz57Cm+9yJHpKLWeh5LFw8zcJBaXX05xzz17mg/feJeDwhrBU1dYv/4hA9VN0iMAOEF5jDw4LJNL5CUqe/3RPUYCeWb2ZRu3xePF1CycODuP1eWWw87AOWQmlpNdEiKgK8qbYtkMTvNAsrTW97rMz0/QH5qU1/f4p7/32/z193/EvYdLpGNxgtEkdrvC3Pwxtvc2GXc0fKEcnWaVldUHKA4P/liaXmWTZrWFcmxmwex3WtJ7cnIyxOONPeyBqGw08YX8mAJbFBLFno/wCGbsQAebj75bHN3aaNUSHpHOGhvY3CYt1cnZY2fZXH0Ijoh0ow7qO39fYm0ysiv0ejqO0ZDpuQXMUJ652Sme3L1LX/T0pJLMHVvgwaNlNNXBmWNnCFtUDmoFWnsb7OyUcSYmaWChs3yb/GSQoTvJ/uodHPEcC6fOcuPvvk8yHJEYvbaYLMdWuuUqZ7/wKjc+uY2lU5F8Q7EsHuoar1z18sbdEceOTrNVbLG2vk/Abcc5HvPctas82Nji8iuf59P3b5BPu7n76SIuQQzqDxl6Ahh9g1xuVvpWZnKTpBIZVh5+yu7GFs12h4FFFG84Ma1ulHwwbl67Os96bUirOaRQ3COdnKFd25GhqPJ+gUjIQ8Dho92oMDczy+mXPstPfvYTXv2F73L75i1W7i0z6h3w7MuvsXz9fUaqSSKd5/HiY+w2k+GwR3+scO3yabYOG3Q1VXYre3p9rn31NS6ev0Rl0KFQKLBz5wGPlh5w7MJZkgLRsbKMw2Fj9sw57t+4xxe+9jp/8f0fsvr4Fl4Nrr36Ch+8+S4vf+2r/ODP/oSow0kg6qdYrssXuBhAus02I4uFTCZBo9Mgn5ygG5ui9elPZLWvaRdHxDkpWg1EWanbKn3xu4Uqze6Qf/T7v8eNWzdZvH6TiOsp69wVinL0+HE0pw19t8DK1iZOa49cMi0PHoXtLYY9YWYyaQz7xKcu8M//2W+hfPGzr5mb66sMDeGz6OB2eyUG6dqCjb/4oCgrYcRW22n3MB6bjAUe2hvCPtS4dCLC4s4BlaJONDUhczL1g21OnD3F7NwFfvA3fya/qdPjJZ1ISdpEx2jR6Fio1QbYA6b8vr/y27/PsWyQf/u//hH+bIJkMsTizfsoeo/ZZ6+gdRsMmnW65T32ix0+/61vSiDOxq3rTF/6DD7q/Oyn75DyOjHGXYyeQSyVxxtKUtjfolzZwf73IEcBO1vbKWFaPCQcQ06cu8zH7/4Ml92P6QkSy89hNPep7m3InJLD76UjKMA4OHl8hru3HuL2Cjy2n+JhWfJ456eTbOlOmQONu134FIOmoWOqXo4mwhijDr/yK79Ep9xAef3bv2HeuP720yLpoQhJD0lHg0TDPrYLTYZ9naGELJp4xbFmZEhj+rGJCMtbZSKioqXR4tSzV1j++OfSIjDEjTOQxj7q0zA6TGZSjLQehQPRogNOr4d620I0EKY96nLl+ZfZWVzEHXJx5Rd+Cb075PbHb8k+y9zRo4ybNcqFEtsb69Lz6InP4Wi15Pnfn56ksbMsH1WpUEIun/fX17B5XIQTCSrViizuCPp82OkxeewKtWIVS/+A/7+lN4+x7Dzz855z7j3nLufua92qW/vS1Qubze4mm4tISqL20cjSjC17JuMY4/ESJ8EYQf4YA0ECJE5gGAhiwImdTBY4iYWxNJE8I81oqHU4lMS9uXSzl+ru6lpv3X3fl3PPCd6PJsA/CAKN6qq653zf+/5+zzOxhSVuslcb8eTVcxT2jwilshjhIAe3buK6BoFkXMK8dFptVeKSSszG5pI6Nb340qc5O9gjkUjSdr2KjJ+LxSgfHtIfz3j+C59lXDmhXCizGA8RzK2jffM3f8t95/0PVH5jJZxipOssLcTozRzODg5VxlpAkXIBEn6hmPSWMgkiVgRnMuHeo/tce+o6v3z7XRzvkKTHQjMEI2qTiC8QjkSZ9ptqAjey5wKFY2HlHMNKk4WlKK2JwX/+j36Pf/utb5PPpokEJTUSo3pwl1KxTGrnkjqandy/q9iBEndLR6Pq2Hd4esy87+CPpLFyMXL5BR58cJPucIaVyDKb95n3+/gNWX40yEeFHeBh8drnmZ++zeMHR1iBLG1ZOJhh/Mk4XtfF6TVZ3LmgauOzRl3BcSTKJ9T8Vr9LMhGlW60TDme4/uVf5/33fkW7UmF987xadpcKB1RPDxCvjBlfwmZKJptWjxftxnOfcpu1qiKebSxkufTC8zSadY7uPaDV7Sm6muM3FI1TJEELK1u40wFPXjjHpasv8P/+4f9OKJXk4f5jkjGD5YUNjotHYETJLK7SKR0z7LWU80HWNQlheLsSUm+SCHgIxHPETQ+lnkP+3BWmzTLjxjFBv4YVTqvNvT0ZozlzBprO8kpeddgjvijesEHprIIdjJOc1Ijklzn4+AP1/rAiESrFAkubW8QCUUonx0R8GuV6mV5vyuJimEF9yKdunOOde4/RvCFKlR6BgEcxbsVq6/FZvPLlr6i8+YM7t9HdHrl0llBUSEJeGs0R6bV1ZtiUHx8qfsB4PsN1p+iuTFCb6pTniUb5zOf/GouZINo//Ae/7z68f5uzk8dcPb/NhUtX6PT7vPnRA9XTbBZOlMBTcinSNHb1oPqiREI37Nv0R13VURQeLHaTpfwO9UZJITkWl9YVhaFeKeAVH7BmkIwauN6QokNkQrB3WmN5aYOBYxFdXOPR3Q/xzIY4vTa51S184TCn+w9VOXU6k26mQ2rrIs2jx/gjBjHHYOCLkPJN1fl/WC+xkAgqHeVJo8vCQoLFlR1OCmXK+/skUxb9gUDMNJaycXR9SL0/V3zE04MzNUPxhQRoqalH5875XcqdJo3CEZ1Ggwv5DH/7H/19/pc//A6zURO918aJRKiXpGufVDR8TyTFuDdi3CzhNafE1i+qx9NSVEPLZ1NuWEg+swlfevYq79x5pGqCgcQSnlCU5ukjcrkFSmcFuiLzDAaY2ENl4J5NJyrddHjWRWI3A2eg+FiZ9YtqI7S2KAI7Ac9UGQwGSrIh/x1LZ1hZyPL+O7+iUK2ymM4zmuisnT/H2eP7qssvVtmN80/ieuD+ndsiN1OxYnmW9gZzkjEBxNfJBw0VKxMboe1OCGounVqLWHKJrd0dVvJZ3v3wQwoHj5k4fdI+v3IWb69mSJlV9o4KlNoe6pU2U2Hc+qP4fDE0Qfa7Yy5eukytN+D09EzV2RcCXr7+d77Jj7/7F1ROH6gRg6zURKQsOfBAJIQvmmDYGePYAiqeYGbXKBaOCVg6Wi6ZdOUjKDKNFy6u8aO3PsIXDOK1pYEQJZKIcv7CJQ73bnN0eorhM1hZXWXSaXBaqZJfyig/miYL0ljgEzdmPEurVVGMlexSnkZ7qBazwp11DD/uzOa3/94/4E/++Dv46FIs1Ok7Oj0Z0puOsoyI0FnyI4VSE39ug6Dfp+oic6/D0Pajd9oqWOR358QW0pQODgil43SrJWa2xtb5a2ysZCmcHvHw0QHOoI1phTBmPdYyMb7yhXWe/+pv8uof/Z/86I06ta4oy7zqztEbDmnVO4QCISKJDP6UaBo6qrEnK8Zk2k8yGqV4coYZDisP0HgwIhUOMJkOVE9K6uS+aJzJZK4izKGAhieWlIvPtmt7fMSNII1WlfYMJXHW7DmxeIK5axJPLdNqVpj2SwoPKrTglaTLw9M+BVGtZNZoP3qH8No25sSh2RcrShtHuIHBBNuXrzLr14l5GzRaU7ojOVdf58Gtj9jMZ+l06uCPUSw1iPqkyCQbFrGvzmh2Zzz7xW9QLFY42/uYXD5Do9mhXGyQWMjRLJ5x5bnn+PiDt5RkSXiLptcivbql6oK9dpFuvaEqLMvLG0pmtLmxzsVEk6vXb/D26z/iw0cTDotdNK9BwAwx8RmqBi5mKQEen7v6HJWTh2qKWOoOcCdzrl9c5uMHh3hjWabjPlNvmJjPYNguMxza+Aypnkfp9Xpkl1a5tOHSCjyF9uzVp9xqucHU1hXOs+d4CEhczAyxtbbM4cEBgXBUQc2jAVGGtRTa7vJGQsmEuviUaa9eKLCwtUkqkebh3l2cURcjaOFKu2F9g2a9wlrMZjicctocMnI+GcEKoTAUED6Kj2K7o9AeQoJT/+oe2v0eC2tbNOoNBYOJh01lXBGQmARQ7cmAxfPXOH5wE1Mmm6GQqqJoU0G3Sla9rwDA8s3c2dmhNdGJZvN4Tt4nFZpS7fjRPGOKhR59PYbPsohlUoq75dU0upMxPhm7jroUjvbVCPrqp77EoPyIveMzrn/6azQePGT12jXe/9UbdOsnxKIxzj/9NMdHD+kVi8TjOZbX4zSmMbSNzU132h0r4vG5tSSnDa9qESyurvClL3+No4dvc/f2TWa6l/lY/yTIrmsKfydAG6lUiEdKFszruQUycYfjqrgTBEFtKCGpNA2G4xGWksS5rC9G1Y6xNXMkLEg8FAG/q2wmlWpHVTzEP+H1mlTqZWYzD4Zl4Rc6qEDQfXHS2RWqx3eYDBvM/UkC+ox5OEVY5H3VEvlsnMx/OD0JYs8XimGl0tBu0hoMCHgmTMYDmGikF1N0233FQY8s5FUcWRvIXN9l7DpsXxRc02PqZ4+FgsjKzjrFYl3tPFPrmyRmNuGldbq9Gq12nUHzTAmdOq0eIZ+H3nBGPJMjEPSi5ZMZdzWfodBoYtsennlihwfHNcaOzrPXn6b4eI+Ts33V8jI8AZ56+YscPLjP6f4dZZzyeAxM3Yet9dEmwruaMpkH8eszfH4f7fGccMivLkSxSEydh0MeCXo6dGydC+ee4tzOFt/74fdxphM1xJfQj1gFvd4g81lP8UxkuS2/9fpsRiS1yqde+izOtMAPf/SWIjUk8UIkwXw+w+93eOqpi5SLZe7fP1MyDIlhy0zf47UIxsL47SFnZ48IWlHSiQyn5QaGTxi3ujpNTToddI9DIJJkdWOXw0cPmAw7qpHsDQSYzFyS8Tjx1Q28nX1O6i5+r+wcPErf0OkNaNdOuby9QvGsTsd2yCwtoy1lU27MiqEFQpwUquSSIeHWkQ4nmHks8ptbfPzmz5jgqp1nLJpUIwBHUND5HJnFdV7/6Z8xk4+uLe4dL4auEzeE3JPm4o0XGfU66ocUiVlMmjW6wy6MZ9gBLzH5GGeWaNaP8bkOlvz5oxntbp+xO1ViOzkXt+t9AqEM42mdaxe2KLameIYNrAsv0Xz/NWaDLl1bKFeS6PITtAyV8fb7oliJHMVmC7txiuM4JNY21WUsYbcgs83R3n0lxt7cTpNLBPjw1inzqa1i2kLGF/CvNvcQjkeVh7laqynJUnp9R3Fa/OM2Hsvi5nu38ZnCWEyTXsrROjug12ipy6MQLYQno2UzedeeDpT2ZTHoVwH6TkenL6YOXWNmmzx58SlC7oC7xyec1HqK9v6F51e4fWeflbUNDo8KagEge8L5aKCy4qITkAjY2BMklElDf0KnfoLf0Oj0JzgenbEzIeI3eebSObpmkgcfvY3XQCE3ypW+IjVE/OLC8ai4xF/77d/jz//ouzzzZJif/eQjZhODpy4vME6d471XX8WNJ8mvr9MvndDrNZWzLSCrs4BGeu0c1Uf7jHslRgLdmYEvGKPdrxHQQwrZLS/JYMRHV1IKusO1a1cJRqK8d/MDzLk8GlP0hRxqJdBtl9z5izx8QySqM8UfkBPdymKeemeqsNuWaSsYTqVUZCG3Sr3cREulc27AtTi/5ODxhWh2+8qjkM5kFa4oGE4zniaJBCec313jceGExwf7BES4bHkV6T4YcMGbodepEiSAEXW4tLrM+/fK+MTcF4njBLy0W1VFV5agfE7g7kORrYtWbIZtymNHV96fVqtFKh5Wt9t6s6fYhtF4CK8oAXpDlrKiDygw8sFUUH2yMDBcctu7PCoP8XQOCZg2E1tMWCmy+Tx/83d+g+/9yb+nVqrSOq3y0te+yM+//y2efflL/PzHr7MUNRRSO7y8zFJ+jWbhUF32RJu29fRLVPduUi0W0OYOf/Df/1M++On3uXfaZ/3aM7z2g+9heDwkLINM2I9PVJWOyXgu4+sOthEgn81xWiqiZSVgZ/qJ+Ga4Ek8OiXY2RHIhpJ5hp6dVYskYlj/AWaGm6DySObHFnzw3gAhXLy1TatSYDhwufe4btB69z3w+YSZxy8N98uu7NIcDxtUCQWG4tloEPB5GE3EozJV3TZasnamOqVQIFn5NzrYDhb4bOZ+UU8OmpbxC9UaPoHeqfuuPTpt4o0li/j7PbmTpL9/g6NaHDGtFev2GEvAFzBSeaIZQwKZ4coo7dgivZSjs3yedWCARj1IrnOIPpAlFdHyemeo0WUGT6dxgfescjU6RWWibSeGIZFjHHnTojeSTahANR0htP8G4c6ZWkJ//zDOsZcZ8+0/f5M1bj4lHEniNLLoIvjOZvCuTwIvn17j98BDdG2L5/DnCrWNW0uKKj/PW7QapmElv6NDp9hi6Ok+/8nlObr2DT/MoPJIPjZv7pyRiWZxZRyH6tblOKBX9REY6aqAZQbIbl9QL6/S4zKzbJby2hNup07R1rm2u8/7dR6qqFwt61PFO5hlSVclEo0xmAxZ3L7G4lOH0/gNOZJqp2fzX/+1/x3/zX/6BujA58TCdVgtnNsI/HWFl11hdz2IPp5RPH+IR51yzRSy9oHB6Ac+cJy5f5rhU4+mvfJ3XvvVv0MYDGsMuVjSsPD+Smu1PXJz4KuFwCr3+kJprE2iUiMaidGp9VSoLL6XUNkv0ktp0QuukhCkXHk+AxMY2lhlGyyRz7kuff4X333qLcDRKuSK6wgz6sE1Y0nl+AyeQZD4d0uyIiQSCQts0vaTTUQqVOr2ew6o1Q/clKPZaROR6n4zSETdxMEivXsLrcVl98kWKhRKd6hHnzl3A0myufe13+Pb/9s/R/Ra+yZR2p67YI7FIlOOzGrnlFVIhP2dnJaaah4vPvsjf+ubX+X/+1b+heHAHr5Xi6LRCKmOSTS1x7ZnneOuXr1MWeqg2VswAyzPn5KBAezKhXtLxB1sAABy+SURBVK+ymMtROzklH3OJJn3cPjPpTeaqkri8nOPe3Vtqjag5XnRdU5bwfqPFyy9e4fZHJ5wNHZ7/4he4/YP/W4k8lDPIMikKq1H3sbC0yMC26XXkdp0kv7GlEr5/85tflwbEpiuCoaPmkK9+8z/inZ/9nFLphGjEwtAMHPnYGzozr0YyGsOwRL5hUymesh4LYaSz3Ht0gqjpM9YnYDBpkslkTvwKQXHR6y5jSWHZXnW8FEv3aDxjI50gvXuDj97+CelsXvVCRSkgIIFGrauMIzN3TNiSk5NoXKbq3SLIjH7zmC+8/Fm++8ffA3kpJhPUSgMWFzLEgw7VxoiFpRyxdJL+1GHv7j06jar6WiTFtZBJ8fnnrxGcHvHjX9ylo0XV+EHz+tTLPB6NEPJFKHU6mKEQaZ8A6w11Equ1G6os65tOmEy7avyby6bV8U+Ou6JGMD0OyWwOj5Ulm0zw4ftvK0qdlkym3Zg+RbcymN4584lNczBR+0BpMQVM6dn4SCUXeOG5J1jf2eEv/vI9br3zJqlAmPDykqpitwt76D5Dla4MXUJFyxQLj5SgSKSixUqNhVCQ/niqatRCkYvMLQazMXFR6w5HJBMxrj33Eu/ffIdWq624V1JBrDeaykgStmTWkaZcrhPzmYpJO+xXGU49GAEfXsFzhExSuQzZ3Aqm1+S0cEKjdkK3NcUXCykqxmA84Pwzr1D9+H0urMqmy6XW1SmVzjDCWaZipJ2NFHCsLcQ7DfLLEqVrqeq6uITs0iE7F85RbpSV8nL74mWKjz+m2mhKPwdtphDFitU1Gk8UciQQjqAtZDOuqWkE/FEaMu82PTQGAgawMI0gc7tPMrfKfOpSa1ZVR16u03SHxHJLCtXkmc5wRm0i8ayq7J3fvcLKlau8/qPvE9dsKq0eneGEaCTEqN9XWCTNNNCnXubOEI9y9go6FPSAX81y5IWayq+qy8rju7cI57bwh1PUyicYzLhy4QIP7u6B08eYhSiOG4TNEOlUlMTCAs995hW2t7d57dUfcv/uR1TKHTKLSSoy9fPD5qUXuPfeW4QiATaWsxztP1Itt+TKtjKktOtlnOlQCUZEvvdrX/sGb//VT5T5PJLfoX33Q+amyblrlxX9/85HtxhPuupRG/aHmY5kLj4j4IvQk3iECbFoFO3KpYtuUzBGozG+UIqod8ZkbDPHVH62QadOIrtBPGKqY1F0cZ12/Zi2eC+l5IVO2HQZTnxsnt+geHSsNkDLaxu8/c5bmJpcziZ05xp9aTV0zrCnXVaW16hV25iGTbvWY2N9l4f7e6reEgubSl43dU3Ozk6UkyG/e0X9ZvbVDVBnZTGjnMON08eUmpJb76oylHTulzZW+cwXfp3gvMu7v/wZE3fOw7Mm425XRRpkRFyrtxAVyNiecW4tx2g8ptiagxVmOmirWow9Gqijcmhpl+efuc6Hv/xzpo06x40e0YgQRLfYvr6Lf9zl3TffwHHEKCtruDler6V4vVPNz2w2U0m11eV1tM31T57hIlm24gtqSJTw6arjYjtzDL+LY0uwxmKu6STz26ousrC1zeG9Ozijvtp7Bv1xIpkI7WpLcQ3lmR4Nxbn4zFMkV1e5f+s2J0enLFlTDgsnmHqQcy98msrd2zx++Jjc7gW0QQ3NDDKVvWU4hOMa6lYrEjzD68PwOrj+BM2G6NhnLGyc5+Deh+rIJUc+JkOi8Th6MM7q9iUYNmmXTqlItrAvDlDZ1EwZjwQS4pJMWBSqA1J+HdcXVCeYSrOB1+tXNcB4UNixEWJLq5SOi+DYqtz14LBAIh1n58KnqJcfM+5U6At60Aqrfmpn0EWbaSrxNRF+TSRJp1Zl89wm2vblq+6C4XBSHZBfuagINuPeiVppWQELW5sztW0lphDdi+sPqYLqC595mY8/uklHzN8e0azEKZTLxP2Wyo6nUjFC0QybV55QTbajj95lUNjD0B3uH1fpDmZcuv4cxf0DRt2KIjFHMvJRNKjVa4rBLTJHkR7NnSm9Vp+ZwpE6SkTt2mN0NWoIMe5N+NLLu5QrPY6aE5V78Rg+EpZfMRGPDh5QPjvECgTo9jvy3EKbu0QCc2ZmXPzQTOZTgpaoZIT5LaiSqaoXimREhk4zb5yv/vW/xbs/eZWzgyNFnY5kllhdW2RfXKDFY3wBcUeIDkzSWXJgCJCMBnCCKVqVjopXay+/9DnXO7e5dVBlKRPmiy9s890/fQ2faSIO0al4fT1edDNIOp6m02kpxpXc/EaDmYIftip9VrbzNFtthVySNJZIN8zwIh5vBMcZMR11FAuq02zSkTC/IOjkvWx7FT1tOZPk8rMXefdek1H5SMHFZrpJRAZWhqZcalZIwO9+yq0+uWSSQrHE2kaewkGJ9Y043ZGH/hAMc44nEFUtu1A4wMnjh6qR8NSFLR6eHhEKWvQnM2xpb0jQ35XUmIvtFc6iZCk1Esm4Ql8P+y2CYT9jc5kvfeXL/Oh7f4w7HmDrBisrCySWVhUNQ3Ak7eFc8Qql9u54vQpov3FujcPyKa7tZ/fiJbSL29uuNjcotpv4AxpX13IcV4R6M1YYpeXlIPnVGB8/mimWtjPs4I57DOYecgtL6gsvt8ckQxrrSyvc378vPyJCgSDxVI5atcVwMlAD/ZBuMXXG9MdDLFGae2Q5LB9bP+FgiFTUoGvHaNUKSOVfM31cUP7lMWdnZywvJNjMBzmpB9T2aTodspJNKmut7Qmo4xzjTyC92ZV1MovbnB68T/XkENHTxpJ+mr0eIX+ATn/GREoIuOrx5RcWkSHK+DmpVBTH1ZnaE+ypq8a00vcXQsZTn36Fv/z+dwiEAnjtGanVDWpHD1XbuVhp4ff6VcpB02Tpp2FGY2imq7jnAjrQzi2vupdW07xzv0gsE6NbaZJf8lOsTpStemU9xVo+y6s/u6V8mvlkkHajz6VXvqoyGTM7QmukUz18k1DEz6Qru8uQKjmpaIU9Yyp5cb9FUHjaRohyu4ruehWRvtGZkoom1WNrNWsSTm8wGo84LlSIJqNo0z7D3lidbgQOI6Wl0dghFo7SLbUY6SMIBFheWuHg8aliy+bzK+plJxG0iKgRGmUqjY6q90nkwvaaTIZDhb92fSG2Lm7QKu1zelQiaBgsrm9hmgEODw/UC09Whfn4gP0K5Fd32H94H82yVKVkPb3CeD5UyA8rGlcv2pEAgnVd7Qt0zcA15mpc/fwLL6Llcnk3F/FRLE9VEXW/1iJpSP8rgONx2bl8QzEB3/vpT9haWWJsD6g0W1y4+jSVkyO80hpO5nh0532lto0nwxRqDfU4Ekr5cjaFFQ+on/5YDFXegIoSrOaylCtNfv+f/BP+53/xPypOuAg8RoMuQdNiMHJJJMKq71irCHkiw8ydUasWlWRa3PabK6vcPjxh9+oNhvVTGnW5hPgwhFTfb+DaAzVSng8nhJIpBesVu3g6LUnWClcuneeDWw8JhmOMZxOVd7QHXTx+HzOPh/XVdYWdEp/95TUJoXY4bU7xGnNufPF3OXjvVzAu0xNhtGNixS18usbF3R26nR5HxQKjoc2g32Oma1ihpEioc24sEKYhf1HHYPnG03x86wHeQZWg36+Sn67HT+lw7xMU0XSiVOui7w37hedkf6LglbqhLmf1jkJorGXTtLttEsurykB1ePdt9dGc2qZKX9mCTg2aOJkn+PRLL/P2n32LSqdJIuFjOJkz1ROEAyaN00PMUFBdJkKWRbPXYm0zz9neCa4I73xhtFkfTzhOwOfjyqVLmB4Pb7/xJqlMkm6nTbPRVDbykaPj0zSSyQSJxTwHD+/z4rULvPOgyuaNF6jevUWMMSdnRcxIQAVaq4IEsecE/V4i4Qy2NsYz7rG96vLuwxhjw6NopN1Gj2QixcFBiYX1FSJywgsluX7jGn/505+oC2Bo8yLa+bV1V3o3K6kU+50WYTfI0u45Hu/dJuDYuG4AW0x/EvzVDNWXkduT+OttzU9Y79OQ57MvrNQFQvkxHYfOWFoTmpr+Xb6yoSaHUvOWgVZLZjJziCeX+Wf/4p/yX/0Xv8/f+OqX+ON//yrNSRMTL1ZmjXw2Q/1QLFA6+UxY0YwrzQHxgIexPaHdrDOa2Zw7/wTlowMFg4wkQsqyMhn0sCeaIjuIclOzDeKLC2jjibpRTuw+i8kIzalXmQBDzoDrl7b5+UeP1A9Hc2xG/R6mO8cXj2J4fIqLNayVcOaQjs5xfDFWPvt7vPuD/wvd4+LX/WoB/dXf+m1OHh1xdPsh+fUdKie3qNUraJMZ2oXVdVcMqAK1lTaAFgzzta9/lR/+yZ/QaTeUSNTQTdBnPHntuvppF4/2qbf7XNha5ahUVyePl557WoUnd298lu/84b9Us4TTRpNsOqomicVCRWjkTDURFuhs7qxQqNfZye9w59EHWL6QiljEQ37ag5nSDAijxZnoOHPxt41VdzOTXqR08EAF3l945ll++au3lU08EYtTK54RS6apFM4wAl6VAZ/OHTIRH6FQiIjf4ub9PSVjWlvNUe3bLBgzDs4kaZtVDmih8E80g9GohWc8YTGXZTDsq2PoTHydXrnURGh2SuQWl9UR2NR09ek0NBvDFycYjBJOmKrL74xNrn/u1/joFz+n0ayiba9uuM12k0jIxKOHlRp8JW5RbbfwGybDyRSfIKulYNTvEo1ZJIKyFHZpdktYYj1pDQjpn/gsJQOdyixSqdYxZ2N60xlWKIFj20QyWVpNkWmMMYwo5mTEzB2xu7FBpV7kQIADmkfF4vLLG6xtP8G9ux/Sq57IGIxIOKxyLtVqA33cpN5q4gumiCXilKtlpnZXaYXVAMwdsXb+aYLJbfx2mcM7N9kvT0msXqJ1+iGmWFP6c57YydBujGmOBqQSKVa2dhGB+/GDR+pG2+02lAvIFgyIFSUZcYhEM9TOCnIPYurVlYrSFXy2WBn9Qbqdrjjx8Aok2ONhIGcge4LHCaJtrl10G21xAQu4RVeXCZlb69MOi5kYU8eL5gvQ706Y2SP8hk7IH6U7sRWM3O83Cfr8+Hwz7KGf3fMbqp7d6w05PjhWGxmHKdPZRO4CBHwa4USUwlmZtYVF+u0Rfsuv6J8HhVMM08LvE3+Q7DJHeK2oOjFII3riGmyt7/D13/gaH/zyO/zkzQO83glPbW3yuNhnPK2q8/94PMNjz+lNRMkrjssutjMiufoE4UCQTukh/WabuTtH8/kVxCwciXP+6nWuPrHND77171RNUPdMlWKy60TJLy4wcqJ4/TaW1uDxowIee4YjIU+fWKoMkgs58pko3Vadk1pDfcO9XlsdCFwJ/8s4S5bI48mcuWawKIAxj4/nnn6Sv/rFm1ihiJoxLGVySu/YrNdo9MbqJy5XY7/mEoiGCJphvvx3/zH/7l//T2yvL1DtDJnUTxQMXXRaVkA+OTMmk57a+22vr7O/f8Cs47B8+TJW8xDbF1DDe3kk+B2DuZDeug0FKHDtqRrNOr6EOh9vX7zApLhPsdMgFUopkltwcYvC/VtqeREJSnaljTdoqfOvxC8mNuxsbtIfjHj+2g4/fv1dVs5fRJ+O+fj+HlogQyaTxeoeqajxwJ6ranoqlhbTBlYgwRNf/Aofv/MWpQfvKHik7L0CIR+zkWjgUdoZcflkMgm64yEDKewbkvNB9Vlzi0toSwsZd219l72Hp4T0MVHLx/Jaio/uFrCCPvyBAOn0glqD9bptTsstYnGLwWDIbDqX1ABRK8Qrf+N3ee9nP1TLhvWL5xiVi8q3I9pHGZXNp1NmAl30eIlYHhyPh3FzhhM3ietT5p4gBw8O1BLkiZ0lPFaGQrlGo1xQ+FKxmghbXJDU/oBEqDXyq6v0O2NOKifqjuD3SWlgju7xqm9sOJFlMZdh1K1TLjXVtVtOLfJi9QQyvPilL/Pad/+tKh2EwlFsids1WoT8htI7inZequ6xqEk0e40bL9zg//hf/yV2p8/QnSvn2s65VY73BSqmI+Ih6W1qro5tBNG8fmJhnYVs6hPBhwPaN77yOTe5vM17b71DtXyqWNmyq5NJoTuZEgh8YomVVoJhBKi1ujxxYZPbew9pVcT4pKttju36WYobFDstosk8/VaVVDKqHhE+65MRpXh/EpasuEoYumgGknRHDc7lc/zigz08ronh0TF9hnL59LsdtTDQdGEeC9neS2/S41Mvfo67D0+odetogwEhbYwmVip5fEmGPGlROimytbaufjkeHR3T6XZJhCNMuxMMOS42BjAdYfglYSDovzCeaIJmucxoKOZAR4lDRIjk9Qf4td/6j/nFX/yISqWqzCgzn0AeemSyCwTD8sJ+RDIeptkYKxKeV/Lz0zkXzy/wYO8I3R9SnVLtb//G19wPbt7ic599ij999UNMr6auqa+8coPXfvo2c0Oj0WqwuZRROIxBr8cTF3a4s3dMvTEgHg7QGQxUyNMyg4xmXdWv9+Ill44o17sZDDKY6/QmHibdM0L6VF3dk8kspcYpq+kkByctQZiRyeaodXvks8ucnuxjmAaRcFBNHwe9OTPPlFd+/Xe4/eE9PCEfg6PbTPpDOuOp2hTpzJjMPqFurq1uKi2OfM3TuU0wIHzBKeHMgiobhLUhzfGczUWL5VSQ9woO40Ff1M3qmxb2e4n5I+o5H19aoF8+Rdcd6rUhmmUwadl4/LBzbpvDux8TjvjV3zEciagwUadVVwqe3O51vN4QZ0d30PJL2+642+a5a5scHFapdrtEoxE+9fQue/dO8QcN9vYr+HQPPWeuBBNCRxPBkGZrpDNRajX5gz2ELQ/N1hBX8yuX2mjWV0cxr88kYCWZeyJ0e1Wu7OS4d29P0T1r9Q6xdISAJ0CzUlRaxJnrJ57doFB8gOmZELUsRp0eo6lLZzLEa6ZYO3+RSaNIp3ryHwj4HnxhP7VyRT1Lw1YYU2LY3YEK68hAtjWeEwkGqbXbXL90jse33qA587C6EGcxE+Cw7KqxbLtRVeJpr+kjnVlSnERDmygn0cZCgqPKSCWCz1/Y5Wj/DrrXg+sxiYfDuEYArzOhUm0ynU7IpuI8eeMFjotjatUSWjabd+V/SGZpSX5bh330cJxOu6WiadGgj2qlqViFMgGTpO103CMetnCGNqGUoEPH+Ge28rj5U9I+HtNs1dE1R1GZHVmspqKKzKn54lw9H+f1195j7oWeWACNT7YknW5TQl/4/BaJtKBZa4wUNMerflsiqSXGsz52f8L6jS/Rf3STavWU9XyYzEKWhwdNqpUqhj+gog+Ox6Q3cPGMxS44YOqxSIV9tAc9Lmyscuv2HYxwFI+our0Gack46l5mk6E6v4udRI6irmvj9+kKQ3X90nn2Ds7odifkN9coHj3GCBiEQnEF1hFmY71awRf0q1C+vGtCHlvNbCr9kdAkVtzR1FY2kydu3ODWL35OIhECPUwoFaJ4ekQmk2E6tpmOBqpWN5vP0DVNTdLWN/IKy5ERi+rYYfnKFSW6EyXicChHtbkakTpjOVZKCFSYgi6NaluJ9CK5JKN2l95kSiQWJ2AazDQDMxjGbp4pwIH8M7XniuzsC1qEZ9IX8uGPWEQMl1q9iT8WpXRUIGKF6MwkTGoTMPwEEjl12pn0RHk+JRGK4BGOeK1Gz5ZThYUxneIG/SykE6TSSzw6rNHtNdS5O2rKi7CJQwTN7pEQIPGTz/DG66+jewJ49TGRjScYlQoEZTesedSBwpUdgWVSa0lkTlPmxqHcNNfzq64tFQ9bZ/HSFSqPjxhNulj+ODKZT8QT7G6u88HND5nPp/QnQ0ZjETN7WVrbIpOOcueD9wmnMji9hoq1idwoHIoTskxilo9av0er1VeLC6ECGX4RQxsYrk5KlF9N+Q2UL8yP12fg9VvKJbwcFbmexf1HZXWVH8/E4Gfg12a8+PRl3vhwj4uby9w9HnH1uWsc7N3EMIIcPriD5poEY3H8oTidTpdQSKPTqKu1YDwcVG41MZOHTZ2yPBItk0QkTiqzwMd7+/SlzykEOnOOTyaHhRHurM9T55cptlwGmk1H5kaDJmZqi644P/UZ1597mcXkIsdHj+m0jmlVB7RnE7yarowp2triiitnRnHWB70WL3z6ZV79wV8Si3jVN0dKpslklNsf3SGZiuEY8ps9o9Voq8uCMFvlgtKfmKSCFh7dVh7LzPIyTz55gT//o29jazpTsfU5clEwFSNxLt2H7pCIYVCplYSBiemZks/nKbeGCoYQE/s2HjXDDobDqpA67AvlwmY9m1YFAtMbpj6ZsrwUpj/UuHjpaXKLEX752l+RyWZpF6tK8/X0C9e5e/+BmgnVKiUSiTS1QZ/FaIJqu4tnNiJoRVheW2UymvFw/5ECzfu1OQF/jH5/wnw8JRLVKbUmRCJRvFOb1lSKWOJac5UlNplZUbOgoHdOqXzK1oKPW0dNJmOv4vBqqytPuvGYwWzcY9x1lUC6O+yBPkbkCueevMT6+gaHe48Ux6pcLeD1iLPKUPkU4T4RcNm9cI1lq8dP3zghGg6h+0zm3gDDTpVcLkun26bdbKN7ZKAliCYDx/YhCiN5qUXCFrXBlMziArqgHCY2hUqDuSCeAvLRddHmMoEz6bXGeHSToDXjrNTC1TVWU0lmhng8Tc7vLjAdCzhngt122L60ynGtSr1aZjifSz4AUxszciZM+2PGjoYVMBU91KO7xFRq1uXKhRyFUp9HZ7Ls9qice19ssZkwAV1sAGvc37+D16extbrJ2WkRj8evOAMDe4QzGbOYjFJpdFVAaCCzqvziOff8mkW53CWzsMu9vfv4wnMGAqEJRXG9FuNeTR3LstEAo6nETsO0Wx210Q+ZFjPp7bgzIqJNj+YIxBJkdq5x9MYPpMasnsmi11L5EiHa76xzbXebn/7qXXZ2NznYL5HIiICjqrox9W4bsQVLnnHUqTO3ZTaeZTpqMJqgQpZoc1aTae4VyyTlGBZZoVu7h7z/ZMcakID/zCGcyCvY5ebqKg8OH6j3jMcdMXLmaLL+cwcYroBwonhmA3XEjYbTCtW9tWoxdoQ+0eDx3X1q9Zki3ofzu5wWi5ydPCQkNRd5ZJgGyzuXCAbDVO/dwrHiqmCrDwROE+TB44oqgmnPPPtpV5BLu/kYrUdHfDwJYjpexpKdk+qGWKyluTaeMBp2GA6GCrwuN1LZ6J/2Ovxnf/2LfPuHN9nZ3KVeLFKQlVt2gcXlHANx18jSTR4r/Q6NSglfQITONv/4P/kGYuE8aEx59LjDg4OPCXjCdIUZPpPJmw/kHB70K3elM5LeqDSjZzz/m/8pH/7Z/0dzOKYzmPDic9e4+/EdwrEIO5eu8/Of/pi1fBp518oxL57IUK41seOb6P19VqJRZG9wVmowng9IZVa5sJ3n7q0P1AvaCERYWcqoEE9TSr2juXqUba7nWPnUr/Hz73wLyx6o3Pzi4hYbT17m3puvM5B6i+lH1vdx02XcHuM1NLYun+fmu4dof/AP/8Cdp0McvPsOvUFDpZCOq0UcR2chuUylesry+gbxeIKAPuLorMTjB4doPqnqTfB5/Xz1a5+lWiiyf3pKNJTj/v2PiBge9fEcOx500ySTiKhdqPJjWhHajQbXrjzJ3/17v6vc8//8n/0PHJc7LKUtlYgdiyN+3iZgmEQDBp96cpHlpEYruM3Nt/YVBKczrPPSZ77M3t3bnJ6cMpUppN8iFpAA01Rd6/vtAdVug0g0ieE3OXfhMu/94lesr8fo2ynu3PmIsBVhNZei3qyq26/PmRKNhtXcxh5LHrFNryvrdBvNHZBdXKJct5lpM0zRDMujzBHpCGpvGbdm1Dot+m1Zs42xpw47V64Qiaf5/wGIIZ/fWGV14AAAAABJRU5ErkJggg==;" vertex="1" parent="1">
          <mxGeometry x="40" y="140" width="193.95" height="343.87" as="geometry"/>
        </mxCell>
        <mxCell id="5FQkL91_oub3n9h8Phgb-39" value="" style="verticalLabelPosition=bottom;verticalAlign=top;html=1;shadow=0;dashed=0;strokeWidth=1;strokeColor=none;shape=rect;fillColor=#21CCBB;" vertex="1" parent="1">
          <mxGeometry x="40" y="460" width="190" height="48.5" as="geometry"/>
        </mxCell>
        <mxCell id="5FQkL91_oub3n9h8Phgb-42" value="" style="shape=image;verticalLabelPosition=bottom;labelBackgroundColor=#ffffff;verticalAlign=top;aspect=fixed;imageAspect=0;image=data:image/png,iVBORw0KGgoAAAANSUhEUgAAABgAAAAYCAYAAADgdz34AAAABmJLR0QA/wD/AP+gvaeTAAAAoElEQVRIie3SsQnCYBCG4ccIgthaiRtYWoprpA64jytYuoMDCIKtvUMolrEwRYxJSMSQgHnhh587vnuLO3raZpD6x03MDn489IP/EaywblIQeD+IynT2im4Ica8TigveOacWJpmoJFdJcMAQ+1Rtm8ntvhVcMU16Y5xwxCiTm+BSV/DAMtOfY5YXxMJrL5UFm4JBZUR5gs6eaWUaF/S0zxNfyUBlzI9w+QAAAABJRU5ErkJggg==;" vertex="1" parent="1">
          <mxGeometry x="48" y="470" width="41.25" height="41.25" as="geometry"/>
        </mxCell>
        <mxCell id="5FQkL91_oub3n9h8Phgb-45" value="" style="shape=image;verticalLabelPosition=bottom;labelBackgroundColor=#ffffff;verticalAlign=top;aspect=fixed;imageAspect=0;image=data:image/png,iVBORw0KGgoAAAANSUhEUgAAABgAAAAYCAYAAADgdz34AAAABmJLR0QA/wD/AP+gvaeTAAAAOUlEQVRIiWNgGAUEACMB+f+UmsNEvFsGKcDlNWKDhqB5wy+IyA0anObSPIhGLRi1YNSC4WDBKCAIALMiAx6CERO/AAAAAElFTkSuQmCC;" vertex="1" parent="1">
          <mxGeometry x="172" y="467.25" width="40" height="40" as="geometry"/>
        </mxCell>
        <mxCell id="5FQkL91_oub3n9h8Phgb-51" value="" style="ellipse;shape=doubleEllipse;whiteSpace=wrap;html=1;aspect=fixed;fillColor=#f8cecc;strokeColor=none;" vertex="1" parent="1">
          <mxGeometry x="172" y="390" width="50" height="50" as="geometry"/>
        </mxCell>
        <mxCell id="5FQkL91_oub3n9h8Phgb-49" value="" style="shape=image;verticalLabelPosition=bottom;labelBackgroundColor=#ffffff;verticalAlign=top;aspect=fixed;imageAspect=0;image=data:image/png,iVBORw0KGgoAAAANSUhEUgAAABgAAAAYCAYAAADgdz34AAAABmJLR0QA/wD/AP+gvaeTAAAAaUlEQVRIiWNgwA7+QzGxAKd6JhIMIQvQxYKjDAgvYvPmfwIYn/rDjFgUMWLRgA/gVY/NAqoCusTBERqafxjGIDXdEwJw8wYsH6D7iFQ+QQuoDkbjYDQOyAejcUDQPJr7gAWLzVQFNPcBACOSQfnE4kc2AAAAAElFTkSuQmCC;" vertex="1" parent="1">
          <mxGeometry x="183" y="400" width="30" height="30" as="geometry"/>
        </mxCell>
        <mxCell id="5FQkL91_oub3n9h8Phgb-62" value="" style="rounded=0;comic=1;strokeWidth=2;endArrow=blockThin;html=1;fontFamily=Comic Sans MS;fontStyle=1;" edge="1" parent="1">
          <mxGeometry width="50" height="50" relative="1" as="geometry">
            <mxPoint x="252" y="410" as="sourcePoint"/>
            <mxPoint x="530" y="340" as="targetPoint"/>
          </mxGeometry>
        </mxCell>
        <mxCell id="5FQkL91_oub3n9h8Phgb-63" value="image" style="verticalLabelPosition=bottom;verticalAlign=top;html=1;shadow=0;dashed=0;strokeWidth=1;strokeColor=none;shape=rect;fillColor=#21CCBB;" vertex="1" parent="1">
          <mxGeometry x="40.98" y="140" width="189" height="30" as="geometry"/>
        </mxCell>
        <mxCell id="5FQkL91_oub3n9h8Phgb-69" value="" style="verticalLabelPosition=bottom;verticalAlign=top;html=1;shadow=0;dashed=0;strokeWidth=1;shape=mxgraph.android.phone2;strokeColor=#c0c0c0;" vertex="1" parent="1">
          <mxGeometry x="560" y="80" width="210" height="470" as="geometry"/>
        </mxCell>
        <mxCell id="5FQkL91_oub3n9h8Phgb-70" value="" style="strokeWidth=1;html=1;shadow=0;dashed=0;shape=mxgraph.android.statusBar;align=center;fillColor=#000000;strokeColor=#ffffff;fontColor=#ffffff;fontSize=10;" vertex="1" parent="1">
          <mxGeometry x="570" y="123" width="190" height="15.82" as="geometry"/>
        </mxCell>
        <mxCell id="5FQkL91_oub3n9h8Phgb-71" value="" style="shape=image;verticalLabelPosition=bottom;labelBackgroundColor=#ffffff;verticalAlign=top;aspect=fixed;imageAspect=0;image=data:image/png,iVBORw0KGgoAAAANSUhEUgAAAFwAAACjCAYAAAAHK3mUAAAgAElEQVR4Xuy8169lWX7f99k5n3zOzZVTd1cn9kxPJnt6IoMpSqREWhJpA4ZsP9ggDdgG+GAasF9sAYbhF9kSKQg2QYoUzWgO05AcchKHPdPTXdO5K1fdeHLYOS1j7f4f5mnufamqW7jnnLXX+v2+6beUVqsl+MHX920FlB8s+PdtrZsX+sGCf3/X+wcL/n1e7x8s+A8W/Pu9At/n1/tBDf/Bgn+fV+D7/HI/2OE/WPDv8wp8n19O2e0PRVJrHPR0xssI17FYbiL6nTbYNouzObpmYFo6SZ5SFYJOy2GdFFBkZHXBxe3zPD47xDE9VF2QFxU6NRUKZQElKoqq4jgqWZ5hKCqVoVKmJecuP8nh3XdRKRGqwqjdIlqvSUqFQlSYtsF+1yJPBONVBppCVhiMOhbr1RJNqblw4wqm0WU8m3H95hO8+s1X8DpDXCMkWZ2wCaEoFZKqoDfYhyIlXK6wLZOSiqwsqesMRdGQ37qqgjBRETgWhGVGXSiYpkGa12y3TRbhBl23qUuVmhJMk7qqQNQoKmRFiS1XQVPRDblUNZpaozx386ZISkF1dsjG0Xnm4mW++/b7OKpFrQqEahJoCqIuwbVpdbc4Gi8Q6Yx2pjPNK+pOzk9+6AX+9jvv0vdsxlGNpdWESUnHDhBWTpJDlkO/26bMN3iewXKZolQCr1szPVmBbnP+YJuigsUyIY8WdAOPUgjWYYoooDfoY5ga02VCUWxwRc2HP/4sf/fN+wgd9oZ9dq9d59qHv8js0Ru89jd/xGoTUWg2ippTFTpODUfhhAu+y6YI2eQCW/cYDgegK6zGS+IiRygqribY3R8Qz5ZYlk60jqi9Hr/03/4S/9u//D+INhFCpKiqwDJ1XL9NVSmsNit2gha6qrBcJ+z2dW6fJij/4ud/Qdx7cIdbb9/m0x/7CG2nzTReECcFcZLy4N59yjRkezAkrQRRvGHQ6rBKExAKpiqYhTGjrR71ugJT5YVP/SgxOg+/+Qd4HYuqEtx7PKHbHzHoddnkOh/56Kd4/+1XKdf3OTpek9cVrtEhI8dSBXs7fe6cpvTbFvHmhLq0SPOMT79wmVduj5lMF/TdFtcuDPne4RE/csnk2/cqhKLQ67fI8RF5yXIxwW13MOuE9SpjnqxodfpE0znXdre4PZ/gmD6B6dIZWnQDh+nklDtnK3p+i2c//hLvv/OA9YP3cA1YlQloOqP2FWaLRx/8W15haIKOrSEMj9JuUeQx+WaNp0DLsziMQoJCR7lwcFWYTolvtfB9j+2WRu/SR/jON/6U5WJNlmZkWYHr27RdgzStSLMc2zDJnRZKmvDs09d55buv0mlvcS6Iee/MIrE9Rm3omiWTswlhYuL6Dpqq88kf/zmeeepD/H9/9IdMH75CmJe8+OFP8Md/9ns8cfFys4PLMKJSdK5dAK2OeeO9KZNMJZyn9Hod1EpnuUpIRUFLzxlsdZnNQ3rDNmcnY1RFYKp6U9aeefImd04mqKJgOl7gujau5bBcTyiFje5oPL3T5vhoxshTOK11krSgKEosReNcv0e3A1PF5eTBGZ//kU/x/3zpL1HR8IycHAPbFGimRpbaWIZBWZQUVYatVHQMjbBQSEWG8r/8y38litUh/+8f/gHRYsUyzSkqD1WJsWyVnZZNsVqh+T5JrpHG8gmDp5ukXp9ucYY/2OLte6ecG/ks5hG5pvH0cx/lh1/6NP/+3//frCcT9ExQaTZX9nSyJKTSXcZrHcvMee6L/5ji9IjesMO3vvFV5tMxPbdFlK1Qm92j4wcGx6uMpE5RhIGSlviDdrMgmzzm8y+9zOzRXY5WMW3LZpWGJHGIWRms4xyv30fVNWaLKcvVkht726RpwRPPPM/k/VvcnUQYomAUGKyExXS1phP0qeuKPCvIZE/KSwpV0NJVXFenGwyosyWnqxDT8njiqWdQtII7b76BrrtURYKtu0TJCtvxuXL1AsrF3QPx8ic+TGnCX/zRX6N7XWpRUuUppSIoyhJdsynReP5Kh3lU4rgBJ6enrMKQ5w62ebxYIBQfp+dRnMXYjkJZluwOu6yFxXgT4mkFjmuxikoOdg5YPDjmZD3lv/8vP8//+e++0uyWjVZimRbJPKQSJY6tYes1UVKgaAa+ZZMKQRxt2NkeEJYqWgrDvsv9wyWdtmCT57QsuWFUHEMnTjes4hzH8dnI31OX5Cr89Bde5vjhfU6XEevFglKpSJMEFBPDFKiiJs11elu75FlJR68YLyeQuFR2gu1YdH2T+UnU4JzKtFCqisDS0E0Iui6rTUy0KlEMh4987vN882vfQHnm4gWxzlUuPfU0d177e85fucTde0cUVUS3MyTeLPFtlzBNKaqSsi6py4padnBN4dzBFncfT7nc2eWf/tf/Db/2v//PhKWB4ciHVmPbKnlVsl5t0FExdBPPH1JslqzriP2dy0xXpyRZQb+3wxc//zK/+x9+i6TK2d3aom0aHD1+wKjnMdlUKKrHJlqgmwaGPPqiwvMCDM1CY02YF1SViue2qNKIvCwRtUZe51S6hl4XcnmwhIOiwbn9PnZ/l1uvf4uuqaMoPoksRUWEaeh4vQOydcSVgeB4umC5KUjLipbjYvW7nD08oRvYDDsWR4uUQWCTVwVRXCPBTlqkKLWGInR2WirKJ557ShwtQ6JVCIaBWguevnGVN96/R1lCEKj0XA9qjcV8TlkVJLWEazaeK49LimWbmHmF3t3D0TZIQNVutzg6GxOn8gODgoYpn74i6J+7zNnDB9RpxGy9YfvcecaTMYamstPrUVFwOt3QtSwCxySvM8K4JEpLbMMir2G0u8vi8C7tnRZb7V2+ffs9ru8M6QYmZ6FGqzPg9OEdDFUhDCM0y2MVLRh0OsRhhGUWJKnBkxc6vLtxiaanmCJD6CamblJkGZqm8omXPkGy3NDWFrx1+5T5Km/KoGG2MIMOk8M5tlVRpDmZYtBqW1jolHFJVueIusB2TMqsxHU0lF63I2yhc37b5XClYhg1Xdfk8XhJgYKuqRwMe2yPhhw9fNw0zLDI6LSCBqIdn03Y2drl+GTC1iDgmQvbGIFNkpbcuX9CtFhTWpBWClu9EdlqzXw55dKTT/LwjdelJE9sdek4EG1KPF8nKeumWUu8vj3cYmdg8v7DMw7HKz77Q9u8fmdDWZkY9ZL9i3u8cfeUtm9SJTmq7lBXsmEJ0jylF5h4jomwAiaTKbsdl8lizcWexcOpwG9bLBMTo0pY5xtaQYBvmywmczxNIywFbVdvSoYjKjaFgmZV7ARt7h6HzaL6uk6c1+iyt3kedZljqgadXgdlEWEFcLQO0YSFsj0aCq0SXNwJuHdW0Ov56PIXxxGq7hLHKQPfpNPyWcuGKWqWaYmr1myKmigr0DTQTZPnr17lqUs9fvSnfoKT8Yo/+O3f5fRoTqhoRElGmm7YHu2QpbB74SLvvv4dWoHDeLnCM3WKGvr9FvcenmBbGkOJRoQsBwphHuMoGTf3B5zOBass42MvfZb3v/st7k6ndA2LMMtpD7bIohXr+QLTcSRKpd8JmCUpc7lTXZ06yxESWbg2nqUzDUtGnYDT2RhqQY2CIQQtoyYDdE0hThUM20MxfFwra/jGe4/PKBWFtmmSFSpVlXBw8Tq6pvPo3m2uX7uKP8tIA5XxZk0ZRyjXr5wX86VArWsMPUWSoI7lojoKumqynMV0Ao+g41EWEetV1DxlS9cwTZ04DvFtiEqFgdfm5Y9e4+Uf+wegW3zp9/8D3/jW+0RZQlXnbO1u4QdbjDc54dkjAltvjqGeZ2iWRqmqvPzhZ3nn9rs8OJmTJSkoOmUlsG2DiwOD+SJrGJ5iG3zyCz/Hn//Wr5IUEZ5pU6oena1tNosJy9kSw3Aa4qGbGp7nsNmsQQWtQR3Q7fksphuEqdPu9cjShCyMUFUV01KohcCoFTwD8lIWOodVUjAILDZRQbfvc3g2xzDUptc47Rbb526wmp5yfHgX3VC5cm5IrfeYjE9QsgLlQ09cFw8mG5Sy5vxuh/vHp3SDFmESNk8qS2pM2yJwLTqdbnPE1osZeVLQ7zoUiVzMAlvXaQ36uJbG/t55VMtgOZvx+NFR88bTWqPfaTUU//FkzF6/R7xccLLJ8CiwXYdMKJwbbaFpgntHY6oix7cNllEGitxxFlmVY2k6svXNE4sDC6bJmlHHZaO6zKcLXEMl8FooukVUFGz1W5DmxOGcypAoRG8goGpYnIwlFlexjBaDURu9qlitFiRFhjfYQWw2lNkGoUGUAqLCb7UxyoLhsM+DR6fI87Lt1PSGA5LKZjY5wWv10ERKYCk8nidYVU7gGyg3L14S7Z1dVkeH5HqNrZjMowy7LqRCQKlqGIrAtUx2LjxLd/uA8b1XefTwEbohcGy36d77fRe9s08VztCEwibNqVRVMmXKWiUva1xDA6VisUrptYfMV8eYpoNGRJVBtz9oTkK4SVEVA/Qc29Sp0py8LKiF2kBLicOromRTSGJrUBQzRsNtEgHhPGQYaGwNe5wuc8oqZXc05PBUkrglnqzRLZ+dwZDb94/o9Dzeu38fWw3ouQFogjheIeoa0+/Q9xweTk6JspAD32eZCGqho2kpvmuSRiWWZmLrgrCsGxhdiBrXCwgsgziLidKEtrDw2gLlsy9/RhyenjA04f1HM3pdh+lyjalaUnLCCALicImlW3S7A9xWh/22wnv3H7BYrBnKD3Y2oTUYcf6Fz/Hgm19C00ym8zWOpWOYFkLCMFMnSws28QbTNAmCgPF8QtftN6fJlZBMM9DVokE2VW1x/ZlnyEXF2bvfRSpCUS7FJI3/+D/5L/j93/pd4uWMqKi4sOsRZhWbMCXLU3Y7Hq12wIOjFYpSY3ktqromyTY4msPeyOULP/4z/Jt/92u0uwHT8QxNFfiYaIaJoqlEccK5K5eRUK1cnfA4LAgskyQWEnQj1E1T2/McLBN0wyYUJg41lpKxLIpGALMNeOLiELe1zVv3bqP84i/+ovi7r36N2XTBLFxgVLC3O2wayuPjZfOGy6JA1AYXLu6SlRnpZtMQI0kk9nouLjWPwpprz76I72q8893XyEqBJvSGGVpKgWuaJFnWkJhKV9nrDtikGzabjINRh4fTNWpZoxo1pW7iWDYdz6dEYX42xvf8BkEZlOxfe5rju/eZzM9QK1Bcj3bX59HxWVMG94MOlVIyX8UoqgSpCkKtSIVCS7N48emLhKlATec8XK7RsDmbnGLoNablNHpMWdZ0/IBSKp9pyFKDXssmWqdNvwhDFVFvyM0aodioWKiOj2NqqOGCQujYpkqc5Ax9n8LWSaIVyksv/aQ4PXkHqzJI8jWeljMVFrpisNMJWKUVi/kMxTDoug61qEiymDgXmGmGrih0+i3OFgVCl5pMG0WtcHSfttFlra04PrpP4DiNJgNGQzh2Ll1gcXjC3oUdwqjg8cPHqJKUuDZBd5/Z+C6WLEdS3q0VFEOh3zLRJCytPPbO7yOWY2ZZxPWBz63TkDzLsXSDjmdy/vxlYn3AvbduQb5ANTR+7B/9E77+l98ki05xnYA0XjYEy7D6pKuF7Kaoto9tuFAU7O4M6Y12GU9SpnmCXU757375V/hff+WXKaMNq1JF1RU8y2wInXyItiYZakItbM7ttImiFWUKi7puiKLy5MUnhKZUnCzmGKZCm5KnL3V4Z62zu/8Ms/mUQb/H4dvfAVsnXG/wqoJ1CXEtO7nKxa0Rj+dThp7LOk6plQpbOBSaCmaFUguKVNBqdcmKEEuo5EpNtJEIyOIX/qtf4tf/1b9GVQpWmwzX89B1BYUaueqSuOjCphQWhlpQKQW21iMQGz7+4lVev/2w2VUpLUrbINosCUyL3N8hShLUomS/32aVrjk9k2s5R7cU2kaN57dobZ9nfO82SRLT62/R3dtjPZ6wPD0kMSyqXMFSC7yeRycYsViesQlDhIC8Urmwv0Nne8hbt95Eq3M80yFHxVZ04iJmMBoyGS9QFQtlp7cl9va6bLKE69sD7o5neJQchzZpLujZNaUoWKQZXc+n7bU4Xa35519o8SdfP+N4VrAz2ub4+ARTVzEk47JUet02m02E53fIcp0qWoOSY7U6mKrCx158kr/9yqtc37ZZZjmn84x2f8BkesaFnSEPDk/RFZ1KMZG6vmJoOJ7Nxf0tppuE06NH7Gzto4cxg8tPMT98ncsf/hRvf/sVlvMJg26XAgv0ipde+gns0ZBv/Mmf8hM/+QV+69d/g3mc4WUzYqFQ6Q5t0yMXCdtb+wTtIe+8/l2GvYxN4bBa1ziK1FdKMl3FVCRYyRht7XByGrPrK4wlM1UVHFuWpBJRpJRpxnDYYrPJG3MmLEAZeHvikxfhVigYGT5F4DM/usfucMjheN3AqPP7O0hv5OHREauiwBEghM6FkUOeaTyenVKbbUyhU0v2YhcIpLjTgTJivVnz5EEH6pq7pwuWidy4CgcHu5yGIVou2MQhqqLR6QXka0mwCjZ5ghQkOp0+hjPg2aef5M3Xvk5YJnSsbSKl4uf/4U/wx7//J/z4P/s5fv/f/CYREaZl4htw83zAfLphpp7HOzjH/PY7sFnSCVTuj+e4eocZK/IkwkYjUQsc3aFlqJwbOSyimOlaQ2QCxXAbN2uxGvPCzZvcffCQutJQ9Zyk0OmLmlhTmp6jY1MJgeOUPP/8s9y9f8J6uUCxNJSDwZ4YdKWcCWE05uLWgPF4yuWtIaGic7rYNLBH2mZCCJI8w+l47LR6DEbXeP/OG2wPN9y5nzXY1bVcLm0POOj6fO/eGalSM+i2OBtPuHxuRLiOWIc1m8hAqxckmsYLz1xmuVxy78Ep53YPePD4MZapUaOxvbvLcO+Aycljok3OfDPDKzMSy2s0+SRdIirB0O9i6Bq9fo80izg6PMHVbTQTDMug03V4PImw85qf+8//M37/t3+Px6f3EKrVYPZLO1t87/Z7jVYzMm1yXePDn/0800dHvPrKd5Db2kAn8L1GmqiMGrNQcDotrn7kZU7f/jarxYSqNAgMk1TKyOgYikWpS8W1ZKSbKB996uPidHafVZqhomK6DlahoNg62+euY9SCKjllugrRhcJ8kzTS6VP7PVLjgMPJA/pG8oENlphkecV2W6E2VdK84mBrn6TSeHD7PTzTIK9LHN9gudHZvjggXibYlsL8+AjDUEhqHdOwSbMNpvHBoouybuplrUi8a2PWa1a1oGX7WHpFLkyGgcvh6RmO49Lv9UgWa3RHYRnJBmagKA2raN67UemNn1q4mizCmJ6PridNyUzinHVUUmQVe7sj4jhjGa4pRYWm61zd3ebhySGO67OOpKJoUWo9XBEju2Nda5iSfGg1nVaH0daA9XyDqFTa1RnKpeF5Uas5YV7T6fvMzpa4hoJuu4w6Lfy2y/3HJ6QNIlEZDnco4g0lRWN56bpJsolxOz4iTJhlBbYqMKQjJMCqKwaDNkVZs1hGaK5DHOfIlvj5f/iz6H7AV37nV8kqnWtbDplq0t++xHtv3CLotCjzpDldpudQpiql4xAtpg3etpClI+fC1ascvX/Cqq6oRNFIsF6r3fSUTbTGty3KDEod2YbZ8rscLRdIsFAngkIvKPISRTcYtjQ0TWuou6p5aLpJXaakhaDtaLSMkgezHNeo2ZQVQaXRarmohk4ipVhNR6010Cr2d7YwfA+jUvBNnbzUUK7u74pCKBiaw2I1o6LCsVt4homllazjqhHnbelKUzfCfJWVxLU0ihWEZkOdkQiDp7c7vHd0hu9oaEqJLMVUCoYuSY00uxTc/hbRKqYqYmodrALW0mwo4dy5bU5mM3Sv00gHklGk0RqtVrhx9RIn4xOqdE2aVY3kK9CwKEmFiaGUpIra4G211PFMaV7opKU0UsAyXKlLIXSNH3n5n/KtV/6c1ekZCilFrcrj01htF7sGlq4yi2G6Sem0uqhlRFXlVHnR6O91ZSNERqHVtLU2LQsWSYyqm3Q8t4GJ6FKbsuiPOhxsddke7DewWzk/6AtJCDq9bcaLI0xFZ9DvkiQRm3WKqikMe92GMa7WIbl0NTyLzUpKpBXyYbV8jbK0ubzf5b1HZxRZ3oj3dUWjR8svUX/gamdlga95TY0rhEEtMtq+hSF00iJvCEtpBo15kWcxhi7QFLk7CuqyZDTskEQJIi3IJIWWpMZxKOqSsqqxDNGwP9NxG/2nylKSTGl2YMcxmW1iuhc/ilHeZ344JsySRgUMOgOi5ZS2pzcbykBjHMW4joujl1iV3Iqwll5nnlNJuuTI6IOPVmSYjgmagWOaWJKI+Q6+43Lp0jZPP3/AtSd+mNnpHZQffvpZce/slPZwB7vT5+zO99AsmzySOQ2zEZIkPs/k8Qm6WKp8qYzp4oMmiWpQFxmKqWAKA83V0AqtMYZ1acxJaTPXEXJxrBpNij6tEStRUOcyhlE1Na/lt5hOZ00d1/0+dZZSV0WDUkzFIK1y1CqnyApqXUWvcmzHocpNbE0hrBWKIsG1dRTXpVakxAqr1YZO0GWd5c1DUUSNb2qEUkxSdRZpzMHuOfq7W0SzGafjMdevn8PF5HtvvN2USk2W5NJkHK4aI9zWdI7HZ9hqRa3KalA0GRrfdmg7fnOyd0YO5w52uH7pgE+89DFufvRzTE/eRXnxuRfEo6MzdL3m/M1Pcvu7X6YSOm3boZBLVmWUZd7YRef2DvjhH7rJ6++8xZ2HM7IkojYUjBoyUdJyHJK8oGtaTOMM3VCoc7lo0mKSgZkaRYHtXptc99mMxxhei3bXZbOes1mH2KpBtyV1HIHqdgjDnL5rkeRh00Tzoma2Tho2q9s6ZaIhihKv02k0Gc+Su9uhUjQcw+J0PEUzLbb3LjE/PSZJxjiGT3fg8eh4hqZrbI/2yfM5e6MRDx8dc+XKTaQqPjm6zSqKyUuFINhnEs9pmbAz8Llz7xBdEj/NJnBUDJkdKopGjKs1j05Pp+MbPH9lhw9/6uNcfPLDzM4OUba6O2Jrq93IlLXR5R/99I/ztW98i2j8+IPaJmo0RUVTK4adLp/++Id5/8ED3nrvMWZdEZPj+B2izYbtnRGHj46xa0EqD51uNCRHHkZ5zG3TaMqAqEosy0bNa1JV5fJum1IoFKWs6ztk60OGLZtZUrFZFXRbLmUVc2ErYLGuOJ5tyMQHWvlW4GGRcumJjzJJS04evI3f8ZhON+RxTKXqCHS29q4SL+SCL2XxZ3e7z3odExdpg04cGVwKS0pNb7SeOovxHZW4KKmLira3zXEY0jFr6rwkykt8YZGWCbprMWgFTdlyXJvVIqHbsbEsuLDd5tKFy7gtn81mhXL1+g0xcFUW64RFWPLii5/h5OQOswfvEAsp3FuNPJtnNZbtcnVfEqIz5rMQXeLVMuHahfNgaMyWEdhtTu6/j2oYTeNKsxRDsjnVanTji7tDTidnjQaTJTFFLZr/Z/lBsyPU1nVmx++z3e9w9/gRRabjWAaWUdJxHRbrAtezOVksOWj7hLnANQQXn3qJDI3Hb71CpZcNmaHOSSUZEypZrTcimm6qGLX2QcPWYNhV+OKP/gP+8it/jU6Lk+kM3S5RBU1UopTiV63gUrDOdFqBTrkq2Tm/z6MHd2l5HYKuR6vTYj6Z02q1SdMUpUzodzvcuN5hPM1QJNXXDZTz568L6hA/sDk+3DQGar/tcv36dR49eo/j6RJTqRrXJWh18GwTSsEiTEhKWT5E0xhlvOJsPMXs9thMx7R0E93SWccR5/t9qVlxZ7zkyu4245WUf2sWswWG7+NrWiOSPXXtAscnCzyrpDb8plGKJKTWrEZv1hSFbm/EKg45Oz7luXMt/v5hgm47XNy6hKPMuH86Z53EdG0Nw7FY5zWqZpBKqJIX2LbU5T0Su8Ao4PmtmovXP83fvn2LrKwJ4wRDrdHRKCsJI2Xd1znotHjr7JSr3Q5nZ6dYwS5n0QkvXbtEKlbcGzv4ZYrpKkR5hZLXWJZDt282UTdd+goyW3hhuC3cwGvqXywTVgQcXN9mfLaAImpoq1TOsjpp4J1ve3zik19gvpxw/+73iMN144TUmNSyEVIQOAYXt0fcfjxpGo7EwWmdsQ5jdBln0DSqqsJrOdhCw1bg8WbFtWs3uHv7Np5ho9lGQzSybMPFnS5PHAREOUxCg3v3TgkbBKEhIx5qZaKYUnCpKEVN3w+ajTNZLfD9dtOwN3HSGMuuYdLxNVJyep1WE1AV3rARuUIK3NJowHpJhlJm6FUNmodf1UzjEM9VSdZzXhi6vLtU+JEPP8W9d95inHboyFhevGF4/ip6EXP66JgiVxF6hWrqqBLr7+yMJA/jyQsHfO29O+xbLUrXJJrPMG0XRdVI07iBh5ZqIZw2fc/F1UqW6yWLJCLPZWJUY6s7ZLFecnDuGuvJA6g0jJbNJlyTbDYUlUKhKLRcg1VSM3AVLNMmKktaqsHHP/ZD/PlffY2bN5/F6/R557W/p+PbPH3Z46f/2c+i12v++E++yl9+85i08onyFe2OzJC0kEmOaLNmsikaJ0baevJhtZygycYkQiOUUu7Vq6xO7rJWwbN6KJIVSmMZlbhM6aPy5HafKK347sNpw1y77Y60kpiOp2ySnFrXuKBlzCKDtt9BU3PWeYLrOFie3Yh2PdmvEoHT6SOUimRVMYs2KOeHF0VcxgRdh/V0zXDbY7rIOddrN1nDLI4xXZfDkwVlnTPcv9yoh2WYILKCsI5IQoXSLKlKaKsqvjsgjudYpmw2Nqs8o5LoIozZbckYgSBo2xjOByZupRvkizVKYDdROplckpBUUvpBy+K5Gx0+/+lnmvDoq7dXvHo7ZPL4Di1F5ee/4PGN+D/i/q2vcO/BY6xOgNPpMD89RKtTbLXFwe4Ay4e7RycYZtAod11HITZ0lqIksDW2eh1mZcqy1ppI37aEkElKnHwgF0fzMwZGzd15zY6ZU+pDyjpmdnpCy/e5usnco3wAACAASURBVDtoohIUS47WKpe3LpHmObPNhiQNQZRsbwcorU5HSPtJSqGXL19lcnKGI0rWRYlhOqRxSBC0aXXlnwuevzRA87usS58omhBPJyiOx+2772HoRtMEDUWyugzHLEmjClS9yei1HK9JYRmVRm1mPH3jBrPEZvroHvPNFM0z6Q/6TE5nDYrpBD6mrN1qycHAQRQV44VNZaZst23eeXuB6Xkk1ZIsk7E8yXj6tAKDdZIjqghFUajMAE+yYj+n63aY5xa4sG8Jrj37HE9cvMavvvJVZorghtsm0ODV8REir2iHGUa65GL3gMMHM+xKawQ0IfX6dYzT9fmpz3yEw/mGV797C01UuO0tPvKpl9AMjfWjB7zx1juEq4Q4XaJc3t8SUaE1EWSZln3myi5/9877WIrBoN1C90xOZ3MM3aUocgJD5/LTz/Ar/9P/wJe++hpf/c1fo1qMOQ0XTAqLtinxtoOqS4k2b7xEmfPY822WcdoQnDDMWEeiedM/9uIN/uaVd2hvtVFkHygzNpuY3Z2ArqViGwHrPMNS1jx35QJfee0hscTFnT7HJyu6ZtYojZljsz0YNZaddOHTfNmgKOlVSk3o5U//KN/83jc4O1kTW4JPPfMkfzc5Jmn3aDkao3afvWDItxZnMqvKFjW7qsPZ8YSjsxndYsUNP+Ty7nm+N1O4detNLLWFZcB0HoLmEjgCz1Kp2wGf+/xP4/ht/vZv/gCnLLl/5x5CqCg/dPmGmJUx9lpQGXJHQKQqjc10+aDHJhLsDts8OjpivqkQpkGvN2L/yU9hVCHP2PebFO1v/vbfkKtVEwP2govMj241gpQqYtqdAMsxGxKhxhKV2yRkFBLldFvk6w2+328cHl0rWCcCIRTagd/kGaX3Ody+TJYuGHX6tPev8u63v8wnf+TH+es//RLPfepzvPmdr3Jhb8B8teJoHhK0fAbdNlevP0uaL7h9fEJeG+SqwdBMGVsaz+1s8Z4UtnyXXq/HlWDEx7bO8eXbrzFezlnPVnSo2UwWOEnKKHzEWysPzTHRljFUSxaZhmdanO+4zeRIpnX45A//CIFecP/dN3k8iwlXIXm6aZRY5dLWllBMg1Vos92umacSAkaM2j1uXvH43r0N250e9x49avCslEZ0w8J3HeZ5zsAJyDSLs5M77HcH2JbD3uWP8c2//+Nm0kFmSNxm1+skFVSl1B9KtnstHk0T9LpscLUoRRPLkH6nNK51VWfQbnO2ihtML4WqKFyiydpqOOz2HYLWgPdv36Xr98mLmBTRRM8kZZcjMsP9i/zkP/45XKPkD7/0Z0RVRVRXXApSjhUFsXOJ86MdpoHFeb9LWyQcWAqvzdccL2OOZzPUNMFaCOL5mD2/zfv3b1NuSoamTpqvWWUqW50elpITL6cUco3sDp3AIIpCui2fIs2YzPNGXlY+8exVEbQ7PDiMmnELma5KM5l8VdndMhqikSUZ3a6FZ/ss4pTzfY/1MuNovaEtY0mGTzSdolYqhVLjdz2cwOPkaIFu6OTZmpZpNSncSGoaSsUmrVCbVFXBhz72Iq/9/be5sr/bBC03mcBt9Wi1JdFZNOnTdDVFM2RkWWeyqrm018VrBbz2zpuNfn5tv8ed04SyyHA0laDjM9jfZ+vq01zaG/L43dd4eDLlkaZzpWNyyxJ0Rjs8v3uJVTvgxtY2+4OhzBvx17ffZ3l2ijE7w49KDqcz2psVdpbw4GjWeAduldN2ekyiFR3TRKQhmZCQt2xUykSRc0k5alaSktD3/UaxVC5t9YRttch0jfV61QRZpLdBbdDyBNuDLqvljKzIm9opYwQfee5Zxicn3D4aYygVH/2hp/n2t98hB3zLQO908I2Ao6OH9EbDJnv48NEh2x2vUQTbgcskTMjiGkU2GQnWDZMbN5/mjVuv4ZoWpt1t4NR8ccS5UbcZ21C8fqNfvPPguBkRuXx5QJRE3Ll93KS/+ltt0k3WmBWj3T2cQZ91NGEVJzx/4DGOXO6h8sJOn9cseGLQY2d7n4OD83zxyhMMWz0elQX/9tWv8979O4zHZxxEBV6Ws370LkVpEy5SsnhOKiNxmoyTKBTLBYaq43sagdSgFCjyglQKbYkMfxpYxOxcewplrzcU3e0+4TpBJWuyI2VtNSRBjm34tsJe12WdlYSZSpmXfPIzn+X9t241eTmZpt2XydrTDbmRcaPXJtG6jZadzU7ZPv9kM3lw/703EaJEt2RWoyCXg19KTa6o7HQ8Qhl0VGQ0WeA5GnUhmvEWz9bZ6juYekkaCybLitoSXL/2NJ6acXDhPL/3h3+FDKgYvkstXRjP4eZzLxLXgod33iGrFXa2AnqtFo/ytMkRngQBL+y0eO7cBc7vnafX6aI4AfeijNce3OHNe++wPDvCXIYUi5hqOadj99HDsyZ8up6taXnSzksQVY1nafRafkPhpbCWZSlnsxwNhYNRQFWmPJpFKAfbA9EdDijW0qHOP5gQaGwiiNO6yVkMug6O16YoVM5m0yYguTXoMlvMyGTuT8q3ad1MkclstMznJarUUgxM0/sge6jVVKImytMmnFNK66VUsB2NSuS0LaNhq7MwoZbTC5qCKWdl6hLflTmZClEIoiijNery3Is/yV9++Y9RqowqW2E5eqNnTKZLOv0RQavL4dEhjq42Ca7TzYxKzYhVg2DQp+51+OLlKwwHwyalG2s2t7OUw82aUSZYzx7z+PEDTiZjRJRQzFP6QiHbrDCNiuPjiH67RZEqpLlUCSv2tzrNiOT9o1NsS2+m9mRGpeu1WMUpqnSErp87EKWus1onuK5Fz7GaH9ZFTl4pPHH9HLs7Pd58424j2apsmIQpvjdkcnZGkudYntvgXRm2ycKMPJdyrt6MaSi2jdpk9ky8To/V9IRczhHJAL9u0etKUnXaSLu5AkmSNyKZWmWcG7lEYcx0UzbuiRxdFFXOU9fPsVxbjOMlxXpCUogmuDTyNFJRsmyixTaOrTcs89Of+Ah3zk65u1gw6vV5+qDNurXFs7u7aN6AWgZ5TIe/nDzkZL3AzwTdtGB2dsJkOaUrZ4ScFvH0lEujC9x6+1WStRyJLElyOTWhkAuliSPLXGGO3TDkqpQRP0G30+doMqfMKpQf+8LnxP37x4wnp4y2t5ugj2OrnI7ndDybKxcv4bc73H//3UZM8syaRVihqi5lKXFBRVmqjfjeGeiNNnLnbCF9GPpKhea4ZKZPoZo43SEeIdPJjDhJOL81pFTUJvwfNC59zibKG+c/jmP6gcTHLlluNrh9WWzw9YorF6/w9p3H6LrAyGKG+xc4PZwy9GPmqcEqlfNBNi1XpzMwGgIyr6Xt5bI37HDzok9t72G0OxTyZGkBgTD5w9O3EdKtSjMutLeo44LX776Gu8kYGlJenTDqDHj++Q/xO7/x29imzEqWKEpFVqkMfK/ZtA+Oxni2TVHldB2/eZjTJKHOSpRf+JmfEl/7+i1ypfhAuLeGbPsVmmlydOc2pUQeVY2pKdJHoFKkLt4mzwyKctMI9ZVwmnTUdlvgt7ocL1botYols3VZSdAfgaY2+RTPVEiyshk9CTynsd4y1cAQBvPlWTOP02S6dTm1/EHHl7JmXtUkFAzUlETvc/nmC7z2zb9GKxX2djps1jWKkbIMS2q9wjY8zg119to5kzIgos1cT9hqdRnt7PLs9Q9xEk5J1Yx1UhKGCY/CuGHIe4pg3xrQ6+2y3Jxy5+57jB8/ZD8wOT7J+NSnPsLr33m9+TxJbTTDu+vVCed3t1gnNfPZAtvQWWcxtuI0QKPd8RifnKK8/MJN8dbxohnTkEHIwc4ueqXy8uc+w5/9zm9gtgOyrKRl20wmC4YXn0DEC3b39nh0732mswmV5gMJalU1MNAxmjg2DdcU4LpBMxMkd73aNJQSU2rlRY2paximSVWraMIBzSYLH2LpJstNSNXkBT8wsJ/80Iuc3r7FeJEw2N5ldnTUZPtk6EbGrIPAJkrjBk3Jz3JwMGyO9CIT5IaC0C12BzsEvRajnT3CNKNUMhbzEFEsm/HyjZKh5xVuoeJ7IzRF0C3vcjLJmM8yAizuRDOGttWM49w7i+jaLuRLfM9qItqKnBGSAX6pQxleo1bqkvG6Ocqzl2+ItAybRulbClGW4lrbvPzZF/mrv/iLZsphuk4ah742Ayz3PMX6IcOuyXi+QM6OdYZt7j6SR9yi3TIpwohCjt9ZFklRNcqdPDG7u9sk0oWR98hVeZM1TNKI/dElbtx4jtff+DYnZwt0ZJY7aVKsciNIOl0XBat4yaHM6NUGdR41o+m7u3vN7I4uR7m0nKAd0B1scfvOHT7yocvomsarDxZYhoPh29y8sIfjBFh+q4m2zRdzxtMIq1yxVpTG95R8wiiVpln7Wkk8O2UyT4lCQT/QubtMGkNCkfnJSiKumq6lNGk0W3qqmkEpdXghJ0VqlnHSaEmWJlB++X/8l+KvXnmDk1t/0xi1jqZz4cK5xiYTmnRUlkwnE5IoZbR/jSyvWS2OGmblaFaTtdskCmW2ZNTvNT6n3N2qNPlUjZ3z59jf2+H4+LDRnHVD7uYazzGa0jLyWwjXwxUJJ6erpkQt5pIwmU3+OpJyb39AIg3nakWcV0QyM6J0WRbLJkMYLsLGImsyfaokaG4zpj4I9A+m0kwVx+uiDLeaefktV8NzPW5PzqjiiMN13Hiyqm5TxhsCeTuBUHDqlDJJWCVlE9IsYmmCmGxqObDrsrfd4vRkgum5BKZOGFf0Rn2oCp7ck3co5Lx+PySMFDAFdRKjvPjJnxZTiTPHbzRDp1tbHc6P2vT2LvJP/vm/4P/617/Gg/e/w3SxRtN0FBk7EDl1baPWEj1ohNKdl5cGWOIDKt9yWYUpqq7jBgGB77C31Wsm2yarCKkPyLkYRdPQhOwRZTNQOl9vKJKyWeyyyJu5o/l83ki7g9EeiJyl/LucvdRs2raO2umSzuZU8pYKq4WhK6SyaVowOOiiNDsxwTRbRI7ObmcLS7FJHJ/lMiGc3ifMLEw5gBsmqFrMEzt7TY+5e/dRI7gNdy+ymN4njeTlCCqaIVAyD03LGbZtLl3c45mrW/z673y9uV1DVy2evdxhuUo5mspT18LrGw1BUgajoRgGDpVmNsmoc8Mui3mGNegSdC4ThodsTg+lX8tLH38BRXP49iuvslxNUDUZbZOLLBfPZHtkM13mJFXZpJ7kQlea3uyq8xf2m7IlLzqQrFWyUllmJFVPVhHSuVtusqbZzE7PsDStmSZeRQmb1ZonbjyJo+tMHp7wxPPP8Mo3vsYiC3nh5gvce/wue57B22cZjiuv+2ixjpcI2UyKAkOGgLw2F3pdcsvCVhLmuY/h7/D2/Vt4RYhaFYQCAsvjYx/5YQZ+n/vf/TL37j5gmhbNRvrMZz/Pl/7iyzx581nefuUVbl5wuTcpSZSaOlM+MEOqmGQj0GoZUSpRKgm3PT7zxZ/hwe3voly9dEmcG4x4dHpImht4toWqZSxjCebBc9okUdhM1AZNozDZP7dNklVMZmuWyxCh1Bxs9zlcrDBUwaDTIy1Ker02q/AD5mdKHdOSlN1Fdyy8wKPX9lgsEvJ4RbqJm8sIptN5E96Rd49USdr4paUkPJuouVxhEmaMLINxVOH0B6ibEz77yRuc/9R/ypd++zc4Pn6Hy/stdgct7jyq8A0Z5k9w7C616pOpJfMsb8JE21abuJjjtPc4nL9Hz+w2qOoTn/g8imHzla/8GcvVoukXmgQOvoUzHHL24GHj68qJDRniHwxG7O7sc/b4jBee6RIXBV/5+1M8VQp1ct64z9MvfpHv3vpTlI+++KKYj884f+45ti4+z9e/8utk8QJRWw2T6o98xpMFnmHg+C6LTcRssabj2qzTlI68YECTDFSOdstYm4HlGCi6juqYOI6HMORYXhvDcTEdnW5vSOC2GGchP/vcRb70zVvNTFAUFyzGE0RZsDPosdXu8tr33mATRVy+8Qzj41Nm48cyx4UQFu32iGJxr6H0n3nuHF9+5U4TpjRUaRp/MCroy13jCgzLQ5FoSEkZOV3OwgV5BnWlcvWJ53jzla82KayOYWDrCrXbJoxqiiptJIYqDTFEjBaYJKGNoS5J65q24mJ4bVabDarpUImEPEuwFJ2WqVGpppz5aEyYvQv7KBf2D4TXlulReZ1FRZ0uuNpKeHsqJ8ZMet0+53d3GvtMaAa3H9yjqIsm7iajx8tN3HTzfq9LuF7QbbeJq4qd3V2OxxN0x8byXaxWi86gz2BrgNMOUJwWpQZluCZIUu7du8NiFpKHKRpqEyeTzWd2dobh9JpM4UHP4WgRM5tuMJUE2+/iqhqjg8vMVmccHS7Y7Zmc7wccL+JmgwT9Hcp42ZCf0jTRkryZwrj21A9x6803KdMIxbCI8pw8liH6glpKwJrFxYtXmnD+6aN7aPW6ca/2nn+Wb3/5q/S6WvPARp0h09WK2jYZtFqkq3Fz94vsdzKL0ZE6UZFRRymV1Uf53GdfFm+//V6TEXzhxiXeeOc2WlkjzepaU+jKhyHjZn4HUaqEyaK5luP+vcecnRySJWviquTahWu8/+A92p5PWNWN+eq1PWxH7gAXs9MiGPQYyFHuvX0u7+yj+l2+fucWxuSMzSxmcf8u88UKrSob+h+uQ+qqJs+rxg1XapA3oJR53pQZOdyKmtAPBszXEq9ruIGcNE4JmmCOzZUrl+hYTnNTRODr3Ls7bu4UOH18hO1LQcdmsVk1NwChOyh5hWOouI7ZnGBHNbh8aZvo/2fpPYPsSvPzvt85N+ecQ+cG0MgYYIBBmLAzm2Z3dnaXG8klKVJkUbJKpE1WiZY/WKWS/MEmVVa5irYoyRZpUSWSIrnewN3lTs4YZDTQaHSjc7jdN+d7zrnpuN4XnI9TqE73hPf//J/n9zTaNLUR9UaToVhK9HRywSCu+CS1g03pf7HbHQz1FlGPSwaMG70uV8+Kv8shnXqDQCKPkstkzcHQxOVzcenCeW68/6G09Iqch+pwkUoGqDYaMsU21Hq4PS7OPfMixWIZdayzV9rH6vZR2j+Q5nevX2TaFHKpKE7hyBK/iMuJJxImkYgzkZtgZmKKmXgSAnE+XV7k7uMlLuem+P5Pf0yvXGak9yQMQfgIDaFP9AcY7bZ0cvmcdtrtDrWWIEVYcLnB6w09TREPhrh9AWnTEDyrgFMcTRWGwleumqijMVviCKk6aHQreK0KdUF+UgfyveIOhjHqVRktGQ5NqVz6fc6nPhe3T7pvDxsac5EAy5UDsuEUp1/8Ajff+m+oDi9ORwir1sAqsqYDVfp2BNTA63MzGOuEI0mUUDBsOp1C/nSQDRgcNFWUkYLD6ZPPYPuoKpMP1bZFKmDjscBjKJI/InKuiViCmqZQPnyC3eUkngzLY96pI1PUNJGt7GH3+vBHQmTTKabykyTiCZxON1vtpjRJPn58g4Si8MHDxwy6PYxOS96OLquFnY116d0W3nSby0a/N5DTpzcS52B3m1DQQSAyQavaIBp20BnbSEeiMrDbPlyXbi/BfRmNxMapLwW2ZqMnzU71eo+x2HCh4wu7iAcz2LQOs3NZ6o0W28WWXGhobTEYitCrgRKOY+8MaHVbhIMecDpwjwbyrB7zWpiMOel0+1T6CpWGeP4PyWVSVFp1Ij4HSjiWMS+/8BL15RuU6zXahoWg10s0lpdLUK10X9oi9usW+iMTm1UodiaTExMclA85d+IKRb1Ptbgs0wLiWd7VOkxMTctEWKtTw+73kkhnSCYShIIhqdmIZ2bT6FAuNclZqixtNkFxMZmf4Mb7b+EVgdlune2NNemydTqdzE3lGDt8PLx3j2g0y/b6Il/84gs8fLxNrVzk7FyM5fUqsXgWj9NHq1Gkr4zkXdnu9uhofcJ+jwjOc/K5q3z04UcMemMCDghlkvL0MZ2OcGLhBFXhpG22KFZqWIYa7eEYny/I0OpgZ3UNl9MudwbiLO4WBnynj4DPhojvlCp1utoYbaQw1Ef4fR4GnRbRmBclGcqaL33xS1Q3b7Jx0KGl1Qi6Q2C3EfSGaJZ2CIWcDAxFegeFbTmRmsIfUCkcFkiFkxw06sSiflCF3nKIx+simkzJD0VQKcTtms6lCQTCMiEgzum1Zp18KMjdlTXmAlYsriRrO/tMZCf49IO3mMzP0eq0uHXruvSs2xSFl648T0Ufc/P6B7QbbdwOk0tXXqZe3kcXitzmI4y+yF06iYcTkiQh3FJer49eW2yzRgR8DgKmTjBxjOXtNfzpk1S2lpjNhigeVlBMk5FhYnVaUF02KpU6AbcHu2XIUHEzUkyM0ZhqrS6pFKGgl0wsRr1Rk+EDw7RK/47d6sJUrWiCWTAay/eh3z1GuXL2BXOvsIXHY0UXHmujzeyRU2zvrKGYFprNgQSy+AT+SMzsNgcuX5yg15T7RvEmm8tkWN3cxxUKycTC/EyOQrMrKW7JTFaCXhKJMA6XU+4MhZF/fX8Xn9XFXrVM2Osm6fWzurmF3unImIgQrEzh7bN5RFyGyu4GE/lj8kM42N+RSQafWJKIN6dlQG5mgc1HizjcDhk5D7gcUsqtif1IIES72pDbdXF4aLbqjDoiNGMjdewoW8ur2K0abocVUxFGqC4ejwXTHJFOTtAf9Bl29qRtrlgXkoeCprdwWNwoZp/85BT9Tkfa/jSRlR6KJJ0Lc2iVgINez0bg2Cy2vV2US2dfMiulTUJBN2Obje29A2KRNPVGWXqxHQ4fbreJZdSXoILe4KnA5XU45ARpG/bxhjMUqwVJeMgkYljtVklxiGYmiKezqOMRgYAPUz5Lh2htjVK9hNPjQdfqpEKT7Oyu4bM6CfmdPFjZkAtYE+HQissPXm+XZThJRNJ14foS1CG3SrknxCYxCY7QBmO8Qb8IYWP2dVyOMWNHiGg8zmHxQKI5hsOnV+FUwsbhoS5VSGPQwua043KK4GuErphuex25VI+GktLeXDxc58yZk6ysFdCaPWlvE3e03aOQz5wkFPLxZOkTBhafvMgGZp9CYV+GrYQK6UtOYzaKKOlY3FSHDmZzPoo9nYamkgrZ2C00cVlFpMSCxWqSDHlkolhXxMBjMNI04mEHysBKNJ+lXCpSaQqPeApfNEGjckAgGiUSi0sx3mYT0fI+zbZQAkWSoUssGqFaqWBTnfKWlOEvVaFea0iEnTiduKwO6Z0QSQmBGEll87hUK2XDSnd3i2A+xfrq46f4JIuDoNcvyUT7xQrGaChhYA6LgyO5MLulGo2mQdANWm/MvhDkAiEsis5hTWcqn2RuZoZbNz8V6RFp6tdEqNWmMBFzU+wotNs6ZnfAhTPwcF2Rlo5wJI3P5WR3fx/THiJ7/AL029Q27+EN2uh1DewOHwM0lGgobj535jR3Hq/hNRvEcrOoWoOOrrFfM6Q1QRjyXXYrDrdVIpM6QoAaqQQFuUwfkMnGKVerdJt9CW1xCJ+GRQRDffI8bhcEG3GZmCbDsSmz+52ujsOhEgtF2N3dJRFPSraKcA2I8JLdYsVqjiXOSIDDdOG2Va1889f+MffvPOH1b3+N//1f/WsSEQXnoMHqgYZdVSWloi7CSxIuZsUtkjmqgtti48KXvskHb/4Ee7dIQVex28RVbcOtIHepdrewakdpVCuEfQ6JgWr0RZRlyOmJAE/2e3IeELJxNGqh2xa0G5EWseEJxuXxbywIpGMTi8dHRCmhjTySN2Mda8wcm0Q5l3zGtIXGHHbb2HSdz704zXpxTH3/gP1WV5pzhAAkLM0uYTsWqDmtzwBVOkOd5phUdMjydpu4T5DSDMaeJGOxzPB7SATd9FQnmqbLc6wuhppeF5fDS6NbZawZ+AN+JidmeSDGePGL24Q720TrtiUSSWQrTZHGYEQ0nKfWbRNPZSnsLUv6RdqvkDnyHFvbB8Jcx7DXoduuyHfFTDJMTeCX2gOCwSyD2j7eQIhy74ChIZS/EPFMnMLOqoyf2F0B3FY7DmWMTbFw9NQ8i0tPqIoQgWmlM9DIpJPslWs4LDq6MHgrcOTEaRK5OW6/+3M0Q8dl9xESlp2gk9l8joUz00QjUZRzC2fMbr9Gt+thpDYIe51Uugbu8fjv3f9gFWsuhw1DYCnE/xeqWkAIPT0ZotWsKqauS/PNjMegaIlgd3nkJy6QRwLoYjWhrWtSVxc8Er/Hx8nZBG9/8lDeEfZ+D1W1EMvMsL/9WK7OhC9EnH0dDrvgxhCI+LDZLJT3GowEBbPbQ1GcRHwCqRSkNdDwO0Sesym5sXpHnLGtqA4n43GXozHBsXVRqO7Ls73F7qEnkLrCvufxEEvFKde6jDo1GVPXFAsewTtsNugONBwOMfVaCAb9dNsDrOJtrtoI52flRShXhwONs2fmGA86rK8V8LhMTh9LcPLZZ/ni176NcurEvFmudOgPFC5dPMnte/cY9Z56nf2BAJVKBYcjILcaQ/HiHOvMzWXZLYtzrSHdogF/kGqjJh8R/mAYq9VGIOAF8+lta5oDWq2WjN2JJIUyFKQeU5ou/U6TzNRJHj+8Q6drSIubx9rHZnXBsCffIUPszKfD7JY1Wh2NQGBEpS7gXw4JLnMJ14CpkIoESWYSbB8eUNjbIx2OMhR/uIFGu6thVzx4g2LJYNBSHaTVKrhCzM4v8MmHn8oIimFacHvdWC0jSZkTFg4RmYm4XezrXSaiWfbbJQKqm55lxCvnZnjjo1WGqpVI0I06aEq7s8tmlwDgbC5GLBjm/MVjfP2XfxUlGU2bQnMYdevMH1ugs7tMR0Tfmj3GikWa8J2q0FDanDySodIbUyz3sAkor6LTGNglislps+B2ByWQRmQ6xYAhSBLig+ppPXrdrsQ8Hz8yz+ZOQWY+RebG4Qvz2nd/k3/3B/8SVR2iDE1JXp5KxyUio1zuYI4sUvwK20TWvsfCZILlzTaz5y9y7703Maxjjs+dIJeN8skHn8iR6fL1JwAAIABJREFUf2AaMvVmdfmkFCvcUAGHV26kFKeG3QzR6JZwjnXMkRWLw864r+ANhCVfMeJ3ytyS0+ln1NmViqlms9Op9ZmenmZ1awePEN8MG4pXJRGNUTTGqN2yfAR6xNcZCTatg2g+zkuXF/A7bCjPnJgyS9U2pjFGV6z82ksL/PCTfQb2sdRQxPguLAdeq7AAG/RGIigbIeSxUC3XcIdjWIQ2YSr8+ne+xx//8b/F5XYxlc+TzxxheXOFanmPYX/EzNHjaN0qg64IcHU4NT3J8nYBvdnGGwiwd1CQdB6/EIWCfg72t3CMBOrWygvf/C6bix9KW5zT7FEpDmipdhlDrzXq8uqMpxOUhHSczBKLJlm5d0cCxXq9EUePTLG2/YiBNiYS9HLk3HkGu+ssbZVJee08KZaI+UMkI266WHjx86/jcPl4/42fo5U36HVbkgrdV+04vA6MypBkVKwbBSDN+tSLLpbgwSTpTFAGDdp1g/njR/jWL36Td69fx68VUKYnJkzVOiaXn+KgWCIaiDJslGWK4PFGgbE65MjMDD67nZUnj/GFYnJ6qjc1qepFk2HqDfHic0lw107xQGZzkokk4XBWwnWNbkOm2SzipBEOc+XKKywuPWJt5T6qOXqa93E4pF+vbwoim1OC2Ef9EbVGQ+ohgkgkYtWCf2hRLIwUhYlcnEqxy8mjSR4sb8vTk008Cv1B6UXc3t8jN5mjWzfwWgYUhUSKi1avw+ULR1lb2pQUulK9idNqJxEO4fZacIQjVOsWRkMLtcqG/NntYwHeEdt3i4S0+0MBZpIqj/db9PURXq8LxqpcxrhcIkwVRe8Z0sI9dGVxiztJa6BMT02ZwmLwD3/3f+QP//UfcOFMisN7txjYbRQ0VY6ygvEa8LiJxkIoipVqpSZZgD6Hg1QswOL2IQllQHH4dHksgL0iLNrsK3KvKe4AvzdA2DKgPXaSW7hIYW+ToVahWSyRjEakS6lWLVMRzq2hLo9xwutis5nycSAsCc8en2Zjr0q3YRBOxzgyk+CDd65z7kwczcxRLBYYDXT6Y5ekcopckbDKCebVkekMmmmnWj5kONQ4fvoZDrZ2sXtstCp1RmMLQ2VMIBhlLKIjDg9DrYPeqTIcKdgtKobRYaB4CXqsxCN2DhotQi4/DqNFIDKkbQbY2TWkHzIQ9DI0nyKtVWtAkuW6AxtKJp0z3Xboqx7p0UbrSHqlqgypG2MpcwpKfjKZpFQo4fMGMFRVeq7PzcVZ2q0wFEDHap2Oy4VqdxANiCREn43KGNMiTjAmFqsX26iN6fQxsHlwKw7OP3uRtUcfM5k7is/v4r/95Z9Jn4k2UGW8WqiMXo+NWu0Ql82FMhjT6YMnkWE4ELkZlW7lAF1RSIfinD9/jo2VRda396RlQ+BIxDLAY9PRBMLU4pI6i95rYgzGTOdTnJpL8clSAb3Rw+UZYbW7qHUUnKEYw1YNtJbcrQ5EZcFYIZLMUKyVicSSzMzNYbQalNbvkwoZtIeCXuqVZOlwMiFdClq7ji+UYNDXiURDKMdOnjH7tTrekPhEFBrlpgQ+tg6LmJaxhATEk3EGukZNZPKDQWlHCwXcMn+YyU3Ixe2TtQ0cdjfhgPOptazxlMwTC4cpl5sEXE4arQpjZ4yx3pKechFJHPW2uXwkz83NJsN2TQ5WDr9LesntAQHv9bK7sy039vVmBb/DybnPfInrb7+D1dLD7Q0y6g4l9k7YL0SCQ1DXxorI/YsEs4Zv0MWZnuSwWMAcaDQ7mhzNI+4k8akFvKEgh/c/QB906YjQwEhcKDYsIxsW04LVKQYwg3Z/zJc++zxvvPM2mfwRcvNnWL17i7FFl7Ebv8BNKT46zRqqoIEKu4ZIW+tdXDbBLPCiXHvpM2ZlZ0/mcVpdC26xnXHaaZVroOi4Q2FiiRjlzU00vSetbxZlQC4TZ6/ckwSd+ZMnWV9alBl9AXoXDoCRIU4JTvIzRwkns+ysrUpol7jC1ZFOtzvEFJCC/ojPfeYEtx4XKR3syqt6YnqeUeNQdkFYVKd8LOmjjnw5hi0m9mCCYqFDImzSHtlwDHU6phP7oC2NR25xNyh2Fp69RMdo8OjuIqcvP8/m6j26AkktkglBHwG3mBMCjB1OjP1lXC4FfWSj3ha/50Bq6kJsEyu4sdFhNB4xP5Fhb68o/15a3yNNo8FcDK/NSk0gqjQhQfRRrCJKqeDyRNEFk0BUEzhdKM9fetbUWz12aiVCnjALx07Sqtck9aYv8plOF05vgH5LMLuF+qXQ11vylhXkebGFF7eLy+rEEFQJm2QyS5xdKJlh5shptK7B7s4TCf+aP3eJ+tYq27sFuS4TZ0UxuTl9XpYfPcTnDhCMZmiWt+VWX+TffdaRpG7qVp/cm4bdI9pVhWzKz06xjKGozEzm8VsdPFpflTlQly9KZuaoJBAtPV5jZmoaiznkYHtDLkUmQ0GOnVng7bc+lgnnsB+aAm7pdHHQEJxy8+mLUMTeha5tCLKQQL46CMSzHOzvS8RTMujEF/YRDiZZWV+j3tVQBA5Q9GPYFDm9dnsGyZl5SltPUE6ffMaMoLFXa+KLBfj2L/w6Dx/eZ+nOTRpdYb9VUexOuX0WZRhCjA8HnZTrTXRtjMXqlAF/j0OoFgr6GHyqjuLwEk7PoJoqzcKuwBtIvF5mYobqwQ5Guy9rVhYuX2H51k0sDh/dRpGAPyTDV0LwEptus9/HPjZwBVz0BP+vo+O0iRySIsUtm91NTe/Jc3PY66JaOZQOA5EDkj53cfWOVFwi7OW1o7UaVGo1EvYRntwsmzu7OG02/JYBjWYXi1VsjcBrEXB5iwQziNoZiYFSBU/Bw1QmjsMXk5H4ly4JPf1jIqlZ3n7zEQ0heA11jE6fkeQ0aoQCEXwRL082d1EWjiyYSquJKfhSyoDPXX2JO4/3aNX3GIxH+NwutkpNkrk5LKZB+7CAy2WXA05/5CTidckPZSQQmaaT+dPnWfroLTw+B6o9KG8nqzImKFiArRaugcZ0xsmTtYrYAKNG89QPCwxGPeFmEEtRmTESXQyFaksSMoWukYoLJ5NByxhwdi7Ig822fK6KoFJ74CAS8zGsbuJWTXoDixTbhEFfGDtFfl4ZiSiNIa0ac7kcXRxsbe5Iwqi4y8SCYyRynlaRU3JIpPfRI3O0Wz1oHEoPTLmrMlAtRAYHDBxhifV74fwZ9pc/xBfNc3vpkPkTp8EfYv3hA1qHBbAOBKqevlGhMxAIpnzWHOg60XiCRrnCb/7GL/OjH/+UZqWDLvz8Voeo1yHuDVFvdmSsWZAKzkyalDUb9W4fw3TKW9eu2InEI+xt70gajwAjiqsqEk/Kf7NT2CVo6RL2higJt1WvRccmlsIDmY8J+qzsVwZYnC7cbjulcpF4MCzVOEGDEG7Xnt5FEPn26qo8tQjHgJg8nxzWGAjhy2OXhv5Rt4rDFSAYikn2Sql6SE8XEGGTfCRBSReeGYNOsYJDUCo6ApuqEvQ5cfui8uKIhp5Cx2i2sYf9cuXXNZ1Me1wcVuroLgvPzEyyt30g76TGYEw+Nydxe6NBg3K5itZq8czJKW4urSCSJsrsRN60KA75tj99NMf95U2JBRXktZYoHDJFSkVhKp+SG+jNnT1Gqo2EbUhTtWEfD2SMQ1iVR6aNgMuPyKu0OiXsDjdh0c/gFPzCPs2OuKrFfy555TrtBsFEluzUHNffeRdT1TCGCjbFTsgvcB5i1SUwdCKvrjDQGpT29rEqTjkAhd0m2WPPsre7SqXTx2205F0TTKYkMX9rZw+LsDzY/fQHQ6rtKtNBu8S2orj50lde5PbyHlp9i8NaRxp2wgE3zmgSrdamVT94CrqxPqU6C4COx+PFp9ppD3XauvjaKi1jLOcFx9guueNuUe4zAFckQr1VwWciLzDR4qJcOXna7A0M8vks+1vblKo9aXXQzAHmcEjAK7DMFrYO63LE7g9Fg9OYoyk/B7U2IbefcSyJrV+nethjoAqeoZtqsyHXTyJw5BS1AHYLiipIPVbUoSJ1BSFxxrwjVFuE3cN1ZnJpwSvjxPEMTyoKkXSGx3c+kiEvgZ3WOw1mImlJui8dltk3ykRC01TaDc6cOU9x5R7acCjh7gK2K/TssabjD7rp9g1J0LeIYgvTwCb4hJkpRmM7o3aJmt6WJxIBmve6Q9J4qfe7jEzxLIfp6TTbe7uYQtJ1Cr56D6dlJHOmAsCmCVcTutyfqg6/RA6eeu4a/b6Gpo94sPgxLjExLxybN102D3NHZ3jr5x9Je0Q2bKXY7tLWRDTOTcTrweUWvg5Fpm3bmjDLiDe5nbDbQkXUtqgqiYAN3ZXny7/4S7gsNh4v3Wf57i2pb09k05y99jztVpmgTWGvrvDp7RWMjTuce+kab/7tzzGdKsbQhn8MPVnVMpaGoPPPv8LkRJphcwd94GL1/h0alSamXVAxPbgxsYciGPVDhlaTWDpJt1iTFofBWERYrLQEqKAnXujiDz6mg8nzR+b54PG+GI9kV9BY/MHCERThKdGHkiWu6xphnxPRl9DraowcJi41hmG0sKo2GRQbmn1i0SBHphNsFrrUm1183iDzR06wsb1GfGKC1ScrmH0N5fypU6bwZ4hKlV29LQvbfvXXvse//w9/hNvmYyjh6OKHFmqglbFI5rpExKJHZzyUuoYLO7//b/6A//mf/yumcl6ev/pNCvsr7FeL6LWKLI47cWaBb33vS7Jc6C//4i95/70trK1FDptWvvVihj/805sMnD1cqodBvy2DSudOTBEYq5R1H6+8+gU+/4WX+PEPf8w7jw6xHD6Qusl+vUNvf5Ox6UKzOMAQ4DODQG5KWosre6tYxsJs6gS7n+2DHfp9PwvXrrD50Zs4VC/5rJvawMmVZy/SLD0kN53jxz++JV+0XYGGGo2wDwY4TDfWlIUZ8cixOFhcXCKbTjDQx9TrTRleiM/kCDtdbG8e8Oy5c/iCQd57/wM+87kv0xd3+WRywsQxxGdxS4lVVLeIkH6pNyTq8bBXb0voYzoexu33URS0Catw9vdp6wKc6MWXz/Lg4YoEkk1kfQx0L7mJI5iNTQY+O/Vql6+8+hW+9s0vyWTZD//6B7z1zkeUNw7oqk6uPneSH7z5I9wWP+eOT6F26+jNQzbbAXTNICFii6EYDpuTWqdBSReE6n3ZxaPbdQK2MBa3k+/+o/8B/fCQH/zsZ1j7VQmrqRVKUkyzW4Rxc0BTb5MLhijoToYCLJaZpri9KoujAoEk06kUOxtrqL4A6nBAu1vDLUJhI00CZmr9Id/5zAI/v7PHSdnokuLm3dsE4zGpwbsE9tvvkC/sRl3HLY6ZnT4Wl44zFEX5+rf/oXnn47c5kolx6dkL3DswuP/p+4ghzDYWBUQ+eoYmvdxdEcMWz2HTStCjMHHkGJsrKww7NYp9g5gg6/QGHD8xiSc+w97jB4gTkHhxTcxkmJrIEg1F5Cbn/uIylYYhh5/5C8/R3t3g0f1Vhk6LDLmKyU5s5l02v/TsGWJpITL0ovHKaqXeFKO2yZc+c47HWzsEgxOoFgeJ/DTbjx+xt3off0Ak41T6AhxvdBn2hK6ikJhJsr15SCKUZG9nXZKbPV4ndrubXkv0TRiMTQVd1CioI+IRH153gHgszscPl3EJ63IyRa+0RTAZQFdiNAsHEjklpmebZYzbaZdh34UzZ1laPpRyh9lsoSzMTJiV1oBnT83TNMa8/PI3+OGP/ivzx09R2niMvV9nsyrYJ3ZGvTZWnwenJ8yx+RnW1nZxB9yUlldpWQcsROIsH5SITWQJZ2epbi7Ra9Xlre92+XGrqpRxB92BFKiC0SB3H9zD7/XRt4extA5RgkkG7UMZwLI6/SSyORzmgFqlQrHckapiIiyWBSrVVh1X1EfQYuOVV7/D+2+9izZoSD2m1u3htA6JpGclXqNc2MHrNIkn8tQae9SLdUkgFctuoYgK7USQLUbYZMDKYXFSa/Tki1MVRmxV4dhciu2tBq3OgHjYjdKvUddN6Z0UCG5R7bj+aJN0Nk16OsfW9jr7+4cMRw6cHh+a+L1+59d+yVx89JjNQlnG9eKhHE5ZwVInmQixuPhYxgXdorZFwnIV2e5x+epnWF/bxBOKcuPDNyW8wOoTyGcrvVaH4XAkrxphX65USwRiSSn+t4sFbFYRIYdAKkWrUcYYimYpN2lvj52WRwa4BHR9JMjEvQ6BSBxTscn8jcUutk8aHjHXigTGaIRpg6lEgifrewQ9Kh1dOM9cHD15kZ7qZXvjIc3CHh6rKp24+rgteeaCxK/oHSziahzamJidYf7UAvtba+zuiMWIKAPpo5hiie6Wd9RUMsGTJ49JxyOSsmyzeRjbXEQSORLJMNX1ZQzTxXPPv8T+3g637t/DLeaCkYYmvtaZC1fM8xNJ3vv0OuORm8mFk5wVb+9338LURXPrgKZAK7mdgj+Afajji0R4/pWv8+jhIw6qezTW1ghP5qnWi1z5zOvc+PB9ejVBiLPQHYvHxoBUfpqRMaJ4WJRsknG/zzOXnuG9d95Ew0k+I0pCy7IdKxpLUa02cQjbgwOCuWP0DAvN6g661mI8MmkbQ7LhAC6/h8Jhg7BP4cnOIS5VJKJddIcGTneARFKYmhqMOhohEdId6mh6RYZWA96IjPMFElECrhCq38P555+Xduif/vAn9OsNGaqyWi1YvG5ajRajbgdNE8rfgGzSz05pKBfvHn+Iekt0GlllWFaYhMJ+4aEUg6IqLxZxple+/o1fNDeX9qi0trDbvFisY8KBDLXSHqp1JAFjwgIsfdpGj4jXgTcUoNUTV2kHf3pe1iMa6lgiSwPhKMlUnk67RktYC9QhTo+oMujLZ2S9N5BNKSIJMaiX6GuiMlHEM0dEXDFazZq0NWuWuMzhtw/3GSguecQTXBVRSTAQuUt/mKCpUz4sy0eVNeqWjw5lMGKkuuT+VMwAou9tZm6WkdXDsckplvb32X98Q3JbHE4vEVHM2qrx2ZdfYq9UJZiaxFQMPn7nfcadHk51LHNM7UEL4XLx++xUW03yQaf0Sh4K7nqjis8VBpcdZzAqPYXtcpHx6Gm9mSakBWUouVvK5z/3TVNE37q9Ip12m1gqzUuf/RL33/1bqs2mJD/kxAnFOWZ7vw4OF5MpP3qvJp1IopchnwgxFKP3UMU9FkYeTXatibd1afOebCZ8tNWVLqh+t4fD45NLZbXfJ3/6IusPrxPIRwmoIRrlEk5fgN7QTiYdkGfs/f0SvWFfAnlFuvnKlcssre+y/+SJjAcenZuSDi3FrrL46UfS+qCOVenZHg7aHF04gmr3kg7GebS1Qf1wlUa9zcgVIxsN060UJIhYxNiD3gHJeJCOYWNjqyElaYv16dGwb4xIpaKyfjfsGKPpXsYeK0a7htMe48Qzx4nnJlhd3aa8u02zXiIjrMol8fOPyU1lUI7PnjCbWh+LZ0xflGAEE7x09WUe3ftI9uykk1EmM1nKhQ32qjoD1UFEaeFWO/iSczzYrjE5mSEczfD4yTbxSJ69rXtEolnmZifZ3ryPOhixW2rL/ah7DCPZmzYmJAAI8wsUV+/h9orVVYD8sRnG7SL3nxTl9/b7gjzZ3JEJDcMwiId8XLv6AmvbBSYyCd745C6Xrz7H6s3rZKenWbz9qdRRevoIi82Ly6nQ0DRiiQyxaJ61B7dJxBwclnVGY2FtEHqVlUZXJM7aTCXGUgPCEWfsDFOstVAFurqjUeoIliPSEzmRiLC7WWIU8GEfCQuJhTMXz5LMZli8/5BepYjeqBKOhzmotsjNzZNPJVBm01mzPTRJT2QlvtoqntehKOWCwJmaZLNRmV15uLKDw+WVSp5/KKRWlVQ6yvpeBcWiEI8J6FeDQDBMpVGUQEkB7lXsY7maCmVzEmQeC8aI2Xa4ud6TTlmRlhPu2a4uSkkTnLpwkV5hnWrbkDaJZqMlSXGBUES2ojgcT4+j5bpGKp2nWG+SzSd4469/TEBAvrxWyoUiit1FLp/H0AWmTzSZD/DG0uh7a1I1LNUMYvE4ar/KWJRG9wSE3Uok4KTVbov6I+K5NBeff5Hd7W0e33tAS28w1kTqwkk0HiKUm2J7c5tmqYzX48MtgmNDQ8q6gqChazoWl0vqT5+7dIK15TWUieyUKfp1vD5hVBe9axa6gnognFACc+r2EQn4pI+k19E489xlOTYbfYVkboKl27dp6zUSATeV7lDqC06XU1LzI/EMrpCH/a0dctNHZB+CMG567BXWd2qcvXCC2fln+av/70fYh00ZhD1/+RrZXJ5HT1Y52FyX7bACriDAL9FYnG6rxsBiRzFFFBtMwbaKRFhdXMLvELtTG2XDwDYa4fe4RH5MdhaLjE7f7cUmzuP9Hv6wn2TuBLtLd/HFgtIW1yqV8Aq+lkOYNBX8wTinL31GVgD3avvUi2UqlSbxqBtPdALLuMbuVlFS9DvdobTsSQiEz487EMbr8+IPxnj40ftYRkIM64gFxBXzoCTgBj1iTmj0hflRsL49Mg8v9nsOKQaJUFmf2ZPnJO3s+OnzkiLcL66zvP0IARmyh4PYNJ3JmbzkrWxs7OMP+SVDJJbNy+SEz59gd38LrVUlEk0wmZ2n57KzfeMGpsUkPzfBa699DdWu8oO//hv570wpeI2wu4VrQHTGj9CUEcXVJQZ9BWsoi4c6lZIALdhkBn8+FZAG0pomGC512tUqIX9CMrt8QR+RqXlqu6u4Bk1GnrTc6kxOxKnt7GEPxbA6bZS316VbKzAxwUhUlu0L1NOQr37nN7i+/oTxww9p6RbSSS/7tT6RaJJQKs3mxiZC8QpGEqSzeVY+fY+B6eDiqy+hzE09Yw4VYQQSDSYNLIoIx/o4fv4Czd11yfUWcTuraMmuiP5Im6x/eebZqxQ3RWrNz/3HK5Ikb6oWybWqNsVRChmoEkONOJIFoyE0ReXU2XNEEgk2716n19akz7BmDDl67gqljS36RpMrJ0LgTPNwbYdes0UsESIjfumR4PXqbC9tUKvs0NXa1Ls25heO41db3Fzckqsxh6i+8do4evIUlU6PzeVF7IMh3aEoR7Uhiu1PXHoZf2WTe0tLqO4ok1MpMukUN9+/zkgAcqw2TKOLJjjoHh+qUyUaTkB1g6vf/h0+/uhNUkqLvUIHf8BOpTXizIXzZLJZ3n3j72QtmsMVIpHyUBvYOHfuLF2ji/Kbv/rfme9+8HcoAxObV2WvWCcXDRPxhTg8KGAKndfqksebjqBi9fqogz4hv6DOt5nITaPXm2wKrViEYgVP1uKU7KwT58/KK2lQfsL6vU/ojLzEk1McnU7L7X5J0yg82ZaYI1tAeMp17KId0DvGGkwxEpl2m5dz509x6bmzxCNBFh8u8cFbH7LzZJOuYUUXrVGmSSCeol+vydlBRhVdLhlBFLFUu8NB2xCe857kmTitFl79ytf55K0PSE6KU0SNTrfMzOwJbG4vK3dvozodYuaUBXYXPvcKd24/JD83ycHju/gDCXY2Vjjz3DUi8TifvPETrDaBm/IScphYHU4svhTxeJJWZZ+hiCNbhAiooBybnjSFB8Th8JKZn2N9aRlDMem1dPp9AQYYSPqkRH+aVnl+FQQzVDuZiB93XCxPnzBz5gLGYY1/8Lu/xf/xL/8n/I4w5UoF02HDbRnJWhVfMsPpSR+f+cKrXHrps/zp//2fuf7RRzQabVKRAHslDdVo0bc6mDp6FK/TSbde5YUXr/L51z5HIOThp3/7Ie+8fZ3drW2sepvddo9Xv/stPvnxj6iL05ZiJ5cJ0Ws2KB9sow9UHKaFF771NR5+fJtaaVuwfVFCHrYPRGIiSNLUaHR1DL2FRaTzbB7UUBh7r4Qp1nh2P+cvf5FLL1/jzb/8d6wvHjAw9hg7vZw5fRanAJQx5uh5sV78kAf31/DGczx36TSxlJ/D3W1KPQ9Bvwvl8xefMRe3SqQSEQZD2DsoMZn1MDIdHDZEMWiUpHCFitiFQC/501jqBzj8VvJHT1DeL/Gbv/Gb/M4/+XVcgQCWoZfZrIe93TLeeJj4xLwcHgRsqz/s4dF7fPlrXyCZm+G9dz9g+eYiNdVF3xzyz37nd/lf/sW/kCN9yOfAGw5y/LlrnJiNEXBZGQ/H0rP+8Xt3pdF0bfEWqk/Y2tI47SOmphcIej28+9Zf0Sof4Lc5ufbFV2VL+Fs//ZBAKkin3sIc2ai2KwRdCn01xMSp0xwsXScc8VEvNzDaAuHk4bmXX6LZarJ09xbpZAyDIa262NHaOXLuNKt37+LxheQqcv7IUcLBCGOHg0cPVmQe6NoLV/jiy6cpNzv8pz/6c9nGosxOzpnPPrPArUcHmI02DbPNlYtXWb6/hMsn0D7CDWuh1+lw5OLzVJttlhdvSYxzLJrh1de/xo///E9QrTrFYpWh4I9nXExlZ2i1BXvXT3nzESG3k25TI57LSEiBQP2LF8vq2hbnX/kWt+98iK3TYjKXQdu5wzjzPOlMiNLepiy8tgnSkBhOxrC420Lv+7FSZGoiRySa4tadG1QLayTzWWrFA1qCneV1YbZajPUBHpfQYEwuffHz3Pn0LpVCCUUdsHDuOA/vPcBrsWE4PUzl0gzaTbmSEw4BQfnURVWlR5COBFje5PTRBIUDjeMLWW7f3ZaFqE6Xn4npvMR6l8oFmtvrEkT5jX/wPUnU+JP/9F/pCHzHy+dPmst7dZnNrFR7HD+aZb9yyFde/SpLDx7TE5UCTjeNWp1Gx8A0RNTawsSRkxw5dowbt66zs7nPdy+7+X/frpCPx0gdv4jS2mPhWApn4gQrS7eoLC/T09qce+0brD1YpVTaZ3YyyerKLhPTWaqtLoFgVj4K9MoGLTzSExJKRrGbKqcvXmR3fZewx0rJsHBYr5PK5sR2lHsPVrArA0mZs/XbRD2KLLVOJ7M4A25uL61TKB7gsblJTczQbBSol4b4/CYVAQn0AAAgAElEQVTHr71G52ANw7TTq5ekG1gIWoKvWNjaxSZqY1wq9oFGfOYswcCA6m6L+JF5whad1b1tWbne2u/g9IoMFNKhpSgDbKJGzRWXHZunL0zxdz+8gTKRyZtijS/ULMMMEfAN5O166ugZnv/yN/iLH/8ttYMnhB1D/L4Qhe0iC2fOyDOyxRXkt37vn/Knf/x/0q1u0h85EOu6c89cxdi7yVe+fhrDe5GtlVWi4yKHxX0+WTewByZwWXq4YhkWHy7jV4dkj5zlxNwUxXYVa6/NysYGRcFt8fux9ssyCFvdL2K0C3SEZpOb5Mm9xxxZOI7L7RfARHqtGvrBLo3yHi6BHRGWNo/YaTvotAd0eh1sfYWJs2dk9FDUVPqmZiksP0Q095y/8BwnnjnJn/zpf5Ex8rlkkJnjZ6h322w8fEwyM4u1V+DopUt873vf5pPbN6RE0O17MTodNleXpTtAcL4E33Budpp2U2dmekJa7hj5UGbzU6YvGJLkG1GCIbYqjmiMkTYkkzslJ05hnDf1Gl1tJPvVnF6LdJh6I0l++5/8Y/63P/wD2UPsVdu0+y583jC2UYuTR9M4o8dIBgace2aWtdVt3vj4AGdkmspwzPNnjvHB3/0E7+SsTEBkQ268oSzZVJT8kRO8+fP32TvYw2IxcI0Nus2mFPkvvPxVPnj754w6ghveIBRI0ehostKs0a5jszmZyEzJTsuDjSUiPifRbJqV1UPpiDW9EdITE1Q2HksiXXo2x+qDh7h9XrLpvCzZFvUHPrcqldF4Ns/uymMm5+doVUs8e+ECv/yrX5Mmobc/WGL54SaRZIz97XWMvqAPOdlcfSIXLWcuvsQrL17hvfc+xuryopw+fs4UFPjs8VPsPbyFLryDNjceu4kvkqB6uE9LFIiKSJ/TLV9mw66BNjKYm5umW+vJl9mod8jkMy/KcOhIq1ErV4l4/agWlZm5JLm4g+FgzKPNNu2ul+5AYaALGFmPay++zOP7t/COmxwadiZnz+Dx+SntPsEeFFDfMFG/leV7i2werPP5177OjY/u0ChvQKvPpVeucP3Dm/gDHunuikWzZGMhtPo2WqdFodKjbSiS1GxnRCyXF1wZ7H4nO2vrJGbOUdq5JzvXIqE4+ZlJ2eNZKjVkCMGmjPG5ArzwC6+zeuNjZiczfPa1zzIcaGxuVei1ekQTCUy7nRs371KrNjjc2ZWgneOnLzBUFRp6TzJ3lV//rf/efOfnbxHKTzMsrHBYa8u2Jat9hD4YEHS5JLZOWCNE1jKbiskq3FqrhzsQwqFpOMKiPCjM5LlrvPfT7xPzOzBHA/wuJ6Y6lhmguZl5+eIpVppomsrh1jrl1hhHLEo+HaPR6NJeWyM6GWHu2DPSTLkjtkeZtKx3F6hTs6uzs/kETyzInY/uwKhJu+/k/OVLHKyvoxlNbAocWzjHlbMZfJY96vUBP3/7vvQLNjWTZrPBkZkUG4trTF04y/6TTRLZI/QVjcOtVdlnEUsmyU1N0ShXpZknFAuRTqZ5+Suv88lPf04+F2XmzHH6nQanTj4j09jBgIft3Qo3byyytn1Aq16i12px5vwFPLEQ7771sVxqKK9+43vm8t2bEuJrs4jTA9hETzAGVq+bRCRHszdiPGjLeEdHCBgWlZRwGAlHVK1GvVfnxPFnWXnwgKHFJBPP4nbqqP02fdOJI5jhwsWr7O/u0Rfb75CblVufSC1dmubbZSZmJlhf2iKUDOP1hum0e3jSGebn4sxOTUr+yKins3X/Nk8qBt3DA+nb6ylWuvUmiekZjFaHcMCL2W1xZi7E1cuzFMsGH3/6kEdrBzJF7XbYaB0eoo/gyhdf5eGdeyj9Kum5o6yt7qK3NNlPn0wmGGgdqlUhvT7tM/rCd36NZqNGYb/AC8+fJZ7ysTB/UmrvBwdFNnZLNFtDisU6aw9usP5kjcjELBNTOTZXV9lfX0XJp9KmKzmP32wxe+xZHi4/YagVZaxPBPj9kSTh9CTKoE199wm1pi75IcdOnpa6d6Vco1Y74ML5K3Lb3THEAhayUa/kVnXHNpnnjIRj0gLdaLdwh4JMBlReef1b/M1f/hizeUBiYoLmQIAWxzQKWzg9fkLpKeamgnzucy+QyU7wxlvvsvVkkwdLZSlADbUSimKQmjnD4zvXSWSPcvbsWSp7y1QLK+RzcdpdXa729gslSpUq4aCPSrkhWShiUdLq68RDTpnF71oF8/tpLU0q8ZTbVSsdyn44gfg+cvo5zl+9wKfvfMDrv/g6ly/P4rYF2N0rs7q9w4NHu3KFJ+Iy+1vrFPaLLJw9w8rSMtNzkyx++DbK3OS0aboS5IMW/KEUG3sltHZZ5mSa5R0sdieOcJKhYUi80GDswDD6BEIuJqcX2Fx9QKvfY0pUBoi4c60pmSqiG1Qsm017UELcPR479DSS2ZzEL0UDHp574SX+7D/+X5I+n0hP44nlCYdFbYAAnwsfuoWQz8oXX32B+dkpfvb2J6xuVVi+tUJPtGkPinK36Ylk6dZKTEX99Mwgdr+VgV6nuH/A0LTSqpRoNOoko34GvRZN3Ua9Z8FrHZM8Oosy0GRxtOp2UO2NMYq7BJwOeqqdXrPN/PwUfU0nkTvC869c4r0f/JRTL1/g9IkpNM2g2xqwtttkrIo0nJV6o01hvyZTyr3KHvXKIeGAX/bOKV/57BVzaElysPEAxe6RipxFMahVavS0DmBHGYsCvKe5dW8ijdHR6JsCBBZnf3+LiVSERNDBrUclwrE01dIeuWyO/LGLrNxbYvZYXoR0GHW7nD62wO52gYfrWzi8dvypFFv3PsHl9ZPNTDF/6iTFcoPZ6ZTcNgk/TDIjzKBjttdX2C7qnJ7OoZoWfvQ3f4VhdKnUBB9LJ5sJ4ozm2VtfIxrwUi0dyuLVnuhBTuZx2/oyNnPuC6+xtPiYvN8l/YaZsIfs/Aluv38DUcrSEo+moJ+rn32B/Y0VetqIZrNJMiYWxWlUyqiuIA63nWcvX+TTD+8TziQ52NmlN7ajjcbMZ5PojTZv/OwNap0q6qgnPeTKlfPnzNDseR6/91M+9+WvcOfOhwwsLi6cv8TK3U8ZDBTMUZ1CQ+gULiJuO1/96ivcufuA+4vrdI02z5yYQ1FtPN4/IOP3UpYsEzd9ewyj1yCfEz/kWKaVL1x+mZ1yneVP35G+u9TRM7QaFUy9gcfh4fxzz6MJOHomLxcAR6az9FULaztFGvUautaTkexGpcTNt96mO+iKoIacXJ3RABbBO9E6+N0+WpUyVmnT8zzNDtUFyW1MbGISZzxH8dFNmZI+eeYkIfuAOzdXqLZ6CN6M0NEnpmZENTW1vpPLr1ylUyjy5PEyk9Nh3DY/PZud515+le//lz8nl09iNfqSxDFWR7T0IUlni7ff+YSDalvSos9cu4aSzebMVDTJ3t4Os7MLtAsrlEw76XCSXnmHoVXUz6ry6CdIZSJYKgDnY1Vl9vxVPn7zZ7L6cSaXp3BwQFiEBjwRYh4HhXafbl/Brwyl7SEZjjNMzNAslplbmGb79nVaDj/PLKRZv7+MK5nhlRkvz3/1S1z/6FMO7JNcunAWgYhaXN1m8dYd1F6LTC7Ghx9/gt4o4YrM8J3Xvsx/+M//jxSqLL2KpPqH/FGZaN44bEj1UNBCRUWMVxEJMp2+N0a902BufpqT515k2Cpw450PaSpNyTKPxFIIn7aujXj9a69jjNo8uHOTg11RqteWTVqzZy7QLBVk/WOj2cNjMYk6RrQ0FV30awZsbKyv0y035Y6g3GqhnD1ywhS+b23U5vTcNHcflrA5RL2scM8OCMcTuL1RFKtKvVyi1mo95bJabTKLKTrOhEnHFxCdaE4Z5wj44ljVvkywNXui9MjLqNPi9NEkWzU7a9ubxCNRGgJr4Qozv3CB3Uc/Iz57Cm+9yJHpKLWeh5LFw8zcJBaXX05xzz17mg/feJeDwhrBU1dYv/4hA9VN0iMAOEF5jDw4LJNL5CUqe/3RPUYCeWb2ZRu3xePF1CycODuP1eWWw87AOWQmlpNdEiKgK8qbYtkMTvNAsrTW97rMz0/QH5qU1/f4p7/32/z193/EvYdLpGNxgtEkdrvC3Pwxtvc2GXc0fKEcnWaVldUHKA4P/liaXmWTZrWFcmxmwex3WtJ7cnIyxOONPeyBqGw08YX8mAJbFBLFno/wCGbsQAebj75bHN3aaNUSHpHOGhvY3CYt1cnZY2fZXH0Ijoh0ow7qO39fYm0ysiv0ejqO0ZDpuQXMUJ652Sme3L1LX/T0pJLMHVvgwaNlNNXBmWNnCFtUDmoFWnsb7OyUcSYmaWChs3yb/GSQoTvJ/uodHPEcC6fOcuPvvk8yHJEYvbaYLMdWuuUqZ7/wKjc+uY2lU5F8Q7EsHuoar1z18sbdEceOTrNVbLG2vk/Abcc5HvPctas82Nji8iuf59P3b5BPu7n76SIuQQzqDxl6Ahh9g1xuVvpWZnKTpBIZVh5+yu7GFs12h4FFFG84Ma1ulHwwbl67Os96bUirOaRQ3COdnKFd25GhqPJ+gUjIQ8Dho92oMDczy+mXPstPfvYTXv2F73L75i1W7i0z6h3w7MuvsXz9fUaqSSKd5/HiY+w2k+GwR3+scO3yabYOG3Q1VXYre3p9rn31NS6ev0Rl0KFQKLBz5wGPlh5w7MJZkgLRsbKMw2Fj9sw57t+4xxe+9jp/8f0fsvr4Fl4Nrr36Ch+8+S4vf+2r/ODP/oSow0kg6qdYrssXuBhAus02I4uFTCZBo9Mgn5ygG5ui9elPZLWvaRdHxDkpWg1EWanbKn3xu4Uqze6Qf/T7v8eNWzdZvH6TiOsp69wVinL0+HE0pw19t8DK1iZOa49cMi0PHoXtLYY9YWYyaQz7xKcu8M//2W+hfPGzr5mb66sMDeGz6OB2eyUG6dqCjb/4oCgrYcRW22n3MB6bjAUe2hvCPtS4dCLC4s4BlaJONDUhczL1g21OnD3F7NwFfvA3fya/qdPjJZ1ISdpEx2jR6Fio1QbYA6b8vr/y27/PsWyQf/u//hH+bIJkMsTizfsoeo/ZZ6+gdRsMmnW65T32ix0+/61vSiDOxq3rTF/6DD7q/Oyn75DyOjHGXYyeQSyVxxtKUtjfolzZwf73IEcBO1vbKWFaPCQcQ06cu8zH7/4Ml92P6QkSy89hNPep7m3InJLD76UjKMA4OHl8hru3HuL2Cjy2n+JhWfJ456eTbOlOmQONu134FIOmoWOqXo4mwhijDr/yK79Ep9xAef3bv2HeuP720yLpoQhJD0lHg0TDPrYLTYZ9naGELJp4xbFmZEhj+rGJCMtbZSKioqXR4tSzV1j++OfSIjDEjTOQxj7q0zA6TGZSjLQehQPRogNOr4d620I0EKY96nLl+ZfZWVzEHXJx5Rd+Cb075PbHb8k+y9zRo4ybNcqFEtsb69Lz6InP4Wi15Pnfn56ksbMsH1WpUEIun/fX17B5XIQTCSrViizuCPp82OkxeewKtWIVS/+A/7+lN4+x7Dzz855z7j3nLufua92qW/vS1Qubze4mm4tISqL20cjSjC17JuMY4/ESJ8EYQf4YA0ECJE5gGAhiwImdTBY4iYWxNJE8I81oqHU4lMS9uXSzl+ru6lpv3X3fl3PPCd6PJsA/CAKN6qq653zf+/5+zzOxhSVuslcb8eTVcxT2jwilshjhIAe3buK6BoFkXMK8dFptVeKSSszG5pI6Nb340qc5O9gjkUjSdr2KjJ+LxSgfHtIfz3j+C59lXDmhXCizGA8RzK2jffM3f8t95/0PVH5jJZxipOssLcTozRzODg5VxlpAkXIBEn6hmPSWMgkiVgRnMuHeo/tce+o6v3z7XRzvkKTHQjMEI2qTiC8QjkSZ9ptqAjey5wKFY2HlHMNKk4WlKK2JwX/+j36Pf/utb5PPpokEJTUSo3pwl1KxTGrnkjqandy/q9iBEndLR6Pq2Hd4esy87+CPpLFyMXL5BR58cJPucIaVyDKb95n3+/gNWX40yEeFHeBh8drnmZ++zeMHR1iBLG1ZOJhh/Mk4XtfF6TVZ3LmgauOzRl3BcSTKJ9T8Vr9LMhGlW60TDme4/uVf5/33fkW7UmF987xadpcKB1RPDxCvjBlfwmZKJptWjxftxnOfcpu1qiKebSxkufTC8zSadY7uPaDV7Sm6muM3FI1TJEELK1u40wFPXjjHpasv8P/+4f9OKJXk4f5jkjGD5YUNjotHYETJLK7SKR0z7LWU80HWNQlheLsSUm+SCHgIxHPETQ+lnkP+3BWmzTLjxjFBv4YVTqvNvT0ZozlzBprO8kpeddgjvijesEHprIIdjJOc1Ijklzn4+AP1/rAiESrFAkubW8QCUUonx0R8GuV6mV5vyuJimEF9yKdunOOde4/RvCFKlR6BgEcxbsVq6/FZvPLlr6i8+YM7t9HdHrl0llBUSEJeGs0R6bV1ZtiUHx8qfsB4PsN1p+iuTFCb6pTniUb5zOf/GouZINo//Ae/7z68f5uzk8dcPb/NhUtX6PT7vPnRA9XTbBZOlMBTcinSNHb1oPqiREI37Nv0R13VURQeLHaTpfwO9UZJITkWl9YVhaFeKeAVH7BmkIwauN6QokNkQrB3WmN5aYOBYxFdXOPR3Q/xzIY4vTa51S184TCn+w9VOXU6k26mQ2rrIs2jx/gjBjHHYOCLkPJN1fl/WC+xkAgqHeVJo8vCQoLFlR1OCmXK+/skUxb9gUDMNJaycXR9SL0/V3zE04MzNUPxhQRoqalH5875XcqdJo3CEZ1Ggwv5DH/7H/19/pc//A6zURO918aJRKiXpGufVDR8TyTFuDdi3CzhNafE1i+qx9NSVEPLZ1NuWEg+swlfevYq79x5pGqCgcQSnlCU5ukjcrkFSmcFuiLzDAaY2ENl4J5NJyrddHjWRWI3A2eg+FiZ9YtqI7S2KAI7Ac9UGQwGSrIh/x1LZ1hZyPL+O7+iUK2ymM4zmuisnT/H2eP7qssvVtmN80/ieuD+ndsiN1OxYnmW9gZzkjEBxNfJBw0VKxMboe1OCGounVqLWHKJrd0dVvJZ3v3wQwoHj5k4fdI+v3IWb69mSJlV9o4KlNoe6pU2U2Hc+qP4fDE0Qfa7Yy5eukytN+D09EzV2RcCXr7+d77Jj7/7F1ROH6gRg6zURKQsOfBAJIQvmmDYGePYAiqeYGbXKBaOCVg6Wi6ZdOUjKDKNFy6u8aO3PsIXDOK1pYEQJZKIcv7CJQ73bnN0eorhM1hZXWXSaXBaqZJfyig/miYL0ljgEzdmPEurVVGMlexSnkZ7qBazwp11DD/uzOa3/94/4E/++Dv46FIs1Ok7Oj0Z0puOsoyI0FnyI4VSE39ug6Dfp+oic6/D0Pajd9oqWOR358QW0pQODgil43SrJWa2xtb5a2ysZCmcHvHw0QHOoI1phTBmPdYyMb7yhXWe/+pv8uof/Z/86I06ta4oy7zqztEbDmnVO4QCISKJDP6UaBo6qrEnK8Zk2k8yGqV4coYZDisP0HgwIhUOMJkOVE9K6uS+aJzJZK4izKGAhieWlIvPtmt7fMSNII1WlfYMJXHW7DmxeIK5axJPLdNqVpj2SwoPKrTglaTLw9M+BVGtZNZoP3qH8No25sSh2RcrShtHuIHBBNuXrzLr14l5GzRaU7ojOVdf58Gtj9jMZ+l06uCPUSw1iPqkyCQbFrGvzmh2Zzz7xW9QLFY42/uYXD5Do9mhXGyQWMjRLJ5x5bnn+PiDt5RkSXiLptcivbql6oK9dpFuvaEqLMvLG0pmtLmxzsVEk6vXb/D26z/iw0cTDotdNK9BwAwx8RmqBi5mKQEen7v6HJWTh2qKWOoOcCdzrl9c5uMHh3hjWabjPlNvmJjPYNguMxza+Aypnkfp9Xpkl1a5tOHSCjyF9uzVp9xqucHU1hXOs+d4CEhczAyxtbbM4cEBgXBUQc2jAVGGtRTa7vJGQsmEuviUaa9eKLCwtUkqkebh3l2cURcjaOFKu2F9g2a9wlrMZjicctocMnI+GcEKoTAUED6Kj2K7o9AeQoJT/+oe2v0eC2tbNOoNBYOJh01lXBGQmARQ7cmAxfPXOH5wE1Mmm6GQqqJoU0G3Sla9rwDA8s3c2dmhNdGJZvN4Tt4nFZpS7fjRPGOKhR59PYbPsohlUoq75dU0upMxPhm7jroUjvbVCPrqp77EoPyIveMzrn/6azQePGT12jXe/9UbdOsnxKIxzj/9NMdHD+kVi8TjOZbX4zSmMbSNzU132h0r4vG5tSSnDa9qESyurvClL3+No4dvc/f2TWa6l/lY/yTIrmsKfydAG6lUiEdKFszruQUycYfjqrgTBEFtKCGpNA2G4xGWksS5rC9G1Y6xNXMkLEg8FAG/q2wmlWpHVTzEP+H1mlTqZWYzD4Zl4Rc6qEDQfXHS2RWqx3eYDBvM/UkC+ox5OEVY5H3VEvlsnMx/OD0JYs8XimGl0tBu0hoMCHgmTMYDmGikF1N0233FQY8s5FUcWRvIXN9l7DpsXxRc02PqZ4+FgsjKzjrFYl3tPFPrmyRmNuGldbq9Gq12nUHzTAmdOq0eIZ+H3nBGPJMjEPSi5ZMZdzWfodBoYtsennlihwfHNcaOzrPXn6b4eI+Ts33V8jI8AZ56+YscPLjP6f4dZZzyeAxM3Yet9dEmwruaMpkH8eszfH4f7fGccMivLkSxSEydh0MeCXo6dGydC+ee4tzOFt/74fdxphM1xJfQj1gFvd4g81lP8UxkuS2/9fpsRiS1yqde+izOtMAPf/SWIjUk8UIkwXw+w+93eOqpi5SLZe7fP1MyDIlhy0zf47UIxsL47SFnZ48IWlHSiQyn5QaGTxi3ujpNTToddI9DIJJkdWOXw0cPmAw7qpHsDQSYzFyS8Tjx1Q28nX1O6i5+r+wcPErf0OkNaNdOuby9QvGsTsd2yCwtoy1lU27MiqEFQpwUquSSIeHWkQ4nmHks8ptbfPzmz5jgqp1nLJpUIwBHUND5HJnFdV7/6Z8xk4+uLe4dL4auEzeE3JPm4o0XGfU66ocUiVlMmjW6wy6MZ9gBLzH5GGeWaNaP8bkOlvz5oxntbp+xO1ViOzkXt+t9AqEM42mdaxe2KLameIYNrAsv0Xz/NWaDLl1bKFeS6PITtAyV8fb7oliJHMVmC7txiuM4JNY21WUsYbcgs83R3n0lxt7cTpNLBPjw1inzqa1i2kLGF/CvNvcQjkeVh7laqynJUnp9R3Fa/OM2Hsvi5nu38ZnCWEyTXsrROjug12ipy6MQLYQno2UzedeeDpT2ZTHoVwH6TkenL6YOXWNmmzx58SlC7oC7xyec1HqK9v6F51e4fWeflbUNDo8KagEge8L5aKCy4qITkAjY2BMklElDf0KnfoLf0Oj0JzgenbEzIeI3eebSObpmkgcfvY3XQCE3ypW+IjVE/OLC8ai4xF/77d/jz//ouzzzZJif/eQjZhODpy4vME6d471XX8WNJ8mvr9MvndDrNZWzLSCrs4BGeu0c1Uf7jHslRgLdmYEvGKPdrxHQQwrZLS/JYMRHV1IKusO1a1cJRqK8d/MDzLk8GlP0hRxqJdBtl9z5izx8QySqM8UfkBPdymKeemeqsNuWaSsYTqVUZCG3Sr3cREulc27AtTi/5ODxhWh2+8qjkM5kFa4oGE4zniaJBCec313jceGExwf7BES4bHkV6T4YcMGbodepEiSAEXW4tLrM+/fK+MTcF4njBLy0W1VFV5agfE7g7kORrYtWbIZtymNHV96fVqtFKh5Wt9t6s6fYhtF4CK8oAXpDlrKiDygw8sFUUH2yMDBcctu7PCoP8XQOCZg2E1tMWCmy+Tx/83d+g+/9yb+nVqrSOq3y0te+yM+//y2efflL/PzHr7MUNRRSO7y8zFJ+jWbhUF32RJu29fRLVPduUi0W0OYOf/Df/1M++On3uXfaZ/3aM7z2g+9heDwkLINM2I9PVJWOyXgu4+sOthEgn81xWiqiZSVgZ/qJ+Ga4Ek8OiXY2RHIhpJ5hp6dVYskYlj/AWaGm6DySObHFnzw3gAhXLy1TatSYDhwufe4btB69z3w+YSZxy8N98uu7NIcDxtUCQWG4tloEPB5GE3EozJV3TZasnamOqVQIFn5NzrYDhb4bOZ+UU8OmpbxC9UaPoHeqfuuPTpt4o0li/j7PbmTpL9/g6NaHDGtFev2GEvAFzBSeaIZQwKZ4coo7dgivZSjs3yedWCARj1IrnOIPpAlFdHyemeo0WUGT6dxgfescjU6RWWibSeGIZFjHHnTojeSTahANR0htP8G4c6ZWkJ//zDOsZcZ8+0/f5M1bj4lHEniNLLoIvjOZvCuTwIvn17j98BDdG2L5/DnCrWNW0uKKj/PW7QapmElv6NDp9hi6Ok+/8nlObr2DT/MoPJIPjZv7pyRiWZxZRyH6tblOKBX9REY6aqAZQbIbl9QL6/S4zKzbJby2hNup07R1rm2u8/7dR6qqFwt61PFO5hlSVclEo0xmAxZ3L7G4lOH0/gNOZJqp2fzX/+1/x3/zX/6BujA58TCdVgtnNsI/HWFl11hdz2IPp5RPH+IR51yzRSy9oHB6Ac+cJy5f5rhU4+mvfJ3XvvVv0MYDGsMuVjSsPD+Smu1PXJz4KuFwCr3+kJprE2iUiMaidGp9VSoLL6XUNkv0ktp0QuukhCkXHk+AxMY2lhlGyyRz7kuff4X333qLcDRKuSK6wgz6sE1Y0nl+AyeQZD4d0uyIiQSCQts0vaTTUQqVOr2ew6o1Q/clKPZaROR6n4zSETdxMEivXsLrcVl98kWKhRKd6hHnzl3A0myufe13+Pb/9s/R/Ra+yZR2p67YI7FIlOOzGrnlFVIhP2dnJaaah4vPvsjf+ubX+X/+1b+heHAHr5Xi6LRCKmOSTS1x7ZnneOuXr1MWeqg2VswAyzPn5KBAezKhXtLxB1sAABy+SURBVK+ymMtROzklH3OJJn3cPjPpTeaqkri8nOPe3Vtqjag5XnRdU5bwfqPFyy9e4fZHJ5wNHZ7/4he4/YP/W4k8lDPIMikKq1H3sbC0yMC26XXkdp0kv7GlEr5/85tflwbEpiuCoaPmkK9+8z/inZ/9nFLphGjEwtAMHPnYGzozr0YyGsOwRL5hUymesh4LYaSz3Ht0gqjpM9YnYDBpkslkTvwKQXHR6y5jSWHZXnW8FEv3aDxjI50gvXuDj97+CelsXvVCRSkgIIFGrauMIzN3TNiSk5NoXKbq3SLIjH7zmC+8/Fm++8ffA3kpJhPUSgMWFzLEgw7VxoiFpRyxdJL+1GHv7j06jar6WiTFtZBJ8fnnrxGcHvHjX9ylo0XV+EHz+tTLPB6NEPJFKHU6mKEQaZ8A6w11Equ1G6os65tOmEy7avyby6bV8U+Ou6JGMD0OyWwOj5Ulm0zw4ftvK0qdlkym3Zg+RbcymN4584lNczBR+0BpMQVM6dn4SCUXeOG5J1jf2eEv/vI9br3zJqlAmPDykqpitwt76D5Dla4MXUJFyxQLj5SgSKSixUqNhVCQ/niqatRCkYvMLQazMXFR6w5HJBMxrj33Eu/ffIdWq624V1JBrDeaykgStmTWkaZcrhPzmYpJO+xXGU49GAEfXsFzhExSuQzZ3Aqm1+S0cEKjdkK3NcUXCykqxmA84Pwzr1D9+H0urMqmy6XW1SmVzjDCWaZipJ2NFHCsLcQ7DfLLEqVrqeq6uITs0iE7F85RbpSV8nL74mWKjz+m2mhKPwdtphDFitU1Gk8UciQQjqAtZDOuqWkE/FEaMu82PTQGAgawMI0gc7tPMrfKfOpSa1ZVR16u03SHxHJLCtXkmc5wRm0i8ayq7J3fvcLKlau8/qPvE9dsKq0eneGEaCTEqN9XWCTNNNCnXubOEI9y9go6FPSAX81y5IWayq+qy8rju7cI57bwh1PUyicYzLhy4QIP7u6B08eYhSiOG4TNEOlUlMTCAs995hW2t7d57dUfcv/uR1TKHTKLSSoy9fPD5qUXuPfeW4QiATaWsxztP1Itt+TKtjKktOtlnOlQCUZEvvdrX/sGb//VT5T5PJLfoX33Q+amyblrlxX9/85HtxhPuupRG/aHmY5kLj4j4IvQk3iECbFoFO3KpYtuUzBGozG+UIqod8ZkbDPHVH62QadOIrtBPGKqY1F0cZ12/Zi2eC+l5IVO2HQZTnxsnt+geHSsNkDLaxu8/c5bmJpcziZ05xp9aTV0zrCnXVaW16hV25iGTbvWY2N9l4f7e6reEgubSl43dU3Ozk6UkyG/e0X9ZvbVDVBnZTGjnMON08eUmpJb76oylHTulzZW+cwXfp3gvMu7v/wZE3fOw7Mm425XRRpkRFyrtxAVyNiecW4tx2g8ptiagxVmOmirWow9Gqijcmhpl+efuc6Hv/xzpo06x40e0YgQRLfYvr6Lf9zl3TffwHHEKCtruDler6V4vVPNz2w2U0m11eV1tM31T57hIlm24gtqSJTw6arjYjtzDL+LY0uwxmKu6STz26ousrC1zeG9Ozijvtp7Bv1xIpkI7WpLcQ3lmR4Nxbn4zFMkV1e5f+s2J0enLFlTDgsnmHqQcy98msrd2zx++Jjc7gW0QQ3NDDKVvWU4hOMa6lYrEjzD68PwOrj+BM2G6NhnLGyc5+Deh+rIJUc+JkOi8Th6MM7q9iUYNmmXTqlItrAvDlDZ1EwZjwQS4pJMWBSqA1J+HdcXVCeYSrOB1+tXNcB4UNixEWJLq5SOi+DYqtz14LBAIh1n58KnqJcfM+5U6At60Aqrfmpn0EWbaSrxNRF+TSRJp1Zl89wm2vblq+6C4XBSHZBfuagINuPeiVppWQELW5sztW0lphDdi+sPqYLqC595mY8/uklHzN8e0azEKZTLxP2Wyo6nUjFC0QybV55QTbajj95lUNjD0B3uH1fpDmZcuv4cxf0DRt2KIjFHMvJRNKjVa4rBLTJHkR7NnSm9Vp+ZwpE6SkTt2mN0NWoIMe5N+NLLu5QrPY6aE5V78Rg+EpZfMRGPDh5QPjvECgTo9jvy3EKbu0QCc2ZmXPzQTOZTgpaoZIT5LaiSqaoXimREhk4zb5yv/vW/xbs/eZWzgyNFnY5kllhdW2RfXKDFY3wBcUeIDkzSWXJgCJCMBnCCKVqVjopXay+/9DnXO7e5dVBlKRPmiy9s890/fQ2faSIO0al4fT1edDNIOp6m02kpxpXc/EaDmYIftip9VrbzNFtthVySNJZIN8zwIh5vBMcZMR11FAuq02zSkTC/IOjkvWx7FT1tOZPk8rMXefdek1H5SMHFZrpJRAZWhqZcalZIwO9+yq0+uWSSQrHE2kaewkGJ9Y043ZGH/hAMc44nEFUtu1A4wMnjh6qR8NSFLR6eHhEKWvQnM2xpb0jQ35XUmIvtFc6iZCk1Esm4Ql8P+y2CYT9jc5kvfeXL/Oh7f4w7HmDrBisrCySWVhUNQ3Ak7eFc8Qql9u54vQpov3FujcPyKa7tZ/fiJbSL29uuNjcotpv4AxpX13IcV4R6M1YYpeXlIPnVGB8/mimWtjPs4I57DOYecgtL6gsvt8ckQxrrSyvc378vPyJCgSDxVI5atcVwMlAD/ZBuMXXG9MdDLFGae2Q5LB9bP+FgiFTUoGvHaNUKSOVfM31cUP7lMWdnZywvJNjMBzmpB9T2aTodspJNKmut7Qmo4xzjTyC92ZV1MovbnB68T/XkENHTxpJ+mr0eIX+ATn/GREoIuOrx5RcWkSHK+DmpVBTH1ZnaE+ypq8a00vcXQsZTn36Fv/z+dwiEAnjtGanVDWpHD1XbuVhp4ff6VcpB02Tpp2FGY2imq7jnAjrQzi2vupdW07xzv0gsE6NbaZJf8lOsTpStemU9xVo+y6s/u6V8mvlkkHajz6VXvqoyGTM7QmukUz18k1DEz6Qru8uQKjmpaIU9Yyp5cb9FUHjaRohyu4ruehWRvtGZkoom1WNrNWsSTm8wGo84LlSIJqNo0z7D3lidbgQOI6Wl0dghFo7SLbUY6SMIBFheWuHg8aliy+bzK+plJxG0iKgRGmUqjY6q90nkwvaaTIZDhb92fSG2Lm7QKu1zelQiaBgsrm9hmgEODw/UC09Whfn4gP0K5Fd32H94H82yVKVkPb3CeD5UyA8rGlcv2pEAgnVd7Qt0zcA15mpc/fwLL6Llcnk3F/FRLE9VEXW/1iJpSP8rgONx2bl8QzEB3/vpT9haWWJsD6g0W1y4+jSVkyO80hpO5nh0532lto0nwxRqDfU4Ekr5cjaFFQ+on/5YDFXegIoSrOaylCtNfv+f/BP+53/xPypOuAg8RoMuQdNiMHJJJMKq71irCHkiw8ydUasWlWRa3PabK6vcPjxh9+oNhvVTGnW5hPgwhFTfb+DaAzVSng8nhJIpBesVu3g6LUnWClcuneeDWw8JhmOMZxOVd7QHXTx+HzOPh/XVdYWdEp/95TUJoXY4bU7xGnNufPF3OXjvVzAu0xNhtGNixS18usbF3R26nR5HxQKjoc2g32Oma1ihpEioc24sEKYhf1HHYPnG03x86wHeQZWg36+Sn67HT+lw7xMU0XSiVOui7w37hedkf6LglbqhLmf1jkJorGXTtLttEsurykB1ePdt9dGc2qZKX9mCTg2aOJkn+PRLL/P2n32LSqdJIuFjOJkz1ROEAyaN00PMUFBdJkKWRbPXYm0zz9neCa4I73xhtFkfTzhOwOfjyqVLmB4Pb7/xJqlMkm6nTbPRVDbykaPj0zSSyQSJxTwHD+/z4rULvPOgyuaNF6jevUWMMSdnRcxIQAVaq4IEsecE/V4i4Qy2NsYz7rG96vLuwxhjw6NopN1Gj2QixcFBiYX1FSJywgsluX7jGn/505+oC2Bo8yLa+bV1V3o3K6kU+50WYTfI0u45Hu/dJuDYuG4AW0x/EvzVDNWXkduT+OttzU9Y79OQ57MvrNQFQvkxHYfOWFoTmpr+Xb6yoSaHUvOWgVZLZjJziCeX+Wf/4p/yX/0Xv8/f+OqX+ON//yrNSRMTL1ZmjXw2Q/1QLFA6+UxY0YwrzQHxgIexPaHdrDOa2Zw7/wTlowMFg4wkQsqyMhn0sCeaIjuIclOzDeKLC2jjibpRTuw+i8kIzalXmQBDzoDrl7b5+UeP1A9Hc2xG/R6mO8cXj2J4fIqLNayVcOaQjs5xfDFWPvt7vPuD/wvd4+LX/WoB/dXf+m1OHh1xdPsh+fUdKie3qNUraJMZ2oXVdVcMqAK1lTaAFgzzta9/lR/+yZ/QaTeUSNTQTdBnPHntuvppF4/2qbf7XNha5ahUVyePl557WoUnd298lu/84b9Us4TTRpNsOqomicVCRWjkTDURFuhs7qxQqNfZye9w59EHWL6QiljEQ37ag5nSDAijxZnoOHPxt41VdzOTXqR08EAF3l945ll++au3lU08EYtTK54RS6apFM4wAl6VAZ/OHTIRH6FQiIjf4ub9PSVjWlvNUe3bLBgzDs4kaZtVDmih8E80g9GohWc8YTGXZTDsq2PoTHydXrnURGh2SuQWl9UR2NR09ek0NBvDFycYjBJOmKrL74xNrn/u1/joFz+n0ayiba9uuM12k0jIxKOHlRp8JW5RbbfwGybDyRSfIKulYNTvEo1ZJIKyFHZpdktYYj1pDQjpn/gsJQOdyixSqdYxZ2N60xlWKIFj20QyWVpNkWmMMYwo5mTEzB2xu7FBpV7kQIADmkfF4vLLG6xtP8G9ux/Sq57IGIxIOKxyLtVqA33cpN5q4gumiCXilKtlpnZXaYXVAMwdsXb+aYLJbfx2mcM7N9kvT0msXqJ1+iGmWFP6c57YydBujGmOBqQSKVa2dhGB+/GDR+pG2+02lAvIFgyIFSUZcYhEM9TOCnIPYurVlYrSFXy2WBn9Qbqdrjjx8Aok2ONhIGcge4LHCaJtrl10G21xAQu4RVeXCZlb69MOi5kYU8eL5gvQ706Y2SP8hk7IH6U7sRWM3O83Cfr8+Hwz7KGf3fMbqp7d6w05PjhWGxmHKdPZRO4CBHwa4USUwlmZtYVF+u0Rfsuv6J8HhVMM08LvE3+Q7DJHeK2oOjFII3riGmyt7/D13/gaH/zyO/zkzQO83glPbW3yuNhnPK2q8/94PMNjz+lNRMkrjssutjMiufoE4UCQTukh/WabuTtH8/kVxCwciXP+6nWuPrHND77171RNUPdMlWKy60TJLy4wcqJ4/TaW1uDxowIee4YjIU+fWKoMkgs58pko3Vadk1pDfcO9XlsdCFwJ/8s4S5bI48mcuWawKIAxj4/nnn6Sv/rFm1ihiJoxLGVySu/YrNdo9MbqJy5XY7/mEoiGCJphvvx3/zH/7l//T2yvL1DtDJnUTxQMXXRaVkA+OTMmk57a+22vr7O/f8Cs47B8+TJW8xDbF1DDe3kk+B2DuZDeug0FKHDtqRrNOr6EOh9vX7zApLhPsdMgFUopkltwcYvC/VtqeREJSnaljTdoqfOvxC8mNuxsbtIfjHj+2g4/fv1dVs5fRJ+O+fj+HlogQyaTxeoeqajxwJ6ranoqlhbTBlYgwRNf/Aofv/MWpQfvKHik7L0CIR+zkWjgUdoZcflkMgm64yEDKewbkvNB9Vlzi0toSwsZd219l72Hp4T0MVHLx/Jaio/uFrCCPvyBAOn0glqD9bptTsstYnGLwWDIbDqX1ABRK8Qrf+N3ee9nP1TLhvWL5xiVi8q3I9pHGZXNp1NmAl30eIlYHhyPh3FzhhM3ietT5p4gBw8O1BLkiZ0lPFaGQrlGo1xQ+FKxmghbXJDU/oBEqDXyq6v0O2NOKifqjuD3SWlgju7xqm9sOJFlMZdh1K1TLjXVtVtOLfJi9QQyvPilL/Pad/+tKh2EwlFsids1WoT8htI7inZequ6xqEk0e40bL9zg//hf/yV2p8/QnSvn2s65VY73BSqmI+Ih6W1qro5tBNG8fmJhnYVs6hPBhwPaN77yOTe5vM17b71DtXyqWNmyq5NJoTuZEgh8YomVVoJhBKi1ujxxYZPbew9pVcT4pKttju36WYobFDstosk8/VaVVDKqHhE+65MRpXh/EpasuEoYumgGknRHDc7lc/zigz08ronh0TF9hnL59LsdtTDQdGEeC9neS2/S41Mvfo67D0+odetogwEhbYwmVip5fEmGPGlROimytbaufjkeHR3T6XZJhCNMuxMMOS42BjAdYfglYSDovzCeaIJmucxoKOZAR4lDRIjk9Qf4td/6j/nFX/yISqWqzCgzn0AeemSyCwTD8sJ+RDIeptkYKxKeV/Lz0zkXzy/wYO8I3R9SnVLtb//G19wPbt7ic599ij999UNMr6auqa+8coPXfvo2c0Oj0WqwuZRROIxBr8cTF3a4s3dMvTEgHg7QGQxUyNMyg4xmXdWv9+Ill44o17sZDDKY6/QmHibdM0L6VF3dk8kspcYpq+kkByctQZiRyeaodXvks8ucnuxjmAaRcFBNHwe9OTPPlFd+/Xe4/eE9PCEfg6PbTPpDOuOp2hTpzJjMPqFurq1uKi2OfM3TuU0wIHzBKeHMgiobhLUhzfGczUWL5VSQ9woO40Ff1M3qmxb2e4n5I+o5H19aoF8+Rdcd6rUhmmUwadl4/LBzbpvDux8TjvjV3zEciagwUadVVwqe3O51vN4QZ0d30PJL2+642+a5a5scHFapdrtEoxE+9fQue/dO8QcN9vYr+HQPPWeuBBNCRxPBkGZrpDNRajX5gz2ELQ/N1hBX8yuX2mjWV0cxr88kYCWZeyJ0e1Wu7OS4d29P0T1r9Q6xdISAJ0CzUlRaxJnrJ57doFB8gOmZELUsRp0eo6lLZzLEa6ZYO3+RSaNIp3ryHwj4HnxhP7VyRT1Lw1YYU2LY3YEK68hAtjWeEwkGqbXbXL90jse33qA587C6EGcxE+Cw7KqxbLtRVeJpr+kjnVlSnERDmygn0cZCgqPKSCWCz1/Y5Wj/DrrXg+sxiYfDuEYArzOhUm0ynU7IpuI8eeMFjotjatUSWjabd+V/SGZpSX5bh330cJxOu6WiadGgj2qlqViFMgGTpO103CMetnCGNqGUoEPH+Ge28rj5U9I+HtNs1dE1R1GZHVmspqKKzKn54lw9H+f1195j7oWeWACNT7YknW5TQl/4/BaJtKBZa4wUNMerflsiqSXGsz52f8L6jS/Rf3STavWU9XyYzEKWhwdNqpUqhj+gog+Ox6Q3cPGMxS44YOqxSIV9tAc9Lmyscuv2HYxwFI+our0Gack46l5mk6E6v4udRI6irmvj9+kKQ3X90nn2Ds7odifkN9coHj3GCBiEQnEF1hFmY71awRf0q1C+vGtCHlvNbCr9kdAkVtzR1FY2kydu3ODWL35OIhECPUwoFaJ4ekQmk2E6tpmOBqpWN5vP0DVNTdLWN/IKy5ERi+rYYfnKFSW6EyXicChHtbkakTpjOVZKCFSYgi6NaluJ9CK5JKN2l95kSiQWJ2AazDQDMxjGbp4pwIH8M7XniuzsC1qEZ9IX8uGPWEQMl1q9iT8WpXRUIGKF6MwkTGoTMPwEEjl12pn0RHk+JRGK4BGOeK1Gz5ZThYUxneIG/SykE6TSSzw6rNHtNdS5O2rKi7CJQwTN7pEQIPGTz/DG66+jewJ49TGRjScYlQoEZTesedSBwpUdgWVSa0lkTlPmxqHcNNfzq64tFQ9bZ/HSFSqPjxhNulj+ODKZT8QT7G6u88HND5nPp/QnQ0ZjETN7WVrbIpOOcueD9wmnMji9hoq1idwoHIoTskxilo9av0er1VeLC6ECGX4RQxsYrk5KlF9N+Q2UL8yP12fg9VvKJbwcFbmexf1HZXWVH8/E4Gfg12a8+PRl3vhwj4uby9w9HnH1uWsc7N3EMIIcPriD5poEY3H8oTidTpdQSKPTqKu1YDwcVG41MZOHTZ2yPBItk0QkTiqzwMd7+/SlzykEOnOOTyaHhRHurM9T55cptlwGmk1H5kaDJmZqi644P/UZ1597mcXkIsdHj+m0jmlVB7RnE7yarowp2triiitnRnHWB70WL3z6ZV79wV8Si3jVN0dKpslklNsf3SGZiuEY8ps9o9Voq8uCMFvlgtKfmKSCFh7dVh7LzPIyTz55gT//o29jazpTsfU5clEwFSNxLt2H7pCIYVCplYSBiemZks/nKbeGCoYQE/s2HjXDDobDqpA67AvlwmY9m1YFAtMbpj6ZsrwUpj/UuHjpaXKLEX752l+RyWZpF6tK8/X0C9e5e/+BmgnVKiUSiTS1QZ/FaIJqu4tnNiJoRVheW2UymvFw/5ECzfu1OQF/jH5/wnw8JRLVKbUmRCJRvFOb1lSKWOJac5UlNplZUbOgoHdOqXzK1oKPW0dNJmOv4vBqqytPuvGYwWzcY9x1lUC6O+yBPkbkCueevMT6+gaHe48Ux6pcLeD1iLPKUPkU4T4RcNm9cI1lq8dP3zghGg6h+0zm3gDDTpVcLkun26bdbKN7ZKAliCYDx/YhCiN5qUXCFrXBlMziArqgHCY2hUqDuSCeAvLRddHmMoEz6bXGeHSToDXjrNTC1TVWU0lmhng8Tc7vLjAdCzhngt122L60ynGtSr1aZjifSz4AUxszciZM+2PGjoYVMBU91KO7xFRq1uXKhRyFUp9HZ7Ls9qice19ssZkwAV1sAGvc37+D16extbrJ2WkRj8evOAMDe4QzGbOYjFJpdFVAaCCzqvziOff8mkW53CWzsMu9vfv4wnMGAqEJRXG9FuNeTR3LstEAo6nETsO0Wx210Q+ZFjPp7bgzIqJNj+YIxBJkdq5x9MYPpMasnsmi11L5EiHa76xzbXebn/7qXXZ2NznYL5HIiICjqrox9W4bsQVLnnHUqTO3ZTaeZTpqMJqgQpZoc1aTae4VyyTlGBZZoVu7h7z/ZMcakID/zCGcyCvY5ebqKg8OH6j3jMcdMXLmaLL+cwcYroBwonhmA3XEjYbTCtW9tWoxdoQ+0eDx3X1q9Zki3ofzu5wWi5ydPCQkNRd5ZJgGyzuXCAbDVO/dwrHiqmCrDwROE+TB44oqgmnPPPtpV5BLu/kYrUdHfDwJYjpexpKdk+qGWKyluTaeMBp2GA6GCrwuN1LZ6J/2Ovxnf/2LfPuHN9nZ3KVeLFKQlVt2gcXlHANx18jSTR4r/Q6NSglfQITONv/4P/kGYuE8aEx59LjDg4OPCXjCdIUZPpPJmw/kHB70K3elM5LeqDSjZzz/m/8pH/7Z/0dzOKYzmPDic9e4+/EdwrEIO5eu8/Of/pi1fBp518oxL57IUK41seOb6P19VqJRZG9wVmowng9IZVa5sJ3n7q0P1AvaCERYWcqoEE9TSr2juXqUba7nWPnUr/Hz73wLyx6o3Pzi4hYbT17m3puvM5B6i+lH1vdx02XcHuM1NLYun+fmu4dof/AP/8Cdp0McvPsOvUFDpZCOq0UcR2chuUylesry+gbxeIKAPuLorMTjB4doPqnqTfB5/Xz1a5+lWiiyf3pKNJTj/v2PiBge9fEcOx500ySTiKhdqPJjWhHajQbXrjzJ3/17v6vc8//8n/0PHJc7LKUtlYgdiyN+3iZgmEQDBp96cpHlpEYruM3Nt/YVBKczrPPSZ77M3t3bnJ6cMpUppN8iFpAA01Rd6/vtAdVug0g0ieE3OXfhMu/94lesr8fo2ynu3PmIsBVhNZei3qyq26/PmRKNhtXcxh5LHrFNryvrdBvNHZBdXKJct5lpM0zRDMujzBHpCGpvGbdm1Dot+m1Zs42xpw47V64Qiaf5/wGIIZ/fWGV14AAAAABJRU5ErkJggg==;" vertex="1" parent="1">
          <mxGeometry x="570" y="140" width="193.95" height="343.87" as="geometry"/>
        </mxCell>
        <mxCell id="5FQkL91_oub3n9h8Phgb-72" value="" style="verticalLabelPosition=bottom;verticalAlign=top;html=1;shadow=0;dashed=0;strokeWidth=1;strokeColor=none;shape=rect;fillColor=#21CCBB;" vertex="1" parent="1">
          <mxGeometry x="570" y="460" width="190" height="48.5" as="geometry"/>
        </mxCell>
        <mxCell id="5FQkL91_oub3n9h8Phgb-73" value="" style="shape=image;verticalLabelPosition=bottom;labelBackgroundColor=#ffffff;verticalAlign=top;aspect=fixed;imageAspect=0;image=data:image/png,iVBORw0KGgoAAAANSUhEUgAAABgAAAAYCAYAAADgdz34AAAABmJLR0QA/wD/AP+gvaeTAAAAoElEQVRIie3SsQnCYBCG4ccIgthaiRtYWoprpA64jytYuoMDCIKtvUMolrEwRYxJSMSQgHnhh587vnuLO3raZpD6x03MDn489IP/EaywblIQeD+IynT2im4Ica8TigveOacWJpmoJFdJcMAQ+1Rtm8ntvhVcMU16Y5xwxCiTm+BSV/DAMtOfY5YXxMJrL5UFm4JBZUR5gs6eaWUaF/S0zxNfyUBlzI9w+QAAAABJRU5ErkJggg==;" vertex="1" parent="1">
          <mxGeometry x="578" y="470" width="41.25" height="41.25" as="geometry"/>
        </mxCell>
        <mxCell id="5FQkL91_oub3n9h8Phgb-74" value="" style="shape=image;verticalLabelPosition=bottom;labelBackgroundColor=#ffffff;verticalAlign=top;aspect=fixed;imageAspect=0;image=data:image/png,iVBORw0KGgoAAAANSUhEUgAAABgAAAAYCAYAAADgdz34AAAABmJLR0QA/wD/AP+gvaeTAAAAOUlEQVRIiWNgGAUEACMB+f+UmsNEvFsGKcDlNWKDhqB5wy+IyA0anObSPIhGLRi1YNSC4WDBKCAIALMiAx6CERO/AAAAAElFTkSuQmCC;" vertex="1" parent="1">
          <mxGeometry x="702" y="467.25" width="40" height="40" as="geometry"/>
        </mxCell>
        <mxCell id="5FQkL91_oub3n9h8Phgb-77" value="image" style="verticalLabelPosition=bottom;verticalAlign=top;html=1;shadow=0;dashed=0;strokeWidth=1;strokeColor=none;shape=rect;fillColor=#21CCBB;" vertex="1" parent="1">
          <mxGeometry x="570.98" y="140" width="189" height="30" as="geometry"/>
        </mxCell>
      </root>
    </mxGraphModel>
  </diagram>
</mxfile>
